<?xml version="1.0" encoding="UTF-8" standalone="no"?>
<!DOCTYPE svg PUBLIC "-//W3C//DTD SVG 1.1//EN" "http://www.w3.org/Graphics/SVG/1.1/DTD/svg11.dtd">
<svg width="100%" height="100%" viewBox="0 0 5 16" version="1.1" xmlns="http://www.w3.org/2000/svg" xmlns:xlink="http://www.w3.org/1999/xlink" xml:space="preserve" xmlns:serif="http://www.serif.com/" style="fill-rule:evenodd;clip-rule:evenodd;stroke-linejoin:round;stroke-miterlimit:2;">
    <g transform="matrix(1,0,0,1,-96,-59)">
        <g transform="matrix(1,0,0,1,36,54)">
            <g id="Unlink_on_16x">
                <g transform="matrix(1,0,0,0.333333,48,3.33333)">
                    <path d="M17,10.4C17,7.42 16.193,5 15.2,5L13.8,5C12.807,5 12,7.42 12,10.4L12,26L17,26L17,10.4Z" style="fill:rgb(32,32,32);"/>
                </g>
                <g transform="matrix(1,0,0,0.333333,48,12.3333)">
                    <path d="M17,5L12,5L12,20.6C12,23.58 12.807,26 13.8,26L15.2,26C16.193,26 17,23.58 17,20.6L17,5Z" style="fill:rgb(32,32,32);"/>
                </g>
                <g transform="matrix(0.6,0,0,0.238095,53.8,4.80952)">
                    <path d="M17,10.04C17,7.258 16.104,5 15,5L14,5C12.896,5 12,7.258 12,10.04L12,26L17,26L17,10.04Z" style="fill:rgb(216,141,70);"/>
                </g>
                <g transform="matrix(0.6,0,0,0.238095,53.8,13.8095)">
                    <path d="M17,5L12,5L12,20.96C12,23.742 12.896,26 14,26L15,26C16.104,26 17,23.742 17,20.96L17,5Z" style="fill:rgb(216,141,70);"/>
                </g>
            </g>
        </g>
    </g>
</svg>
