<?xml version="1.0" encoding="UTF-8" standalone="no"?>
<!DOCTYPE svg PUBLIC "-//W3C//DTD SVG 1.1//EN" "http://www.w3.org/Graphics/SVG/1.1/DTD/svg11.dtd">
<svg width="100%" height="100%" viewBox="0 0 5 13" version="1.1" xmlns="http://www.w3.org/2000/svg" xmlns:xlink="http://www.w3.org/1999/xlink" xml:space="preserve" xmlns:serif="http://www.serif.com/" style="fill-rule:evenodd;clip-rule:evenodd;stroke-linejoin:round;stroke-miterlimit:2;">
    <g transform="matrix(1,0,0,1,-62,-59)">
        <g transform="matrix(1,0,0,1,36,54)">
            <g id="Unlink_nor_13px" transform="matrix(1,0,0,1,-10,0)">
                <g transform="matrix(0.6,0,0,0.238095,29.8,4.80952)">
                    <path d="M17,10.04C17,7.258 16.104,5 15,5L14,5C12.896,5 12,7.258 12,10.04L12,26L17,26L17,10.04Z" style="fill:rgb(25,25,25);"/>
                </g>
                <g transform="matrix(0.6,0,0,0.238095,29.8,10.8095)">
                    <path d="M17,5L12,5L12,20.96C12,23.742 12.896,26 14,26L15,26C16.104,26 17,23.742 17,20.96L17,5Z" style="fill:rgb(25,25,25);"/>
                </g>
                <g transform="matrix(1,0,0,1,-36,-54)">
                    <path d="M77,60.8C77,59.807 76.193,59 75.2,59L73.8,59C72.807,59 72,59.807 72,60.8L72,70.2C72,71.193 72.807,72 73.8,72L75.2,72C76.193,72 77,71.193 77,70.2L77,60.8ZM76,66L73,66L73,69.8C73,70.462 73.538,71 74.2,71L74.8,71C75.462,71 76,70.462 76,69.8L76,66ZM76,61.2C76,60.538 75.462,60 74.8,60L74.2,60C73.538,60 73,60.538 73,61.2L73,65L76,65L76,61.2Z" style="fill:rgb(65,65,65);"/>
                </g>
            </g>
        </g>
    </g>
</svg>
