<?xml version="1.0" encoding="UTF-8" standalone="no"?>
<!DOCTYPE svg PUBLIC "-//W3C//DTD SVG 1.1//EN" "http://www.w3.org/Graphics/SVG/1.1/DTD/svg11.dtd">
<svg width="100%" height="100%" viewBox="0 0 5 21" version="1.1" xmlns="http://www.w3.org/2000/svg" xmlns:xlink="http://www.w3.org/1999/xlink" xml:space="preserve" xmlns:serif="http://www.serif.com/" style="fill-rule:evenodd;clip-rule:evenodd;stroke-linejoin:round;stroke-miterlimit:2;">
    <g transform="matrix(1,0,0,1,-84,-59)">
        <g transform="matrix(1,0,0,1,36,54)">
            <g id="Unlink_mix_21px">
                <g transform="matrix(1,0,0,0.428571,36,2.85714)">
                    <path d="M17,9.2C17,6.882 16.193,5 15.2,5L13.8,5C12.807,5 12,6.882 12,9.2L12,26L17,26L17,9.2Z" style="fill:rgb(23,23,23);"/>
                </g>
                <g transform="matrix(1,0,0,0.428571,36,14.8571)">
                    <path d="M17,5L12,5L12,21.8C12,24.118 12.807,26 13.8,26L15.2,26C16.193,26 17,24.118 17,21.8L17,5Z" style="fill:rgb(23,23,23);"/>
                </g>
                <g transform="matrix(0.6,0,0,0.333333,41.8,4.33333)">
                    <path d="M17,8.6C17,6.613 16.104,5 15,5L14,5C12.896,5 12,6.613 12,8.6L12,26L17,26L17,8.6Z" style="fill:rgb(216,141,70);"/>
                </g>
                <g transform="matrix(0.6,0,0,0.333333,41.8,16.3333)">
                    <path d="M17,5L12,5L12,22.4C12,24.387 12.896,26 14,26L15,26C16.104,26 17,24.387 17,22.4L17,5Z" style="fill:rgb(36,36,36);"/>
                </g>
            </g>
        </g>
    </g>
</svg>
