<?xml version="1.0" encoding="UTF-8" standalone="no"?><!DOCTYPE svg PUBLIC "-//W3C//DTD SVG 1.1//EN" "http://www.w3.org/Graphics/SVG/1.1/DTD/svg11.dtd"><svg width="100%" height="100%" viewBox="0 0 84 84" version="1.1" xmlns="http://www.w3.org/2000/svg" xmlns:xlink="http://www.w3.org/1999/xlink" xml:space="preserve" xmlns:serif="http://www.serif.com/" style="fill-rule:evenodd;clip-rule:evenodd;stroke-linejoin:round;stroke-miterlimit:2;"><g id="ControlSurface_Activate_Checked"><rect id="Transparent-BG" serif:id="Transparent BG" x="0" y="0" width="83.333" height="83.333" style="fill:none;"/><path d="M75,33.333l-62.5,0l0,37.5l62.5,0l0,-37.5Zm-45.833,20.834l-8.334,-0l0,8.333l8.334,0l-0,-8.333Zm12.5,-0l-8.334,-0l0,8.333l8.334,0l-0,-8.333Zm12.5,-0l-8.334,-0l0,8.333l8.334,0l-0,-8.333Zm12.5,-0l-8.334,-0l0,8.333l8.334,0l-0,-8.333Zm-37.5,-12.5l-8.334,-0l0,8.333l8.334,0l-0,-8.333Zm12.5,-0l-8.334,-0l0,8.333l8.334,0l-0,-8.333Zm12.5,-0l-8.334,-0l0,8.333l8.334,0l-0,-8.333Zm12.5,-0l-8.334,-0l0,8.333l8.334,0l-0,-8.333Z"/><path d="M62.5,25l-37.5,0l18.543,-16.667l18.957,16.667Z"/></g></svg>