<?xml version="1.0" encoding="UTF-8" standalone="no"?><!DOCTYPE svg PUBLIC "-//W3C//DTD SVG 1.1//EN" "http://www.w3.org/Graphics/SVG/1.1/DTD/svg11.dtd"><svg width="100%" height="100%" viewBox="0 0 15 15" version="1.1" xmlns="http://www.w3.org/2000/svg" xmlns:xlink="http://www.w3.org/1999/xlink" xml:space="preserve" xmlns:serif="http://www.serif.com/" style="fill-rule:evenodd;clip-rule:evenodd;stroke-linejoin:round;stroke-miterlimit:2;"><g id="ObjectIcons_EffectSlot_nor"><g id="Icons"><g><g id="Base-Block" serif:id="Base Block"><path d="M15,2.1c-0,-1.159 -0.941,-2.1 -2.1,-2.1l-10.8,0c-1.159,0 -2.1,0.941 -2.1,2.1l-0,10.8c-0,1.159 0.941,2.1 2.1,2.1l10.8,0c1.159,0 2.1,-0.941 2.1,-2.1l-0,-10.8Z" style="fill-opacity:0;"/></g><path d="M5,1l-4,0l-0,13l4,0l-0,-1l-3,0l-0,-11l3,0l-0,-1Z" style="fill:#2b2b2b;"/><path d="M6,1c0,-0.552 -0.448,-1 -1,-1l-4,0c-0.552,0 -1,0.448 -1,1l-0,13c-0,0.552 0.448,1 1,1l4,0c0.552,0 1,-0.448 1,-1l-0,-1c0,-0.552 -0.448,-1 -1,-1l-2,0c-0,0 -0,-9 -0,-9c-0,0 2,0 2,0c0.552,0 1,-0.448 1,-1l-0,-1Zm-1,0l-4,0l-0,13l4,0l-0,-1l-3,0l-0,-11l3,0l-0,-1Z" style="fill:#c4c4c4;"/><g id="X"><path d="M13.753,5.688c-0.445,-0.445 -1.168,-0.445 -1.613,-0l-3.452,3.452c-0.445,0.445 -0.445,1.168 -0,1.613l0.509,0.509c0.445,0.445 1.167,0.445 1.612,0l3.453,-3.453c0.445,-0.445 0.445,-1.167 0,-1.612l-0.509,-0.509Z" style="fill:#c4c4c4;"/><path d="M14.262,10.753c0.445,-0.445 0.445,-1.168 0,-1.613l-3.453,-3.452c-0.445,-0.445 -1.167,-0.445 -1.612,-0l-0.509,0.509c-0.445,0.445 -0.445,1.167 -0,1.612l3.452,3.453c0.445,0.445 1.168,0.445 1.613,0l0.509,-0.509Z" style="fill:#c4c4c4;"/></g><path d="M5,4l5,0l-0,1l-4,0l-0,2l2,0l-0,1l-2,0l-0,3l-1,0l-0,-7Z" style="fill-rule:nonzero;"/><path d="M5,3c-0.552,0 -1,0.448 -1,1l-0,7c0,0.552 0.448,1 1,1l1,0c0.552,0 1,-0.448 1,-1l-0,-2c-0,0 1,0 1,0c0.552,0 1,-0.448 1,-1l-0,-1c-0,-0.552 -0.448,-1 -1,-1l-1,-0c-0,0 3,0 3,0c0.552,0 1,-0.448 1,-1l-0,-1c0,-0.552 -0.448,-1 -1,-1l-5,0Zm-0,1l5,0l-0,1l-4,0l-0,2l2,0l-0,1l-2,0l-0,3l-1,0l-0,-7Z" style="fill:#c4c4c4;"/><g id="X1" serif:id="X"><path d="M13.788,10.081l-3.919,-3.92l-0.708,0.708l3.92,3.919l0.707,-0.707Z" style="fill:#2b2b2b;"/><path d="M13.09,6.152l-3.938,3.938l0.708,0.707l3.937,-3.937l-0.707,-0.708Z" style="fill:#2b2b2b;"/></g></g></g></g></svg>