<?xml version="1.0" encoding="UTF-8" standalone="no"?><!DOCTYPE svg PUBLIC "-//W3C//DTD SVG 1.1//EN" "http://www.w3.org/Graphics/SVG/1.1/DTD/svg11.dtd"><svg width="100%" height="100%" viewBox="0 0 15 15" version="1.1" xmlns="http://www.w3.org/2000/svg" xmlns:xlink="http://www.w3.org/1999/xlink" xml:space="preserve" xmlns:serif="http://www.serif.com/" style="fill-rule:evenodd;clip-rule:evenodd;stroke-linejoin:round;stroke-miterlimit:2;"><g id="ObjectIcons_RTPC_dis" opacity="0.3"><g id="Icons"><g id="Base-Block" serif:id="Base Block"><path d="M15,2.1c-0,-1.159 -0.941,-2.1 -2.1,-2.1l-10.8,0c-1.159,0 -2.1,0.941 -2.1,2.1l-0,10.8c-0,1.159 0.941,2.1 2.1,2.1l10.8,0c1.159,0 2.1,-0.941 2.1,-2.1l-0,-10.8Z" style="fill-opacity:0;"/></g><path d="M5,2c-0,-0.552 -0.448,-1 -1,-1l-1,0c-0.552,0 -1,0.448 -1,1l-0,12c0,0.552 0.448,1 1,1l1,0c0.552,0 1,-0.448 1,-1l-0,-12Zm-1,0l-1,0l-0,12l1,0l-0,-12Z" style="fill:#c4c4c4;"/><rect x="3" y="2" width="1" height="12" style="fill:#c4c4c4;"/><path d="M15,11c0,-0.552 -0.448,-1 -1,-1l-13,0c-0.552,0 -1,0.448 -1,1l-0,0.993c-0,0.552 0.448,1 1,1l13,-0c0.552,-0 1,-0.448 1,-1l0,-0.993Zm-1,0l-13,0l-0,0.993l13,-0l0,-0.993Z" style="fill:#c4c4c4;"/><rect x="1" y="11" width="13" height="0.993" style="fill:#c4c4c4;"/><rect x="1" y="11" width="1.501" height="1"/><rect x="3" y="11" width="11" height="1"/><rect x="3" y="2" width="1" height="9"/><rect x="3" y="12.504" width="1" height="1.496"/><path d="M14,9.993c0.552,-0 1,-0.448 1,-1l0,-0.993c0,-0.552 -0.448,-1 -1,-1l-1,-0c-0.546,-0 -0.871,-0.224 -1.144,-0.53c-0.282,-0.316 -0.524,-0.694 -0.806,-1.07c-0.893,-1.19 -2.074,-2.4 -5.05,-2.4c-0,-0 -0.502,0 -0.502,0c-0.552,0 -1,0.448 -1,1l0,0.993c0,0.552 0.448,1 1,1l0.502,-0c1.263,-0 1.861,0.535 2.355,1.15c0.285,0.356 0.545,0.732 0.837,1.082c0.802,0.963 1.803,1.768 3.808,1.768c0,-0 1,-0 1,-0Zm0,-1l-1,-0c-4,-0 -3,-4 -7,-4l-0.502,-0l0,-0.993l0.502,-0c5,-0 4,4 7,4l1,0l0,0.993Z" style="fill:#c4c4c4;"/><path d="M14,8.993l-1,-0c-4,-0 -3,-4 -7,-4l-0.502,-0l0,-0.993l0.502,-0c5,-0 4,4 7,4l1,0l0,0.993Z" style="fill-rule:nonzero;"/></g></g></svg>