<?xml version="1.0" encoding="UTF-8" standalone="no"?><!DOCTYPE svg PUBLIC "-//W3C//DTD SVG 1.1//EN" "http://www.w3.org/Graphics/SVG/1.1/DTD/svg11.dtd"><svg width="100%" height="100%" viewBox="0 0 15 15" version="1.1" xmlns="http://www.w3.org/2000/svg" xmlns:xlink="http://www.w3.org/1999/xlink" xml:space="preserve" xmlns:serif="http://www.serif.com/" style="fill-rule:evenodd;clip-rule:evenodd;stroke-linejoin:round;stroke-miterlimit:2;"><g id="ObjectIcons_ActionSetEffect_dis" opacity="0.3"><g id="Icons"><g id="Base-Block" serif:id="Base Block"><path d="M15,1c-0,-0.552 -0.448,-1 -1,-1l-13,-0c-0.552,-0 -1,0.448 -1,1l-0,13c-0,0.552 0.448,1 1,1l13,-0c0.552,-0 1,-0.448 1,-1l-0,-13Z" style="fill-opacity:0;"/></g><path d="M11.931,7.549l-0.731,-0.855c-0.181,-0.212 -0.443,-0.338 -0.721,-0.349c-0.278,-0.011 -0.548,0.094 -0.746,0.291l-1.161,1.158c-0.202,0.201 -0.309,0.479 -0.293,0.764c0.016,0.285 0.153,0.55 0.376,0.727l0.852,0.676c-0,0 -0.851,0.614 -0.851,0.614c-0.238,0.171 -0.389,0.439 -0.412,0.731c-0.023,0.293 0.083,0.581 0.291,0.788l1.245,1.241c0.201,0.201 0.478,0.306 0.761,0.29c0.284,-0.015 0.547,-0.151 0.725,-0.373l0.704,-0.879c0.001,0 0.606,0.814 0.606,0.814c0.173,0.233 0.439,0.379 0.729,0.401c0.289,0.021 0.574,-0.085 0.779,-0.29l0.618,-0.615c0.187,-0.187 0.29,-0.387 0.298,-0.683l-0,-1c-0.002,-0.322 -0.139,-0.589 -0.381,-0.779l-0.272,-0.215c-0,-0 0.276,-0.22 0.276,-0.22c0.235,-0.186 0.373,-0.486 0.377,-0.786l0.002,-1c-0.003,-0.275 -0.088,-0.546 -0.279,-0.737l-0.676,-0.673c-0.207,-0.208 -0.496,-0.313 -0.788,-0.289c-0.293,0.024 -0.56,0.176 -0.731,0.414l-0.597,0.834Z" style="fill:#c4c4c4;"/><path d="M12,9.17l1.341,-1.872l0.676,0.673l-0.015,1.032l-1.266,1.005l1.264,0.998l-0.004,0.968l-0.618,0.616l-1.378,-1.852l-1.514,1.889l-1.245,-1.241l1.922,-1.386l-1.885,-1.498l1.161,-1.158l1.561,1.826Z" style="fill:#393939;"/><path d="M7,3l5,-0l-0,1l-4,-0l-0,2l2,-0l-0,1l-2,-0l-0,5l-1,-0l-0,-9Z" style="fill:#393939;"/><path d="M10,5l2,-0c0.552,-0 1,-0.448 1,-1l-0,-1c0,-0.552 -0.448,-1 -1,-1l-5,-0c-0.552,-0 -1,0.448 -1,1l-0,9c-0,0.552 0.448,1 1,1l1,-0c0.552,-0 1,-0.448 1,-1l-0,-4c-0,-0 1,-0 1,-0c0.552,-0 1,-0.448 1,-1l-0,-1c-0,-0.552 -0.448,-1 -1,-1Zm-3,-2l5,-0l-0,1l-4,-0l-0,2l2,-0l-0,1l-2,-0l-0,5l-1,-0l-0,-9Z" style="fill:#c4c4c4;"/><path d="M3.002,7l0.012,-3l2.986,3.498l-3,3.525l-0,-3.023l-2,-0l0.002,-1l2,-0Z"/><clipPath id="_clip1"><path d="M3.002,7l0.012,-3l2.986,3.498l-3,3.525l-0,-3.023l-2,-0l0.002,-1l2,-0Z"/></clipPath><g clip-path="url(#_clip1)"><path d="M8,14.171l-9,0l-0,-4.853l1,-0l-0,3.64l7,-0l-0,-10.921l-7,0l-0,3.641l-1,-0l-0,-4.854l9,0l-0,13.347Z" style="fill:#393939;"/></g><path d="M2.006,6l-1.004,-0c-0.552,-0 -0.999,0.447 -1,0.998l-0.002,1c-0.001,0.266 0.105,0.52 0.292,0.708c0.188,0.188 0.442,0.294 0.708,0.294l1,-0c-0,0 -0,2.023 -0,2.023c-0,0.419 0.261,0.794 0.655,0.938c0.393,0.145 0.835,0.029 1.107,-0.29l3,-3.525c0.318,-0.374 0.317,-0.924 -0.001,-1.298l-2.986,-3.497c-0.271,-0.318 -0.712,-0.434 -1.105,-0.29c-0.392,0.144 -0.654,0.517 -0.656,0.935l-0.008,2.004Zm0.996,1l0.012,-3l2.986,3.498l-3,3.525l-0,-3.023l-2,-0l0.002,-1l2,-0Z" style="fill:#c4c4c4;"/></g></g></svg>