<?xml version="1.0" encoding="UTF-8" standalone="no"?><!DOCTYPE svg PUBLIC "-//W3C//DTD SVG 1.1//EN" "http://www.w3.org/Graphics/SVG/1.1/DTD/svg11.dtd"><svg width="100%" height="100%" viewBox="0 0 15 15" version="1.1" xmlns="http://www.w3.org/2000/svg" xmlns:xlink="http://www.w3.org/1999/xlink" xml:space="preserve" xmlns:serif="http://www.serif.com/" style="fill-rule:evenodd;clip-rule:evenodd;stroke-linejoin:round;stroke-miterlimit:2;"><g id="ObjectIcons_FileMedia_nor"><g id="Base-Block" serif:id="Base Block"><path d="M15,2.1c-0,-1.159 -0.941,-2.1 -2.1,-2.1l-10.8,-0c-1.159,-0 -2.1,0.941 -2.1,2.1l-0,10.8c-0,1.159 0.941,2.1 2.1,2.1l10.8,-0c1.159,-0 2.1,-0.941 2.1,-2.1l-0,-10.8Z" style="fill-opacity:0;"/></g><path d="M2,1l8,-0l3,3l-0,10l-11,-0c0.079,-0.32 -0,-13 -0,-13Z" style="fill:#393939;"/><path d="M2,-0c-0.266,-0 -0.522,0.106 -0.709,0.295c-0.188,0.189 -0.293,0.445 -0.291,0.711c0,0 0.107,12.439 0.029,12.754c-0.074,0.298 -0.006,0.614 0.184,0.856c0.189,0.243 0.479,0.384 0.787,0.384l11,-0c0.552,-0 1,-0.448 1,-1l0,-10c0,-0.265 -0.105,-0.52 -0.293,-0.707l-3,-3c-0.187,-0.188 -0.442,-0.293 -0.707,-0.293l-8,-0Zm-0,1l8,-0l3,3l-0,10l-11,-0c0.079,-0.32 -0,-13 -0,-13Z" style="fill:#c4c4c4;"/><path d="M7.71,2.857c1.544,1.021 2.556,2.713 2.556,4.625c0,1.934 -1.035,3.644 -2.61,4.661l-0.735,-1.146c1.253,-0.759 2.079,-2.051 2.079,-3.514c-0,-1.443 -0.804,-2.72 -2.029,-3.483l0.739,-1.143Z" style="fill:#c4c4c4;"/><path d="M6.546,4.529c1.013,0.632 1.683,1.72 1.683,2.953c-0,1.255 -0.694,2.359 -1.738,2.986l-0.755,-1.138c0.668,-0.371 1.118,-1.059 1.118,-1.845c-0,-0.768 -0.429,-1.442 -1.072,-1.818l0.764,-1.138Z" style="fill:#c4c4c4;"/><path d="M5.138,6.102c0.512,0.257 0.862,0.778 0.862,1.378c-0,0.624 -0.377,1.161 -0.921,1.407l-0.483,-0.728c0.619,-0.49 0.465,-0.841 -0.034,-1.194l0.576,-0.863Z" style="fill:#c4c4c4;"/></g></svg>