<?xml version="1.0" encoding="UTF-8" standalone="no"?><!DOCTYPE svg PUBLIC "-//W3C//DTD SVG 1.1//EN" "http://www.w3.org/Graphics/SVG/1.1/DTD/svg11.dtd"><svg width="100%" height="100%" viewBox="0 0 15 15" version="1.1" xmlns="http://www.w3.org/2000/svg" xmlns:xlink="http://www.w3.org/1999/xlink" xml:space="preserve" xmlns:serif="http://www.serif.com/" style="fill-rule:evenodd;clip-rule:evenodd;stroke-linejoin:round;stroke-miterlimit:2;"><g id="ObjectIcons_Folder_nor"><g id="Icons"><g id="Base-Block" serif:id="Base Block"><path d="M15,2.1c-0,-1.159 -0.941,-2.1 -2.1,-2.1l-10.8,-0c-1.159,-0 -2.1,0.941 -2.1,2.1l-0,10.8c-0,1.159 0.941,2.1 2.1,2.1l10.8,-0c1.159,-0 2.1,-0.941 2.1,-2.1l-0,-10.8Z" style="fill-opacity:0;"/></g><path d="M-0,1l-0,13l15,-0l-0,-11l-7,-0.001l-0,-2l-8,0.001Zm7,3l7,-0l-0,9l-13,0l-0,-11l6,0l-0,2Z"/><path d="M7,4l7,-0l-0,9l-13,0l-0,-11l6,0l-0,2Zm-1,1l7,-0l-0,7l-11,-0l-0,-9l4,-0l-0,2Z" style="fill:#fff;"/><path d="M6,5l7,-0l-0,7l-11,-0l-0,-9l4,-0l-0,2Zm-1,1l7,-0l-0,5l-9,-0l-0,-7l2,-0l-0,2Z" style="fill:#434343;"/><path d="M5,6l7,0l-0,5l-9,0l-0,-7l2,0l-0,2Z" style="fill:#d6d6d6;"/></g></g></svg>