<?xml version="1.0" encoding="UTF-8" standalone="no"?><!DOCTYPE svg PUBLIC "-//W3C//DTD SVG 1.1//EN" "http://www.w3.org/Graphics/SVG/1.1/DTD/svg11.dtd"><svg width="100%" height="100%" viewBox="0 0 63 63" version="1.1" xmlns="http://www.w3.org/2000/svg" xmlns:xlink="http://www.w3.org/1999/xlink" xml:space="preserve" xmlns:serif="http://www.serif.com/" style="fill-rule:evenodd;clip-rule:evenodd;stroke-linejoin:round;stroke-miterlimit:2;"><g id="ObjectIcons_UIOnlyFolder_nor"><g id="Icons"><g id="Base-Block" serif:id="Base Block"><path d="M62.5,8.75c-0,-4.829 -3.921,-8.75 -8.75,-8.75l-45,0c-4.829,0 -8.75,3.921 -8.75,8.75l-0,45c-0,4.829 3.921,8.75 8.75,8.75l45,0c4.829,0 8.75,-3.921 8.75,-8.75l-0,-45Z" style="fill:none;"/></g><path d="M29.167,16.667l29.166,-0l0,37.501l-54.166,-0l-0,-45.833l25,-0l-0,8.332Zm-4.167,4.166l29.167,0l-0,29.167l-45.834,0l0,-37.5l16.667,0l-0,8.333Z" style="fill:#fff;"/><path d="M33.333,12.5l0,-4.165c0,-2.302 -1.865,-4.167 -4.166,-4.167l-25,-0c-2.302,-0 -4.167,1.865 -4.167,4.167l-0,45.833c0,2.301 1.865,4.167 4.167,4.167l54.166,-0c2.302,-0 4.167,-1.866 4.167,-4.167l-0,-37.501c0,-2.302 -1.865,-4.167 -4.167,-4.167l-25,-0Zm-4.166,4.167l29.166,-0l0,37.501l-54.166,-0l-0,-45.833l25,-0l-0,8.332Zm-4.167,4.166l29.167,0l-0,29.167l-45.834,0l0,-37.5l16.667,0l-0,8.333Zm-4.167,0c0,2.302 1.866,4.167 4.167,4.167l25,0c-0,0 -0,20.833 -0,20.833c0,0 -37.5,0 -37.5,0c-0,0 -0,-29.166 -0,-29.166c-0,-0 8.333,-0 8.333,-0c0,-0 0,4.166 0,4.166Z" style="fill:#222;"/></g></g></svg>