<?xml version="1.0" encoding="UTF-8" standalone="no"?><!DOCTYPE svg PUBLIC "-//W3C//DTD SVG 1.1//EN" "http://www.w3.org/Graphics/SVG/1.1/DTD/svg11.dtd"><svg width="100%" height="100%" viewBox="0 0 67 67" version="1.1" xmlns="http://www.w3.org/2000/svg" xmlns:xlink="http://www.w3.org/1999/xlink" xml:space="preserve" xmlns:serif="http://www.serif.com/" style="fill-rule:evenodd;clip-rule:evenodd;stroke-linejoin:round;stroke-miterlimit:2;"><g id="ObjectIcons_PropHighShelf_dis" opacity="0.3"><g id="Icons"><g id="Base-Block" serif:id="Base Block"><rect x="-0.032" y="4.048" width="62.5" height="62.5" style="fill:#c8c8c8;fill-opacity:0;"/></g><path d="M4.187,32.528l23.829,-0.116l10.735,-15.154c1.327,-1.874 3.481,-2.988 5.778,-2.988l17.886,-0l0,5.66l-17.886,0c-0.461,0 -0.893,0.224 -1.159,0.6l-10.461,14.768l10.462,14.77c0.266,0.374 0.696,0.597 1.155,0.597l17.889,0l0,5.66l-17.889,0c-2.295,0 -4.447,-1.113 -5.774,-2.985l-10.732,-15.151l-23.821,-0l-0.012,-5.661Z" style="fill:#c8c8c8;"/><path d="M45.949,24.097l-7.934,11.201l7.934,11.2l16.466,0c2.302,0 4.167,1.866 4.167,4.167l-0,5.66c-0,2.302 -1.865,4.167 -4.167,4.167l-17.889,0c-3.646,0 -7.066,-1.768 -9.174,-4.744c0,0 -9.486,-13.393 -9.486,-13.393l-21.667,0c-2.298,0 -4.162,-1.86 -4.167,-4.158l-0.012,-5.66c-0.005,-2.297 1.85,-4.164 4.146,-4.175c0,-0 21.688,-0.106 21.688,-0.106l9.496,-13.406c2.109,-2.978 5.531,-4.747 9.179,-4.747l17.886,-0c2.302,-0 4.167,1.865 4.167,4.167l-0,5.66c-0,2.301 -1.865,4.167 -4.167,4.167l-16.466,-0Zm-41.762,8.431l0.012,5.661l23.821,-0l10.732,15.151c1.327,1.872 3.479,2.985 5.774,2.985l17.889,0l0,-5.66l-17.889,0c-0.459,0 -0.889,-0.223 -1.155,-0.597l-10.462,-14.77l10.461,-14.768c0.266,-0.376 0.698,-0.6 1.159,-0.6l17.886,0l0,-5.66l-17.886,-0c-2.297,-0 -4.451,1.114 -5.778,2.988l-10.735,15.154l-23.829,0.116Z" style="fill:#222;"/></g></g></svg>