<?xml version="1.0" encoding="UTF-8" standalone="no"?><!DOCTYPE svg PUBLIC "-//W3C//DTD SVG 1.1//EN" "http://www.w3.org/Graphics/SVG/1.1/DTD/svg11.dtd"><svg width="100%" height="100%" viewBox="0 0 15 15" version="1.1" xmlns="http://www.w3.org/2000/svg" xmlns:xlink="http://www.w3.org/1999/xlink" xml:space="preserve" xmlns:serif="http://www.serif.com/" style="fill-rule:evenodd;clip-rule:evenodd;stroke-linejoin:round;stroke-miterlimit:2;"><g id="ObjectIcons_FileGeneric_nor"><g id="Base-Block" serif:id="Base Block"><path d="M15,2.1c-0,-1.159 -0.941,-2.1 -2.1,-2.1l-10.8,-0c-1.159,-0 -2.1,0.941 -2.1,2.1l-0,10.8c-0,1.159 0.941,2.1 2.1,2.1l10.8,-0c1.159,-0 2.1,-0.941 2.1,-2.1l-0,-10.8Z" style="fill-opacity:0;"/></g><path d="M2,1l8,-0l3,3l0,10l-11,-0c0.079,-0.32 0,-13 0,-13Z" style="fill:#c8c8c8;"/><path d="M2,-0c-0.266,-0 -0.522,0.106 -0.709,0.295c-0.188,0.189 -0.293,0.445 -0.291,0.711c0,0 0.107,12.439 0.029,12.754c-0.074,0.298 -0.006,0.614 0.184,0.856c0.189,0.243 0.479,0.384 0.787,0.384l11,-0c0.552,-0 1,-0.448 1,-1l0,-10c0,-0.265 -0.105,-0.52 -0.293,-0.707l-3,-3c-0.187,-0.188 -0.442,-0.293 -0.707,-0.293l-8,-0Zm0,1l8,-0l3,3l0,10l-11,-0c0.079,-0.32 0,-13 0,-13Z" style="fill:#222;"/></g></svg>