<?xml version="1.0" encoding="UTF-8" standalone="no"?><!DOCTYPE svg PUBLIC "-//W3C//DTD SVG 1.1//EN" "http://www.w3.org/Graphics/SVG/1.1/DTD/svg11.dtd"><svg width="100%" height="100%" viewBox="0 0 15 15" version="1.1" xmlns="http://www.w3.org/2000/svg" xmlns:xlink="http://www.w3.org/1999/xlink" xml:space="preserve" xmlns:serif="http://www.serif.com/" style="fill-rule:evenodd;clip-rule:evenodd;stroke-linejoin:round;stroke-miterlimit:2;"><g id="ObjectIcons_FileJSON_dis" opacity="0.3"><g id="Base-Block" serif:id="Base Block"><path d="M15,2.1c0,-1.159 -0.941,-2.1 -2.1,-2.1l-10.8,-0c-1.159,-0 -2.1,0.941 -2.1,2.1l0,10.8c0,1.159 0.941,2.1 2.1,2.1l10.8,-0c1.159,-0 2.1,-0.941 2.1,-2.1l0,-10.8Z" style="fill-opacity:0;"/></g><path d="M2,1l8,-0l3,3l-0,10l-11,-0c0.079,-0.32 0,-13 0,-13Z" style="fill:#c8c8c8;"/><path d="M2,-0c-0.266,-0 -0.522,0.106 -0.709,0.295c-0.188,0.189 -0.293,0.445 -0.291,0.711c0,0 0.107,12.439 0.029,12.754c-0.074,0.298 -0.006,0.614 0.184,0.856c0.189,0.243 0.479,0.384 0.787,0.384l11,-0c0.552,-0 1,-0.448 1,-1l0,-10c0,-0.265 -0.105,-0.52 -0.293,-0.707l-3,-3c-0.187,-0.188 -0.442,-0.293 -0.707,-0.293l-8,-0Zm0,1l8,-0l3,3l-0,10l-11,-0c0.079,-0.32 0,-13 0,-13Z" style="fill:#222;"/><path d="M6.013,9.833l-0,-0.874c0.122,0.133 0.254,0.233 0.397,0.299c0.143,0.067 0.287,0.1 0.433,0.1c0.086,-0 0.16,-0.01 0.224,-0.03c0.064,-0.02 0.117,-0.048 0.16,-0.084c0.043,-0.035 0.075,-0.077 0.096,-0.125c0.021,-0.048 0.031,-0.101 0.031,-0.157c0,-0.077 -0.017,-0.145 -0.05,-0.205c-0.034,-0.06 -0.08,-0.116 -0.138,-0.167c-0.058,-0.051 -0.127,-0.1 -0.207,-0.147c-0.08,-0.048 -0.166,-0.096 -0.259,-0.145c-0.235,-0.128 -0.411,-0.283 -0.527,-0.467c-0.115,-0.184 -0.173,-0.407 -0.173,-0.667c-0,-0.204 0.032,-0.379 0.095,-0.526c0.063,-0.147 0.149,-0.267 0.257,-0.362c0.109,-0.095 0.235,-0.164 0.378,-0.209c0.143,-0.045 0.294,-0.067 0.454,-0.067c0.157,-0 0.296,0.012 0.417,0.037c0.121,0.024 0.297,0.084 0.399,0.135l-0,0.817c-0.05,-0.046 -0.169,-0.107 -0.229,-0.142c-0.059,-0.035 -0.12,-0.063 -0.183,-0.086c-0.064,-0.023 -0.126,-0.04 -0.189,-0.051c-0.062,-0.011 -0.121,-0.016 -0.177,-0.016c-0.077,-0 -0.148,0.01 -0.211,0.029c-0.063,0.019 -0.116,0.046 -0.159,0.08c-0.044,0.035 -0.078,0.076 -0.101,0.125c-0.024,0.048 -0.036,0.102 -0.036,0.162c-0,0.066 0.013,0.124 0.04,0.176c0.026,0.052 0.064,0.101 0.113,0.148c0.049,0.046 0.109,0.092 0.179,0.137c0.07,0.044 0.149,0.09 0.238,0.137c0.12,0.066 0.229,0.136 0.325,0.21c0.096,0.073 0.178,0.157 0.247,0.25c0.068,0.092 0.121,0.199 0.157,0.318c0.037,0.119 0.055,0.258 0.055,0.416c0,0.219 -0.032,0.403 -0.096,0.551c-0.063,0.148 -0.15,0.269 -0.259,0.361c-0.11,0.092 -0.237,0.158 -0.382,0.198c-0.145,0.04 -0.298,0.06 -0.459,0.06c-0.166,-0 -0.323,-0.018 -0.472,-0.055c-0.15,-0.036 -0.279,-0.091 -0.388,-0.164Z" style="fill:#222;fill-rule:nonzero;"/><path d="M5,8.371c0,0.527 -0.122,0.93 -0.366,1.21c-0.244,0.279 -0.598,0.419 -1.061,0.419c-0.206,-0 -0.397,-0.036 -0.573,-0.107l0,-0.831c0.152,0.116 0.322,0.173 0.51,0.173c0.404,0 0.49,-0.3 0.49,-0.899l0,-2.336l1,-0l0,2.371Z" style="fill:#222;fill-rule:nonzero;"/><path d="M12,10l-0.84,-0l-1.246,-2.504l-0.128,2.504l-0.786,-0l0,-4l0.896,-0l1.094,2l0.01,-0c-0.014,-0.091 0,-2 0,-2l1,-0l0,4Z" style="fill:#222;fill-rule:nonzero;"/></g></svg>