<?xml version="1.0" encoding="UTF-8" standalone="no"?>
<!DOCTYPE svg PUBLIC "-//W3C//DTD SVG 1.1//EN" "http://www.w3.org/Graphics/SVG/1.1/DTD/svg11.dtd">
<svg width="100%" height="100%" viewBox="0 0 19 19" version="1.1" xmlns="http://www.w3.org/2000/svg" xmlns:xlink="http://www.w3.org/1999/xlink" xml:space="preserve" xmlns:serif="http://www.serif.com/" style="fill-rule:evenodd;clip-rule:evenodd;stroke-linejoin:round;stroke-miterlimit:2;">
    <g transform="matrix(1,0,0,1,-105,-4)">
        <g id="Filter_Properties_Normal" transform="matrix(1,0,0,1,106,4)">
            <g>
                <g id="Transparent-BG" serif:id="Transparent BG" transform="matrix(0.95,0,0,0.95,-1,-1.13687e-13)">
                    <rect x="0" y="0" width="20" height="20" style="fill:white;fill-opacity:0;"/>
                </g>
                <g transform="matrix(1,0,0,1,-106,-4)">
                    <path d="M122,12.49C122,12.22 121.78,12 121.51,12L117,12L115,14.503L115,20.51C115,20.78 115.22,21 115.49,21L121.51,21C121.78,21 122,20.78 122,20.51L122,12.49ZM121,18L116,18L116,19L121,19L121,18ZM121,16L116,16L116,17L121,17L121,16ZM121,14L116,14L116,15L121,15L121,14Z" style="fill:rgb(189,189,189);"/>
                    <path d="M123,12.49C123,11.668 122.332,11 121.51,11C121.51,11 117,11 117,11C116.696,11 116.409,11.138 116.219,11.376L114.219,13.879C114.077,14.056 114,14.276 114,14.503L114,20.51C114,21.332 114.668,22 115.49,22L121.51,22C122.332,22 123,21.332 123,20.51C123,20.51 123,12.49 123,12.49ZM122,12.49C122,12.22 121.78,12 121.51,12L117,12L115,14.503L115,20.51C115,20.78 115.22,21 115.49,21L121.51,21C121.78,21 122,20.78 122,20.51L122,12.49ZM121,18L116,18L116,19L121,19L121,18ZM121,16L116,16L116,17L121,17L121,16ZM121,14L116,14L116,15L121,15L121,14Z" style="fill:rgb(58,58,58);"/>
                </g>
                <g transform="matrix(2,0,0,1.48571,-1638,-243.629)">
                    <path d="M821.5,170.038L821.5,172.875L822.5,174.75L822.5,170.038L824.5,166.673L824.5,166L819.5,166L819.5,166.673L821.5,170.038Z" style="fill:rgb(189,189,189);"/>
                    <path d="M821,170.275L821,172.875C821,173.016 821.033,173.153 821.094,173.268L822.094,175.143C822.22,175.38 822.446,175.48 822.653,175.391C822.86,175.301 823,175.042 823,174.75L823,170.275C823,170.275 824.89,167.094 824.89,167.094C824.961,166.974 825,166.826 825,166.673L825,166C825,165.628 824.776,165.327 824.5,165.327L819.5,165.327C819.224,165.327 819,165.628 819,166L819,166.673C819,166.826 819.039,166.974 819.11,167.094L821,170.275ZM821.5,170.038L821.5,172.875L822.5,174.75L822.5,170.038L824.5,166.673L824.5,166L819.5,166L819.5,166.673L821.5,170.038Z" style="fill:rgb(58,58,58);"/>
                </g>
            </g>
        </g>
    </g>
</svg>
