<?xml version="1.0" encoding="UTF-8" standalone="no"?><!DOCTYPE svg PUBLIC "-//W3C//DTD SVG 1.1//EN" "http://www.w3.org/Graphics/SVG/1.1/DTD/svg11.dtd"><svg width="100%" height="100%" viewBox="0 0 67 67" version="1.1" xmlns="http://www.w3.org/2000/svg" xmlns:xlink="http://www.w3.org/1999/xlink" xml:space="preserve" xmlns:serif="http://www.serif.com/" style="fill-rule:evenodd;clip-rule:evenodd;stroke-linejoin:round;stroke-miterlimit:2;"><g id="Filter_Star_Disable" opacity="0.3"><g id="Star-Large" serif:id="Star Large"><rect x="2.621" y="2.15" width="62.673" height="62.673" style="fill:#fff;fill-opacity:0;"/><path d="M33.957,11.061l5.184,17.653l16.776,-0l-14.546,9.969l7.476,17.228l-14.836,-11.891l-14.851,11.891l7.653,-17.283l-14.816,-9.914l16.776,-0l5.184,-17.653Z" style="fill:#bdbdbd;"/><path d="M37.955,9.887l4.305,14.66l13.657,0c1.826,0 3.44,1.189 3.98,2.934c0.54,1.744 -0.118,3.637 -1.625,4.67l-11.71,8.026l6.107,14.076c0.762,1.757 0.229,3.807 -1.293,4.97c-1.522,1.162 -3.641,1.137 -5.135,-0.06l-12.231,-9.805l-12.246,9.806c-1.499,1.2 -3.625,1.221 -5.147,0.049c-1.521,-1.172 -2.045,-3.232 -1.267,-4.989c-0,0 6.235,-14.08 6.235,-14.08l-11.905,-7.967c-1.525,-1.021 -2.203,-2.919 -1.67,-4.674c0.534,-1.756 2.152,-2.956 3.987,-2.956l13.657,0l4.305,-14.66c0.521,-1.774 2.149,-2.992 3.998,-2.992c1.849,-0 3.477,1.218 3.998,2.992Zm-3.998,1.174l-5.184,17.653l-16.776,-0l14.816,9.914l-7.653,17.283l14.851,-11.891l14.836,11.891l-7.476,-17.228l14.546,-9.969l-16.776,-0l-5.184,-17.653Z" style="fill:#3a3a3a;"/></g></g></svg>