<?xml version="1.0" encoding="UTF-8" standalone="no"?>
<!DOCTYPE svg PUBLIC "-//W3C//DTD SVG 1.1//EN" "http://www.w3.org/Graphics/SVG/1.1/DTD/svg11.dtd">
<svg width="100%" height="100%" viewBox="0 0 7 13" version="1.1" xmlns="http://www.w3.org/2000/svg" xmlns:xlink="http://www.w3.org/1999/xlink" xml:space="preserve" xmlns:serif="http://www.serif.com/" style="fill-rule:evenodd;clip-rule:evenodd;stroke-linejoin:round;stroke-miterlimit:2;">
    <g transform="matrix(1,0,0,1,-64,-137)">
        <g transform="matrix(1,0,0,1,36,54)">
            <g id="Modulator_nor_dis_21px" transform="matrix(1,0,0,1,-8,26)">
                <g transform="matrix(1,0,0,1,-36,-80)">
                    <path d="M79,139.24C79,138.004 77.996,137 76.76,137L74.24,137C73.004,137 72,138.004 72,139.24L72,147.76C72,148.996 73.004,150 74.24,150L76.76,150C77.996,150 79,148.996 79,147.76L79,139.24ZM73,148C73,148.552 73.448,149 74,149L77,149C77.552,149 78,148.552 78,148L78,139C78,138.448 77.552,138 77,138L74,138C73.448,138 73,138.448 73,139L73,148Z" style="fill:rgb(51,51,51);"/>
                </g>
                <g transform="matrix(1,0,0,1,33,-31)">
                    <path d="M9,94L8.006,94L7,95L7,90L6,90L5,94L4,94L4,95L5,95L6,94L6,99L7,99L8,95L9,95L9,94Z" style="fill:rgb(51,51,51);"/>
                </g>
            </g>
        </g>
    </g>
</svg>
