<?xml version="1.0" encoding="UTF-8" standalone="no"?>
<!DOCTYPE svg PUBLIC "-//W3C//DTD SVG 1.1//EN" "http://www.w3.org/Graphics/SVG/1.1/DTD/svg11.dtd">
<svg width="100%" height="100%" viewBox="0 0 20 20" version="1.1" xmlns="http://www.w3.org/2000/svg" xmlns:xlink="http://www.w3.org/1999/xlink" xml:space="preserve" xmlns:serif="http://www.serif.com/" style="fill-rule:evenodd;clip-rule:evenodd;stroke-linejoin:round;stroke-miterlimit:2;">
    <g transform="matrix(1,0,0,1,0,-27)">
        <g transform="matrix(2.20879,0,0,4.05797,2.20879,4.05797)">
            <g id="Capture_MeterHistory" transform="matrix(0.452736,0,0,0.246429,-1,5.65357)">
                <rect id="BG-Transparent" serif:id="BG Transparent" x="0" y="0" width="20" height="20" style="fill:none;"/>
                <g transform="matrix(1.16075,0,0,1.39751,-1.53018,-10.5527)">
                    <path d="M13.903,13.663C13.815,13.5 13.765,13.32 13.765,13.129C13.765,12.42 14.451,11.844 15.295,11.844C16.14,11.844 16.825,12.42 16.825,13.129C16.825,13.838 16.14,14.414 15.295,14.414C15.171,14.414 15.05,14.402 14.934,14.378L13.239,16.145C13.331,16.313 13.383,16.502 13.383,16.701C13.383,17.416 12.711,17.996 11.883,17.996C11.055,17.996 10.383,17.416 10.383,16.701C10.383,16.54 10.417,16.387 10.479,16.245L9.578,15.075C9.425,15.118 9.262,15.141 9.092,15.141C8.867,15.141 8.653,15.1 8.46,15.027L5.943,17.321C6.006,17.458 6.041,17.607 6.041,17.762C6.041,18.445 5.369,19 4.541,19C3.713,19 3.041,18.445 3.041,17.762C3.041,17.079 3.713,16.525 4.541,16.525C4.688,16.525 4.829,16.542 4.963,16.574L7.609,14.177C7.578,14.077 7.562,13.972 7.562,13.865C7.562,13.16 8.248,12.589 9.092,12.589C9.937,12.589 10.623,13.16 10.623,13.865C10.623,14.021 10.589,14.171 10.527,14.31L11.387,15.607C11.531,15.567 11.725,15.405 11.883,15.405C12.006,15.405 12.126,15.418 12.241,15.442L13.903,13.663Z" style="fill:rgb(45,165,225);fill-rule:nonzero;"/>
                </g>
            </g>
        </g>
    </g>
</svg>
