<?xml version="1.0" encoding="UTF-8" standalone="no"?>
<!DOCTYPE svg PUBLIC "-//W3C//DTD SVG 1.1//EN" "http://www.w3.org/Graphics/SVG/1.1/DTD/svg11.dtd">
<svg width="100%" height="100%" viewBox="0 0 5 13" version="1.1" xmlns="http://www.w3.org/2000/svg" xmlns:xlink="http://www.w3.org/1999/xlink" xml:space="preserve" xmlns:serif="http://www.serif.com/" style="fill-rule:evenodd;clip-rule:evenodd;stroke-linejoin:round;stroke-miterlimit:2;">
    <g transform="matrix(1,0,0,1,-108,-59)">
        <g transform="matrix(1,0,0,1,36,54)">
            <g id="Unlink_mix_13px">
                <g transform="matrix(1,0,0,0.285714,60,3.57143)">
                    <path d="M17,11.3C17,7.823 16.193,5 15.2,5L13.8,5C12.807,5 12,7.823 12,11.3L12,26L17,26L17,11.3Z" style="fill-opacity:0.3;"/>
                </g>
                <g transform="matrix(1,0,0,0.285714,60,10.5714)">
                    <path d="M17,5L12,5L12,19.7C12,23.177 12.807,26 13.8,26L15.2,26C16.193,26 17,23.177 17,19.7L17,5Z" style="fill-opacity:0.3;"/>
                </g>
                <g transform="matrix(0.6,0,0,0.190476,65.8,5.04762)">
                    <path d="M17,11.3C17,7.823 16.104,5 15,5L14,5C12.896,5 12,7.823 12,11.3L12,26L17,26L17,11.3Z" style="fill:rgb(216,140,69);"/>
                </g>
                <g transform="matrix(0.6,0,0,0.190476,65.8,12.0476)">
                    <path d="M17,5L12,5L12,19.7C12,23.177 12.896,26 14,26L15,26C16.104,26 17,23.177 17,19.7L17,5Z" style="fill:rgb(36,36,36);"/>
                </g>
            </g>
        </g>
    </g>
</svg>
