<?xml version="1.0" encoding="UTF-8" standalone="no"?><!DOCTYPE svg PUBLIC "-//W3C//DTD SVG 1.1//EN" "http://www.w3.org/Graphics/SVG/1.1/DTD/svg11.dtd"><svg width="100%" height="100%" viewBox="0 0 55 55" version="1.1" xmlns="http://www.w3.org/2000/svg" xmlns:xlink="http://www.w3.org/1999/xlink" xml:space="preserve" xmlns:serif="http://www.serif.com/" style="fill-rule:evenodd;clip-rule:evenodd;stroke-linejoin:round;stroke-miterlimit:2;"><g id="ExpandableNode_Expand"><g id="Arrow-Open" serif:id="Arrow Open"><g id="Arrow-Down" serif:id="Arrow Down"><path d="M-0.294,0l0,54.167l54.167,-0l-0,-54.167l-54.167,0Z" style="fill:none;"/><path d="M29.829,27.271l-17.257,-17.256c-1.627,-1.628 -1.627,-4.266 0,-5.893l3.017,-3.017c1.628,-1.627 5.988,-1.358 7.615,0.269l22.575,22.574c1.42,1.421 1.601,3.612 0.541,5.229c-0.183,0.326 -0.413,0.633 -0.691,0.91l-22.881,22.881c-1.627,1.628 -5.755,1.516 -7.382,-0.111l-2.615,-2.615c-1.627,-1.627 -1.627,-4.265 0,-5.893l17.078,-17.078Z" style="fill-opacity:0.3;"/><path d="M35.722,27.271l-20.204,-20.203l3.744,-3.744l23.618,23.619l-23.767,23.768l-3.416,-3.415l20.025,-20.025Z" style="fill:#fff;fill-opacity:0.8;"/></g></g></g></svg>