<?xml version="1.0" encoding="UTF-8" standalone="no"?><!DOCTYPE svg PUBLIC "-//W3C//DTD SVG 1.1//EN" "http://www.w3.org/Graphics/SVG/1.1/DTD/svg11.dtd"><svg width="100%" height="100%" viewBox="0 0 55 55" version="1.1" xmlns="http://www.w3.org/2000/svg" xmlns:xlink="http://www.w3.org/1999/xlink" xml:space="preserve" xmlns:serif="http://www.serif.com/" style="fill-rule:evenodd;clip-rule:evenodd;stroke-linejoin:round;stroke-miterlimit:2;"><g id="ExpandableNode_Collapse"><g id="Arrow-Open" serif:id="Arrow Open"><g id="Arrow-Down" serif:id="Arrow Down"><rect x="-0" y="-0" width="54.167" height="54.167" style="fill:none;"/><path d="M26.895,30.123l17.257,-17.257c1.627,-1.627 4.266,-1.627 5.893,-0l3.017,3.017c1.627,1.627 1.358,5.988 -0.269,7.615l-22.575,22.574c-1.42,1.421 -3.612,1.601 -5.228,0.541c-0.326,-0.183 -0.633,-0.413 -0.911,-0.69l-22.881,-22.881c-1.627,-1.628 -1.515,-5.756 0.112,-7.383l2.615,-2.614c1.627,-1.627 4.265,-1.627 5.892,-0l17.078,17.078Z" style="fill-opacity:0.3;"/><path d="M26.895,36.015l20.203,-20.203l3.744,3.744l-23.618,23.618l-23.768,-23.768l3.415,-3.415l20.024,20.024Z" style="fill:#fff;fill-opacity:0.8;"/></g></g></g></svg>