<?xml version="1.0" encoding="UTF-8" standalone="no"?><!DOCTYPE svg PUBLIC "-//W3C//DTD SVG 1.1//EN" "http://www.w3.org/Graphics/SVG/1.1/DTD/svg11.dtd"><svg width="100%" height="100%" viewBox="0 0 55 55" version="1.1" xmlns="http://www.w3.org/2000/svg" xmlns:xlink="http://www.w3.org/1999/xlink" xml:space="preserve" xmlns:serif="http://www.serif.com/" style="fill-rule:evenodd;clip-rule:evenodd;stroke-linejoin:round;stroke-miterlimit:2;"><g id="ExpandableNode_Collapse_Reverse"><g id="Arrow-Open" serif:id="Arrow Open"><g id="Arrow-Down" serif:id="Arrow Down"><rect x="0" y="0" width="54.167" height="54.167" style="fill:none;"/><path d="M27.271,24.044l-17.256,17.257c-1.628,1.627 -4.266,1.627 -5.893,-0l-3.017,-3.017c-1.627,-1.628 -1.358,-5.988 0.269,-7.615l22.574,-22.575c1.421,-1.42 3.612,-1.601 5.229,-0.541c0.326,0.183 0.633,0.413 0.91,0.691l22.881,22.881c1.628,1.627 1.516,5.755 -0.111,7.382l-2.615,2.615c-1.627,1.627 -4.265,1.627 -5.893,-0l-17.078,-17.078Z" style="fill-opacity:0.3;"/><path d="M27.271,18.151l-20.203,20.204l-3.744,-3.744l23.619,-23.619l23.768,23.768l-3.415,3.416l-20.025,-20.025Z" style="fill:#fff;fill-opacity:0.8;"/></g></g></g></svg>