<?xml version="1.0" encoding="UTF-8" standalone="no"?>
<!DOCTYPE svg PUBLIC "-//W3C//DTD SVG 1.1//EN" "http://www.w3.org/Graphics/SVG/1.1/DTD/svg11.dtd">
<svg width="100%" height="100%" viewBox="0 0 7 16" version="1.1" xmlns="http://www.w3.org/2000/svg" xmlns:xlink="http://www.w3.org/1999/xlink" xml:space="preserve" xmlns:serif="http://www.serif.com/" style="fill-rule:evenodd;clip-rule:evenodd;stroke-linejoin:round;stroke-miterlimit:2;">
    <g transform="matrix(1,0,0,1,-56,-85)">
        <g transform="matrix(1,0,0,1,36,54)">
            <g id="State_mix_16px" transform="matrix(1,0,0,1,-4,0)">
                <g transform="matrix(1,0,0,0.333333,13,30.3333)">
                    <path d="M17,9.65C17,7.084 16.305,5 15.45,5L13.6,5C12.717,5 12,7.151 12,9.8L12,26L17,26L17,9.65Z" style="fill:rgb(216,141,70);"/>
                </g>
                <g transform="matrix(1,0,0,0.333333,13,37.3333)">
                    <path d="M17,5L12,5L12,20C12,23.311 12.896,26 14,26L15,26C16.104,26 17,23.311 17,20L17,5Z" style="fill:rgb(13,166,252);"/>
                </g>
                <g>
                    <g transform="matrix(1,0,0,1,-36,-54)">
                        <path d="M67,87.24C67,86.004 65.996,85 64.76,85L62.24,85C61.004,85 60,86.004 60,87.24L60,98.76C60,99.996 61.004,101 62.24,101L64.76,101C65.996,101 67,99.996 67,98.76L67,87.24ZM66,87.55C66,86.695 65.305,86 64.45,86L62.6,86C61.717,86 61,86.717 61,87.6L61,98C61,99.104 61.896,100 63,100L64,100C65.104,100 66,99.104 66,98L66,87.55Z" style="fill:rgb(23,23,23);"/>
                    </g>
                    <g transform="matrix(1,0,0,-1,24,50)">
                        <rect x="2" y="11" width="3" height="1"/>
                    </g>
                    <g transform="matrix(1,0,0,-1,24,46)">
                        <rect x="2" y="11" width="3" height="1"/>
                    </g>
                    <g transform="matrix(1,0,0,-1,24,47)">
                        <rect x="2" y="4" width="3" height="1"/>
                    </g>
                </g>
            </g>
        </g>
    </g>
</svg>
