<?xml version="1.0" encoding="UTF-8" standalone="no"?><!DOCTYPE svg PUBLIC "-//W3C//DTD SVG 1.1//EN" "http://www.w3.org/Graphics/SVG/1.1/DTD/svg11.dtd"><svg width="100%" height="100%" viewBox="0 0 63 63" version="1.1" xmlns="http://www.w3.org/2000/svg" xmlns:xlink="http://www.w3.org/1999/xlink" xml:space="preserve" xmlns:serif="http://www.serif.com/" style="fill-rule:evenodd;clip-rule:evenodd;stroke-linejoin:round;stroke-miterlimit:2;"><g id="ObjectIcons_PropHighShelf_nor" opacity="0.45"><g id="Icons"><g id="Base-Block" serif:id="Base Block"><rect x="-0.032" y="-0.119" width="62.5" height="62.5" style="fill-opacity:0;"/></g><path d="M0.032,28.362l27.984,-0.116l10.735,-15.155c1.327,-1.874 3.481,-2.988 5.778,-2.988l17.886,-0l0,5.66l-17.886,0c-0.461,0 -0.893,0.224 -1.159,0.6l-10.461,14.768l10.462,14.77c0.266,0.375 0.696,0.597 1.155,0.597l17.889,0l0,5.661l-17.889,-0c-2.295,-0 -4.447,-1.113 -5.774,-2.986l-10.732,-15.151l-27.976,-0l-0.012,-0l-0.012,-5.66l0.012,-0Z" style="fill:#fff;"/></g></g></svg>