<?xml version="1.0" encoding="UTF-8" standalone="no"?><!DOCTYPE svg PUBLIC "-//W3C//DTD SVG 1.1//EN" "http://www.w3.org/Graphics/SVG/1.1/DTD/svg11.dtd"><svg width="100%" height="100%" viewBox="0 0 15 15" version="1.1" xmlns="http://www.w3.org/2000/svg" xmlns:xlink="http://www.w3.org/1999/xlink" xml:space="preserve" xmlns:serif="http://www.serif.com/" style="fill-rule:evenodd;clip-rule:evenodd;stroke-linejoin:round;stroke-miterlimit:2;"><g id="ObjectIcons_FileSoundBank_dis" opacity="0.3"><g id="Base-Block" serif:id="Base Block"><path d="M15,2.1c-0,-1.159 -0.941,-2.1 -2.1,-2.1l-10.8,-0c-1.159,-0 -2.1,0.941 -2.1,2.1l-0,10.8c-0,1.159 0.941,2.1 2.1,2.1l10.8,-0c1.159,-0 2.1,-0.941 2.1,-2.1l-0,-10.8Z" style="fill-opacity:0;"/></g><path d="M2,1l8,-0l3,3l-0,10l-11,-0c0.079,-0.32 -0,-13 -0,-13Z" style="fill:#c8c8c8;"/><path d="M2,-0c-0.266,-0 -0.522,0.106 -0.709,0.295c-0.188,0.189 -0.293,0.445 -0.291,0.711c0,0 0.107,12.439 0.029,12.754c-0.074,0.298 -0.006,0.614 0.184,0.856c0.189,0.243 0.479,0.384 0.787,0.384l11,-0c0.552,-0 1,-0.448 1,-1l0,-10c0,-0.265 -0.105,-0.52 -0.293,-0.707l-3,-3c-0.187,-0.188 -0.442,-0.293 -0.707,-0.293l-8,-0Zm-0,1l8,-0l3,3l-0,10l-11,-0c0.079,-0.32 -0,-13 -0,-13Z" style="fill:#222;"/><g><path d="M4,10.73l0,-1.079c0.18,0.164 0.394,0.288 0.606,0.37c0.211,0.082 0.687,0.069 0.97,0.009c0.094,-0.025 0.173,-0.059 0.236,-0.103c0.063,-0.044 0.11,-0.096 0.141,-0.155c0.031,-0.06 0.047,-0.124 0.047,-0.194c0,-0.094 -0.025,-0.179 -0.075,-0.253c-0.049,-0.074 -0.117,-0.143 -0.203,-0.206c-0.298,-0.157 -0.551,-0.223 -0.688,-0.284c-0.348,-0.157 -0.615,-0.349 -0.783,-0.576c-0.167,-0.227 -0.251,-0.501 -0.251,-0.823c0,-0.251 0.046,-0.468 0.137,-0.649c0.092,-0.181 0.216,-0.33 0.373,-0.446c0.158,-0.117 0.34,-0.203 0.547,-0.258c0.208,-0.055 0.427,-0.083 0.659,-0.083c0.227,0 0.429,0.015 0.605,0.046c0.175,0.03 0.532,0.224 0.681,0.287l-0,1.055c-0.075,-0.056 -0.355,-0.2 -0.443,-0.242c-0.087,-0.043 -0.178,-0.079 -0.271,-0.107c-0.093,-0.028 -0.186,-0.049 -0.278,-0.062c-0.092,-0.014 -0.179,-0.02 -0.262,-0.02c-0.114,-0 -0.217,0.012 -0.31,0.035c-0.094,0.024 -0.172,0.057 -0.236,0.1c-0.064,0.042 -0.114,0.093 -0.149,0.153c-0.035,0.06 -0.053,0.126 -0.053,0.201c-0,0.081 0.02,0.153 0.059,0.217c0.039,0.064 0.095,0.125 0.168,0.182c0.072,0.057 0.16,0.114 0.263,0.169c0.104,0.055 0.473,0.142 0.843,0.328c0.139,0.091 0.258,0.193 0.358,0.308c0.099,0.115 0.176,0.246 0.228,0.393c0.053,0.147 0.08,0.318 0.08,0.514c-0,0.27 -0.047,0.496 -0.139,0.679c-0.092,0.184 -0.218,0.332 -0.376,0.445c-0.159,0.114 -0.343,0.195 -0.553,0.245c-0.211,0.049 -0.433,0.074 -0.666,0.074c-0.24,-0 -0.468,-0.022 -0.684,-0.067c-0.217,-0.045 -0.423,-0.113 -0.581,-0.203Z" style="fill:#222;fill-rule:nonzero;"/><path d="M8,11l0,-5l1.613,0c0.445,0 0.788,0.099 1.028,0.297c0.239,0.197 0.359,0.557 0.359,0.917c0,0.26 -0.073,0.489 -0.219,0.684c-0.145,0.196 -0.49,0.332 -0.717,0.408l0,0.014c0.284,0.042 0.511,0.169 0.681,0.381c0.17,0.211 0.255,0.468 0.255,0.772c0,0.442 -0.131,0.878 -0.393,1.138c-0.262,0.259 -0.619,0.389 -1.072,0.389l-1.535,0Zm1,-4l0,1l0.454,0c0.186,0 0.332,-0.048 0.439,-0.143c0.107,-0.095 0.16,-0.226 0.16,-0.392c-0,-0.31 -0.219,-0.465 -0.657,-0.465l-0.396,0Zm0,2l0,1l0.387,0c0.208,0 0.371,-0.046 0.489,-0.138c0.118,-0.091 0.177,-0.216 0.177,-0.375c-0,-0.152 -0.058,-0.271 -0.174,-0.357c-0.116,-0.087 -0.278,-0.13 -0.486,-0.13l-0.393,0Z" style="fill:#222;fill-rule:nonzero;"/></g></g></svg>