<?xml version="1.0" encoding="UTF-8" standalone="no"?>
<!DOCTYPE svg PUBLIC "-//W3C//DTD SVG 1.1//EN" "http://www.w3.org/Graphics/SVG/1.1/DTD/svg11.dtd">
<svg width="100%" height="100%" viewBox="0 0 19 19" version="1.1" xmlns="http://www.w3.org/2000/svg" xmlns:xlink="http://www.w3.org/1999/xlink" xml:space="preserve" xmlns:serif="http://www.serif.com/" style="fill-rule:evenodd;clip-rule:evenodd;stroke-linejoin:round;stroke-miterlimit:2;">
    <g transform="matrix(1,0,0,1,-33,-11)">
        <g transform="matrix(1,0,0,1,12,13)">
            <g id="Checkbox_Eye_sel" transform="matrix(1,0,0,1,22,2)">
                <g id="Base-Block" serif:id="Base Block" transform="matrix(1,0,0,1,-34,-15)">
                    <rect x="33" y="11" width="19" height="19" style="fill:white;fill-opacity:0;"/>
                </g>
                <g transform="matrix(1.41667,0,0,1.30769,-1.9873e-14,-3)">
                    <path d="M12,0.78C12,0.35 11.677,0 11.28,0L0.72,0C0.323,0 0,0.35 0,0.78L0,12.22C0,12.65 0.323,13 0.72,13L11.28,13C11.677,13 12,12.65 12,12.22L12,0.78Z" style="fill:rgb(7,110,211);"/>
                    <path d="M12.706,0.78C12.706,-0.073 12.067,-0.765 11.28,-0.765L0.72,-0.765C-0.067,-0.765 -0.706,-0.073 -0.706,0.78L-0.706,12.22C-0.706,13.073 -0.067,13.765 0.72,13.765L11.28,13.765C12.067,13.765 12.706,13.073 12.706,12.22C12.706,12.22 12.706,0.78 12.706,0.78ZM12,0.78C12,0.35 11.677,0 11.28,0L0.72,0C0.323,0 0,0.35 0,0.78L0,12.22C0,12.65 0.323,13 0.72,13L11.28,13C11.677,13 12,12.65 12,12.22L12,0.78Z" style="fill:rgb(5,53,102);"/>
                </g>
                <g transform="matrix(1,0,0,1,-247,-9)">
                    <path d="M255.5,10C252.545,10 250.022,11.866 249,14.5C250.022,17.134 252.545,19 255.5,19C258.455,19 260.978,17.134 262,14.5C260.978,11.866 258.455,10 255.5,10ZM255.488,11.514C257.141,11.514 258.482,12.852 258.482,14.5C258.482,16.148 257.141,17.486 255.488,17.486C253.836,17.486 252.495,16.148 252.495,14.5C252.495,12.852 253.836,11.514 255.488,11.514Z" style="fill:white;fill-rule:nonzero;"/>
                </g>
                <g transform="matrix(0.774753,0,0,0.774753,-128.131,-5.6213)">
                    <circle cx="175.5" cy="13.5" r="1.5" style="fill:white;"/>
                </g>
            </g>
        </g>
    </g>
</svg>
