<?xml version="1.0" encoding="UTF-8" standalone="no"?>
<!DOCTYPE svg PUBLIC "-//W3C//DTD SVG 1.1//EN" "http://www.w3.org/Graphics/SVG/1.1/DTD/svg11.dtd">
<svg width="100%" height="100%" viewBox="0 0 5 16" version="1.1" xmlns="http://www.w3.org/2000/svg" xmlns:xlink="http://www.w3.org/1999/xlink" xml:space="preserve" xmlns:serif="http://www.serif.com/" style="fill-rule:evenodd;clip-rule:evenodd;stroke-linejoin:round;stroke-miterlimit:2;">
    <g transform="matrix(1,0,0,1,-55,-59)">
        <g transform="matrix(1,0,0,1,36,54)">
            <g id="Unlink_mix_acrossobjects_16px" transform="matrix(1,0,0,1,-5,0)">
                <g transform="matrix(0.6,0,0,0.285714,17.8,4.57143)">
                    <path d="M17,9.2C17,6.882 16.104,5 15,5L14,5C12.896,5 12,6.882 12,9.2L12,26L17,26L17,9.2Z" style="fill:rgb(13,166,252);"/>
                </g>
                <g transform="matrix(0.6,0,0,0.333333,17.8,11.3333)">
                    <path d="M17,5L12,5L12,22.4C12,24.387 12.896,26 14,26L15,26C16.104,26 17,24.387 17,22.4L17,5Z" style="fill:rgb(13,166,252);"/>
                </g>
                <g transform="matrix(1,0,0,1,-36,-54)">
                    <path d="M65,60.8C65,59.807 64.193,59 63.2,59L61.8,59C60.807,59 60,59.807 60,60.8L60,73.2C60,74.193 60.807,75 61.8,75L63.2,75C64.193,75 65,74.193 65,73.2L65,60.8ZM64,67L61,67L61,72.8C61,73.462 61.538,74 62.2,74L62.8,74C63.462,74 64,73.462 64,72.8L64,67ZM64,61.2C64,60.538 63.462,60 62.8,60L62.2,60C61.538,60 61,60.538 61,61.2L61,66L64,66L64,61.2Z" style="fill:rgb(120,120,120);"/>
                </g>
            </g>
        </g>
    </g>
</svg>
