<?xml version="1.0" encoding="UTF-8" standalone="no"?>
<!DOCTYPE svg PUBLIC "-//W3C//DTD SVG 1.1//EN" "http://www.w3.org/Graphics/SVG/1.1/DTD/svg11.dtd">
<svg width="100%" height="100%" viewBox="0 0 20 20" version="1.1" xmlns="http://www.w3.org/2000/svg" xmlns:xlink="http://www.w3.org/1999/xlink" xml:space="preserve" xmlns:serif="http://www.serif.com/" style="fill-rule:evenodd;clip-rule:evenodd;stroke-linejoin:round;stroke-miterlimit:2;">
    <g transform="matrix(1,0,0,1,-273,-28)">
        <g transform="matrix(0.75,0,0,0.75,-596.75,192.5)">
            <g transform="matrix(1,0,0,1,332,32)">
                <g id="Dialog_ToolbarClose_Pressed">
                    <g id="Close-Icon" serif:id="Close Icon">
                        <g id="Transparent-BG" serif:id="Transparent BG" transform="matrix(1.33333,0,0,1.33333,827.667,-251.333)">
                            <rect x="0" y="0" width="20" height="20" style="fill:none;"/>
                        </g>
                        <path d="M841,-236.656L835.605,-231.272L834.333,-231.333L834.272,-232.602L839.668,-237.986L834.286,-243.356L834.349,-244.654L835.59,-244.714L841,-239.315L846.41,-244.714L847.651,-244.654L847.714,-243.356L842.332,-237.986L847.728,-232.602L847.667,-231.333L846.395,-231.272L841,-236.656Z" style="fill:rgb(36,36,36);"/>
                        <path d="M841,-236.656L835.605,-231.272L834.333,-231.333L834.272,-232.602L839.668,-237.986L834.286,-243.356L834.349,-244.654L835.59,-244.714L841,-239.315L846.41,-244.714L847.651,-244.654L847.714,-243.356L842.332,-237.986L847.728,-232.602L847.667,-231.333L846.395,-231.272L841,-236.656Z" style="fill:white;"/>
                    </g>
                </g>
            </g>
        </g>
    </g>
</svg>
