<?xml version="1.0" encoding="UTF-8" standalone="no"?>
<!DOCTYPE svg PUBLIC "-//W3C//DTD SVG 1.1//EN" "http://www.w3.org/Graphics/SVG/1.1/DTD/svg11.dtd">
<svg width="100%" height="100%" viewBox="0 0 20 20" version="1.1" xmlns="http://www.w3.org/2000/svg" xmlns:xlink="http://www.w3.org/1999/xlink" xml:space="preserve" xmlns:serif="http://www.serif.com/" style="fill-rule:evenodd;clip-rule:evenodd;stroke-linejoin:round;stroke-miterlimit:2;">
    <g transform="matrix(1,0,0,1,-301,-4)">
        <g transform="matrix(0.75,0,0,0.75,-596.75,192.5)">
            <g id="Dialog_DockingGrabHandle_Normal" transform="matrix(13.159,0,0,5.46221,111.402,-2700.89)">
                <g transform="matrix(0.0964998,0,0,0.232478,-265.769,-567.239)">
                    <rect x="3609" y="4369" width="21" height="21" style="fill:white;fill-opacity:0;"/>
                </g>
                <g>
                    <g transform="matrix(0.0723748,0,0,0.203418,-233.866,-441.172)">
                        <path d="M4396.4,4377L4396.4,4383C4396.4,4383.66 4395.77,4384.2 4395,4384.2L4388,4384.2C4387.23,4384.2 4386.6,4383.66 4386.6,4383L4386.6,4377C4386.6,4376.34 4387.23,4375.8 4388,4375.8L4395,4375.8C4395.77,4375.8 4396.4,4376.34 4396.4,4377ZM4395,4377L4388,4377L4388,4383L4395,4383L4395,4377Z" style="fill:rgb(21,21,21);"/>
                    </g>
                    <g transform="matrix(0.0723748,0,0,0.203418,-233.866,-438.975)">
                        <path d="M4396.4,4377L4396.4,4383C4396.4,4383.66 4395.77,4384.2 4395,4384.2L4388,4384.2C4387.23,4384.2 4386.6,4383.66 4386.6,4383L4386.6,4377C4386.6,4376.34 4387.23,4375.8 4388,4375.8L4395,4375.8C4395.77,4375.8 4396.4,4376.34 4396.4,4377ZM4395,4377L4388,4377L4388,4383L4395,4383L4395,4377Z" style="fill:rgb(21,21,21);"/>
                    </g>
                    <g transform="matrix(0.0723748,0,0,0.56957,-234.778,-2043.82)">
                        <path d="M4396.4,4377L4396.4,4383C4396.4,4383.24 4395.77,4383.43 4395,4383.43L4388,4383.43C4387.23,4383.43 4386.6,4383.24 4386.6,4383L4386.6,4377C4386.6,4376.76 4387.23,4376.57 4388,4376.57L4395,4376.57C4395.77,4376.57 4396.4,4376.76 4396.4,4377ZM4395,4377L4388,4377L4388,4383L4395,4383L4395,4377Z" style="fill:rgb(21,21,21);"/>
                    </g>
                </g>
                <g>
                    <g transform="matrix(0.0723748,0,0,0.203418,-233.866,-441.172)">
                        <path d="M4396.4,4377L4396.4,4383C4396.4,4383.66 4395.77,4384.2 4395,4384.2L4388,4384.2C4387.23,4384.2 4386.6,4383.66 4386.6,4383L4386.6,4377C4386.6,4376.34 4387.23,4375.8 4388,4375.8L4395,4375.8C4395.77,4375.8 4396.4,4376.34 4396.4,4377ZM4395,4377L4388,4377L4388,4383L4395,4383L4395,4377Z" style="fill:white;fill-opacity:0.7;"/>
                    </g>
                    <g transform="matrix(0.0723748,0,0,0.203418,-233.866,-438.975)">
                        <path d="M4396.4,4377L4396.4,4383C4396.4,4383.66 4395.77,4384.2 4395,4384.2L4388,4384.2C4387.23,4384.2 4386.6,4383.66 4386.6,4383L4386.6,4377C4386.6,4376.34 4387.23,4375.8 4388,4375.8L4395,4375.8C4395.77,4375.8 4396.4,4376.34 4396.4,4377ZM4395,4377L4388,4377L4388,4383L4395,4383L4395,4377Z" style="fill:white;fill-opacity:0.7;"/>
                    </g>
                    <g transform="matrix(0.0723748,0,0,0.56957,-234.778,-2043.82)">
                        <path d="M4396.4,4377L4396.4,4383C4396.4,4383.24 4395.77,4383.43 4395,4383.43L4388,4383.43C4387.23,4383.43 4386.6,4383.24 4386.6,4383L4386.6,4377C4386.6,4376.76 4387.23,4376.57 4388,4376.57L4395,4376.57C4395.77,4376.57 4396.4,4376.76 4396.4,4377ZM4395,4377L4388,4377L4388,4383L4395,4383L4395,4377Z" style="fill:white;fill-opacity:0.7;"/>
                    </g>
                </g>
            </g>
        </g>
    </g>
</svg>
