<?xml version="1.0" encoding="UTF-8" standalone="no"?>
<!DOCTYPE svg PUBLIC "-//W3C//DTD SVG 1.1//EN" "http://www.w3.org/Graphics/SVG/1.1/DTD/svg11.dtd">
<svg width="100%" height="100%" viewBox="0 0 17 17" version="1.1" xmlns="http://www.w3.org/2000/svg" xmlns:xlink="http://www.w3.org/1999/xlink" xml:space="preserve" xmlns:serif="http://www.serif.com/" style="fill-rule:evenodd;clip-rule:evenodd;stroke-linejoin:round;stroke-miterlimit:2;">
    <g transform="matrix(1,0,0,1,-31,-30)">
        <g transform="matrix(0.75,0,0,0.75,-596.75,192.5)">
            <g id="Dialog_TabRecycle_Disabled" transform="matrix(1,0,0,1,8,0)">
                <g opacity="0.3">
                    <g transform="matrix(1.41667,0,0,1.51111,793.583,-263.511)">
                        <rect x="25" y="31" width="16" height="15" style="fill:rgb(58,58,58);fill-opacity:0;"/>
                    </g>
                    <g transform="matrix(1.33333,0,0,1.33333,794.333,-256.667)">
                        <path d="M40.907,40.691L39.77,38.877C39.667,38.714 39.484,38.675 39.319,38.777L38.849,39.069C38.684,39.171 38.634,39.386 38.737,39.55L39.103,40.131C40.219,41.905 40.537,43 39.466,43L36,43L36,41L33.49,43.537L36,46L36,44L39.967,44C41.171,44 42.166,42.691 40.907,40.691ZM30.572,36.688L31.473,40.578L29.848,39.17L28.632,41.697C28.203,42.513 28.105,43 29.06,43C31.215,43 31.149,43 31.149,43C31.343,43 31.5,43.156 31.5,43.349L31.5,43.651C31.5,43.844 31.343,44 31.149,44L28.437,44C27.437,44 26.598,42.827 27.227,41.827L28.954,38.682L27.063,38.129L30.572,36.688ZM34.707,33.118L36.82,35.759L34.956,36.811L38.806,37.477L39.102,33.57L37.648,35.153L35.799,32.725C34.492,31.087 33.516,31.122 32.283,32.578L30.708,34.551C30.605,34.714 30.655,34.929 30.82,35.032L31.172,35.305C31.337,35.407 31.554,35.358 31.657,35.194L33.328,33.059C33.772,32.612 34.298,32.709 34.707,33.118Z" style="fill:rgb(36,36,36);fill-rule:nonzero;"/>
                    </g>
                    <g transform="matrix(1.33333,0,0,1.33333,794.333,-256.667)">
                        <path d="M40.907,40.691L39.77,38.877C39.667,38.714 39.484,38.675 39.319,38.777L38.849,39.069C38.684,39.171 38.634,39.386 38.737,39.55L39.103,40.131C40.219,41.905 40.537,43 39.466,43L36,43L36,41L33.49,43.537L36,46L36,44L39.967,44C41.171,44 42.166,42.691 40.907,40.691ZM30.572,36.688L31.473,40.578L29.848,39.17L28.632,41.697C28.203,42.513 28.105,43 29.06,43C31.215,43 31.149,43 31.149,43C31.343,43 31.5,43.156 31.5,43.349L31.5,43.651C31.5,43.844 31.343,44 31.149,44L28.437,44C27.437,44 26.598,42.827 27.227,41.827L28.954,38.682L27.063,38.129L30.572,36.688ZM34.707,33.118L36.82,35.759L34.956,36.811L38.806,37.477L39.102,33.57L37.648,35.153L35.799,32.725C34.492,31.087 33.516,31.122 32.283,32.578L30.708,34.551C30.605,34.714 30.655,34.929 30.82,35.032L31.172,35.305C31.337,35.407 31.554,35.358 31.657,35.194L33.328,33.059C33.772,32.612 34.298,32.709 34.707,33.118Z" style="fill:white;fill-opacity:0.7;fill-rule:nonzero;"/>
                    </g>
                </g>
            </g>
        </g>
    </g>
</svg>
