<?xml version="1.0" encoding="UTF-8" standalone="no"?>
<!DOCTYPE svg PUBLIC "-//W3C//DTD SVG 1.1//EN" "http://www.w3.org/Graphics/SVG/1.1/DTD/svg11.dtd">
<svg width="100%" height="100%" viewBox="0 0 20 20" version="1.1" xmlns="http://www.w3.org/2000/svg" xmlns:xlink="http://www.w3.org/1999/xlink" xml:space="preserve" xmlns:serif="http://www.serif.com/" style="fill-rule:evenodd;clip-rule:evenodd;stroke-linejoin:round;stroke-miterlimit:2;">
    <g transform="matrix(1,0,0,1,-383,-28)">
        <g transform="matrix(0.75,0,0,0.75,-596.75,192.5)">
            <g id="Dialog_ExpandToLayout_Pressed" transform="matrix(11.6671,0,0,1.63339,1082.83,-221.213)">
                <g id="Transparent-BG" serif:id="Transparent BG" transform="matrix(0.114282,0,0,0.816298,19.1568,1.15104)">
                    <rect x="0" y="0" width="20" height="20" style="fill:none;"/>
                </g>
                <g id="General_Panel_Maximize_Normal" transform="matrix(0.114282,0,0,0.816952,-1.64251,-63.4013)">
                    <g id="Transparent-BG1" serif:id="Transparent BG" transform="matrix(0.95,0,0,0.95,182,80)">
                        <rect x="0" y="0" width="20" height="20" style="fill:white;fill-opacity:0;"/>
                    </g>
                    <g id="Transparent-BG2" serif:id="Transparent BG" transform="matrix(0.95,0,0,0.95,182,80)">
                        <rect x="0" y="0" width="20" height="20" style="fill:white;fill-opacity:0;"/>
                    </g>
                    <g transform="matrix(1,0,0,0.999199,184.93,81.9729)">
                        <g>
                            <g transform="matrix(1,0,0,1,9.958,5.4089)">
                                <path d="M0,-5.409L4,-5.409L3.999,-1.409L2.508,-2.868L-0.361,0L-1.405,-1.044L1.469,-3.914L1.465,-3.914L0,-5.409Z" style="fill:rgb(36,36,36);"/>
                            </g>
                            <g transform="matrix(1,0,0,1,9.958,5.4089)">
                                <path d="M0,-5.409L4,-5.409L3.999,-1.409L2.508,-2.868L-0.361,0L-1.405,-1.044L1.469,-3.914L1.465,-3.914L0,-5.409Z" style="fill:white;"/>
                            </g>
                        </g>
                    </g>
                    <g transform="matrix(1,0,0,0.999199,184.93,81.9729)">
                        <g>
                            <g transform="matrix(1,0,0,1,9.958,8.553)">
                                <path d="M0,5.409L4,5.409L3.999,1.409L2.508,2.868L-0.361,0L-1.405,1.044L1.469,3.914L1.465,3.914L0,5.409Z" style="fill:rgb(36,36,36);"/>
                            </g>
                            <g transform="matrix(1,0,0,1,9.958,8.553)">
                                <path d="M0,5.409L4,5.409L3.999,1.409L2.508,2.868L-0.361,0L-1.405,1.044L1.469,3.914L1.465,3.914L0,5.409Z" style="fill:white;"/>
                            </g>
                        </g>
                    </g>
                    <g transform="matrix(1,0,0,0.999199,184.93,81.9729)">
                        <g>
                            <g transform="matrix(1,0,0,1,3.9996,5.4089)">
                                <path d="M0,-5.409L-4,-5.409L-3.999,-1.409L-2.508,-2.868L0.361,0L1.405,-1.044L-1.469,-3.914L-1.465,-3.914L0,-5.409Z" style="fill:rgb(36,36,36);"/>
                            </g>
                            <g transform="matrix(1,0,0,1,3.9996,5.4089)">
                                <path d="M0,-5.409L-4,-5.409L-3.999,-1.409L-2.508,-2.868L0.361,0L1.405,-1.044L-1.469,-3.914L-1.465,-3.914L0,-5.409Z" style="fill:white;"/>
                            </g>
                        </g>
                    </g>
                    <g transform="matrix(1,0,0,0.999199,184.93,81.9729)">
                        <g>
                            <g transform="matrix(1,0,0,1,3.9996,8.553)">
                                <path d="M0,5.409L-4,5.409L-3.999,1.409L-2.508,2.868L0.361,0L1.405,1.044L-1.469,3.914L-1.465,3.914L0,5.409Z" style="fill:rgb(36,36,36);"/>
                            </g>
                            <g transform="matrix(1,0,0,1,3.9996,8.553)">
                                <path d="M0,5.409L-4,5.409L-3.999,1.409L-2.508,2.868L0.361,0L1.405,1.044L-1.469,3.914L-1.465,3.914L0,5.409Z" style="fill:white;"/>
                            </g>
                        </g>
                    </g>
                </g>
            </g>
        </g>
    </g>
</svg>
