<?xml version="1.0" encoding="UTF-8" standalone="no"?>
<!DOCTYPE svg PUBLIC "-//W3C//DTD SVG 1.1//EN" "http://www.w3.org/Graphics/SVG/1.1/DTD/svg11.dtd">
<svg width="100%" height="100%" viewBox="0 0 17 17" version="1.1" xmlns="http://www.w3.org/2000/svg" xmlns:xlink="http://www.w3.org/1999/xlink" xml:space="preserve" xmlns:serif="http://www.serif.com/" style="fill-rule:evenodd;clip-rule:evenodd;stroke-linejoin:round;stroke-miterlimit:2;">
    <g transform="matrix(1,0,0,1,-40,-5)">
        <g transform="matrix(0.75,0,0,0.75,-596.75,192.5)">
            <g id="Dialog_Pin_Hover" transform="matrix(11.6671,0,0,1.63339,622.83,-253.213)">
                <g transform="matrix(0.114282,0,0,0.816298,-2.78533,-2.11415)">
                    <path d="M197.7,16.057L194.917,13.237C195.434,12.138 197.415,10.673 199.797,11.558L202.069,9.568C201.521,7.928 202.813,6.097 203.808,5.59L210.433,12.215C209.992,13.063 208.704,14.201 206.506,13.829L204.393,16.139C205.127,18.327 203.975,19.95 202.723,21.148L199.939,18.327L196.263,22.003L196.261,22.002L194.022,22.002L194.022,19.742L194.018,19.739L197.7,16.057Z" style="fill:rgb(34,34,34);fill-opacity:0.15;"/>
                </g>
                <g transform="matrix(0.114282,0,0,0.816298,-2.78533,-2.11415)">
                    <path d="M199.343,15.983L199.984,16.624L195.641,20.967L195.639,20.966L195.003,20.966L195.003,20.33L195,20.326L199.343,15.983ZM202.881,9.794C202.699,8.855 202.817,7.732 203.655,7.148L208.855,12.348C208.357,13.035 207.372,13.294 206.237,13.171L203.524,15.884C204.011,17.659 203.951,18.356 202.765,19.405L196.601,13.241C197.413,12.09 198.142,11.888 200.15,12.525L202.881,9.794Z" style="fill:rgb(231,231,231);fill-opacity:0.7;"/>
                </g>
            </g>
        </g>
    </g>
</svg>
