<?xml version="1.0" encoding="UTF-8" standalone="no"?>
<!DOCTYPE svg PUBLIC "-//W3C//DTD SVG 1.1//EN" "http://www.w3.org/Graphics/SVG/1.1/DTD/svg11.dtd">
<svg width="100%" height="100%" viewBox="0 0 20 20" version="1.1" xmlns="http://www.w3.org/2000/svg" xmlns:xlink="http://www.w3.org/1999/xlink" xml:space="preserve" xmlns:serif="http://www.serif.com/" style="fill-rule:evenodd;clip-rule:evenodd;stroke-linejoin:round;stroke-miterlimit:2;">
    <g transform="matrix(1,0,0,1,-170,-4)">
        <g transform="matrix(0.75,0,0,0.75,-596.75,192.5)">
            <g transform="matrix(1,0,0,1,66.6667,0)">
                <g id="Dialog_Info_Pressed">
                    <g id="Help">
                        <g id="Transparent-BG" serif:id="Transparent BG" transform="matrix(1.33333,0,0,1.33333,955.667,-251.333)">
                            <rect x="0" y="0" width="20" height="20" style="fill:none;"/>
                        </g>
                        <path d="M969,-246C964.584,-246 961,-242.416 961,-238C961,-233.584 964.584,-230 969,-230C973.416,-230 977,-233.584 977,-238C977,-242.416 973.416,-246 969,-246ZM970.333,-238.267C970.333,-238.855 969.855,-239.333 969.267,-239.333L968.733,-239.333C968.145,-239.333 967.667,-238.855 967.667,-238.267L967.667,-233.733C967.667,-233.145 968.145,-232.667 968.733,-232.667L969.267,-232.667C969.855,-232.667 970.333,-233.145 970.333,-233.733L970.333,-238.267ZM969,-243.859C970.026,-243.859 970.859,-243.108 970.859,-242.183C970.859,-241.259 970.026,-240.508 969,-240.508C967.974,-240.508 967.141,-241.259 967.141,-242.183C967.141,-243.108 967.974,-243.859 969,-243.859Z" style="fill:rgb(120,120,120);"/>
                        <path d="M969,-246C964.584,-246 961,-242.416 961,-238C961,-233.584 964.584,-230 969,-230C973.416,-230 977,-233.584 977,-238C977,-242.416 973.416,-246 969,-246ZM970.333,-238.267C970.333,-238.855 969.855,-239.333 969.267,-239.333L968.733,-239.333C968.145,-239.333 967.667,-238.855 967.667,-238.267L967.667,-233.733C967.667,-233.145 968.145,-232.667 968.733,-232.667L969.267,-232.667C969.855,-232.667 970.333,-233.145 970.333,-233.733L970.333,-238.267ZM969,-243.859C970.026,-243.859 970.859,-243.108 970.859,-242.183C970.859,-241.259 970.026,-240.508 969,-240.508C967.974,-240.508 967.141,-241.259 967.141,-242.183C967.141,-243.108 967.974,-243.859 969,-243.859Z"/>
                    </g>
                </g>
            </g>
        </g>
    </g>
</svg>
