<?xml version="1.0" encoding="UTF-8" standalone="no"?>
<!DOCTYPE svg PUBLIC "-//W3C//DTD SVG 1.1//EN" "http://www.w3.org/Graphics/SVG/1.1/DTD/svg11.dtd">
<svg width="100%" height="100%" viewBox="0 0 20 20" version="1.1" xmlns="http://www.w3.org/2000/svg" xmlns:xlink="http://www.w3.org/1999/xlink" xml:space="preserve" xmlns:serif="http://www.serif.com/" style="fill-rule:evenodd;clip-rule:evenodd;stroke-linejoin:round;stroke-miterlimit:2;">
    <g transform="matrix(1,0,0,1,-126,-4)">
        <g transform="matrix(0.75,0,0,0.75,-596.75,192.5)">
            <g transform="matrix(1,0,0,1,8,0)">
                <g id="Dialog_Help_Active">
                    <g id="Help">
                        <g id="Transparent-BG" serif:id="Transparent BG" transform="matrix(1.33333,0,0,1.33333,955.667,-251.333)">
                            <rect x="0" y="0" width="20" height="20" style="fill:none;"/>
                        </g>
                        <g transform="matrix(1.33333,0,0,1.33333,891.667,-256.667)">
                            <path d="M58,8C54.688,8 52,10.688 52,14C52,17.312 54.688,20 58,20C61.312,20 64,17.312 64,14C64,10.688 61.312,8 58,8ZM58.009,17.625C58.734,17.625 59.322,17.933 59.322,18.313C59.322,18.692 58.734,19 58.009,19C57.285,19 56.696,18.692 56.696,18.313C56.696,17.933 57.285,17.625 58.009,17.625ZM59,17C59,15.891 59.372,15.316 59.372,15.316C59.742,14.946 61.497,14.324 61.613,12.922C61.747,11.304 60.383,9.837 58.5,9.837C55.953,9.837 55,10.774 55,13L57,13C57,12.49 57.49,11.958 58.47,11.958C59.185,11.958 59.431,12.649 59.364,13C59.251,13.583 58.24,13.766 58,14C57.181,14.267 57.013,14.957 57,15.396C56.996,16.031 57,17 57,17L59,17Z" style="fill:rgb(120,120,120);"/>
                        </g>
                        <g transform="matrix(1.33333,0,0,1.33333,891.667,-256.667)">
                            <path d="M58,8C54.688,8 52,10.688 52,14C52,17.312 54.688,20 58,20C61.312,20 64,17.312 64,14C64,10.688 61.312,8 58,8ZM58.009,17.625C58.734,17.625 59.322,17.933 59.322,18.313C59.322,18.692 58.734,19 58.009,19C57.285,19 56.696,18.692 56.696,18.313C56.696,17.933 57.285,17.625 58.009,17.625ZM59,17C59,15.891 59.372,15.316 59.372,15.316C59.742,14.946 61.497,14.324 61.613,12.922C61.747,11.304 60.383,9.837 58.5,9.837C55.953,9.837 55,10.774 55,13L57,13C57,12.49 57.49,11.958 58.47,11.958C59.185,11.958 59.431,12.649 59.364,13C59.251,13.583 58.24,13.766 58,14C57.181,14.267 57.013,14.957 57,15.396C56.996,16.031 57,17 57,17L59,17Z" style="fill-opacity:0.6;"/>
                        </g>
                    </g>
                </g>
            </g>
        </g>
    </g>
</svg>
