<?xml version="1.0" encoding="UTF-8" standalone="no"?>
<!DOCTYPE svg PUBLIC "-//W3C//DTD SVG 1.1//EN" "http://www.w3.org/Graphics/SVG/1.1/DTD/svg11.dtd">
<svg width="100%" height="100%" viewBox="0 0 20 20" version="1.1" xmlns="http://www.w3.org/2000/svg" xmlns:xlink="http://www.w3.org/1999/xlink" xml:space="preserve" xmlns:serif="http://www.serif.com/" style="fill-rule:evenodd;clip-rule:evenodd;stroke-linejoin:round;stroke-miterlimit:2;">
    <g transform="matrix(1,0,0,1,-335,-28)">
        <g transform="matrix(0.75,0,0,0.75,-596.75,192.5)">
            <g id="Dialog_SplitVertical_Checked" transform="matrix(11.6671,0,0,1.63339,1018.83,-221.213)">
                <g id="Transparent-BG" serif:id="Transparent BG" transform="matrix(0.114282,0,0,0.816298,19.1568,1.15104)">
                    <rect x="0" y="0" width="20" height="20" style="fill:none;"/>
                </g>
                <g id="Split-Icon" serif:id="Split Icon" transform="matrix(0.114282,0,0,1.09095,-97.6392,-690.853)">
                    <g transform="matrix(2.375,0,0,1.09359,-2276.87,-1287.47)">
                        <rect x="1389" y="1758" width="8" height="13" style="fill:rgb(186,186,186);fill-opacity:0;"/>
                    </g>
                    <g transform="matrix(1,0,0,0.748248,734,631.323)">
                        <path d="M291,7L305,7L305,21L291,21L291,7ZM297,8L292,8L292,20L297,20L297,8ZM304,8L299,8L299,20L304,20L304,8Z" style="fill:rgb(140,140,140);"/>
                    </g>
                    <g transform="matrix(1,0,0,0.748248,734,631.323)">
                        <path d="M291,7L305,7L305,21L291,21L291,7ZM297,8L292,8L292,20L297,20L297,8ZM304,8L299,8L299,20L304,20L304,8Z" style="fill:white;"/>
                    </g>
                </g>
            </g>
        </g>
    </g>
</svg>
