<?xml version="1.0" encoding="UTF-8" standalone="no"?>
<!DOCTYPE svg PUBLIC "-//W3C//DTD SVG 1.1//EN" "http://www.w3.org/Graphics/SVG/1.1/DTD/svg11.dtd">
<svg width="100%" height="100%" viewBox="0 0 20 20" version="1.1" xmlns="http://www.w3.org/2000/svg" xmlns:xlink="http://www.w3.org/1999/xlink" xml:space="preserve" xmlns:serif="http://www.serif.com/" style="fill-rule:evenodd;clip-rule:evenodd;stroke-linejoin:round;stroke-miterlimit:2;">
    <g transform="matrix(1,0,0,1,-311,-28)">
        <g transform="matrix(0.75,0,0,0.75,-596.75,192.5)">
            <g id="Dialog_OpenInNewWindow_Checked" transform="matrix(11.6671,0,0,1.63339,986.83,-221.213)">
                <g id="Transparent-BG" serif:id="Transparent BG" transform="matrix(0.114282,0,0,0.816298,19.1568,1.15104)">
                    <rect x="0" y="0" width="20" height="20" style="fill:none;"/>
                </g>
                <g id="General_OpenInNewWindow_Normal" transform="matrix(0.114282,0,0,0.816298,-1.52823,-64.1528)">
                    <g id="Transparent-BG1" serif:id="Transparent BG" transform="matrix(0.95,0,0,0.95,182,80)">
                        <rect x="0" y="0" width="20" height="20" style="fill:white;fill-opacity:0;"/>
                    </g>
                    <g transform="matrix(0.866667,0,0,0.866667,-65.6,32)">
                        <path d="M288,60L293.769,60L294.923,61.154L289.154,61.154L289.154,73.846L301.846,73.846L301.846,68.077L303,69.231L303,75L288,75L288,60Z" style="fill:rgb(140,140,140);"/>
                    </g>
                    <g id="Arrow-Front" serif:id="Arrow Front" transform="matrix(0.866667,-2.1365e-32,2.1365e-32,0.866667,-65.6203,32.0203)">
                        <path d="M296.1,58.823L304.177,58.823L304.177,66.9L301.164,63.953L295.372,69.746L293.263,67.637L299.067,61.842L299.058,61.842L296.1,58.823Z" style="fill:rgb(140,140,140);"/>
                    </g>
                    <g transform="matrix(0.866667,0,0,0.866667,-65.6,32)">
                        <path d="M288,60L293.769,60L294.923,61.154L289.154,61.154L289.154,73.846L301.846,73.846L301.846,68.077L303,69.231L303,75L288,75L288,60Z" style="fill:white;"/>
                    </g>
                    <g id="Arrow-Front1" serif:id="Arrow Front" transform="matrix(0.866667,-2.1365e-32,2.1365e-32,0.866667,-65.6203,32.0203)">
                        <path d="M296.1,58.823L304.177,58.823L304.177,66.9L301.164,63.953L295.372,69.746L293.263,67.637L299.067,61.842L299.058,61.842L296.1,58.823Z" style="fill:white;"/>
                    </g>
                </g>
            </g>
        </g>
    </g>
</svg>
