<?xml version="1.0" encoding="UTF-8" standalone="no"?>
<!DOCTYPE svg PUBLIC "-//W3C//DTD SVG 1.1//EN" "http://www.w3.org/Graphics/SVG/1.1/DTD/svg11.dtd">
<svg width="100%" height="100%" viewBox="0 0 20 20" version="1.1" xmlns="http://www.w3.org/2000/svg" xmlns:xlink="http://www.w3.org/1999/xlink" xml:space="preserve" xmlns:serif="http://www.serif.com/" style="fill-rule:evenodd;clip-rule:evenodd;stroke-linejoin:round;stroke-miterlimit:2;">
    <g transform="matrix(1,0,0,1,-148,-4)">
        <g transform="matrix(0.75,0,0,0.75,-596.75,192.5)">
            <g transform="matrix(1,0,0,1,37.3333,0)">
                <g id="Dialog_LiveHelp_Pressed">
                    <g id="Help">
                        <g id="Transparent-BG" serif:id="Transparent BG" transform="matrix(1.33333,0,0,1.33333,955.667,-251.333)">
                            <rect x="0" y="0" width="20" height="20" style="fill:none;"/>
                        </g>
                        <path d="M975.222,-246L962.778,-246C961.791,-246 961,-245.2 961,-244.222L961,-233.111C961,-232.133 961.791,-231.333 962.778,-231.333L966.333,-231.333L969,-228.667L971.667,-231.333L975.222,-231.333C976.2,-231.333 977,-232.133 977,-233.111L977,-244.222C977,-245.2 976.2,-246 975.222,-246ZM969.012,-235.593C969.978,-235.593 970.763,-235.11 970.763,-234.515C970.763,-233.92 969.978,-233.437 969.012,-233.437C968.046,-233.437 967.262,-233.92 967.262,-234.515C967.262,-235.11 968.046,-235.593 969.012,-235.593ZM970.333,-236.122C970.315,-237.353 970.829,-237.578 970.829,-237.578C971.248,-237.9 973.663,-238.901 973.817,-240.77C973.996,-242.928 972.177,-244.884 969.667,-244.884C966.27,-244.884 965,-243.635 965,-240.667L967.667,-240.667C967.667,-241.346 968.32,-242.056 969.626,-242.056C970.579,-242.056 970.908,-241.135 970.818,-240.667C970.668,-239.89 969.409,-239.51 969,-239.333C967.908,-238.978 967.684,-238.057 967.667,-237.472C967.661,-236.625 967.667,-236.122 967.667,-236.122L970.333,-236.122Z" style="fill:rgb(120,120,120);"/>
                        <path d="M975.222,-246L962.778,-246C961.791,-246 961,-245.2 961,-244.222L961,-233.111C961,-232.133 961.791,-231.333 962.778,-231.333L966.333,-231.333L969,-228.667L971.667,-231.333L975.222,-231.333C976.2,-231.333 977,-232.133 977,-233.111L977,-244.222C977,-245.2 976.2,-246 975.222,-246ZM969.012,-235.593C969.978,-235.593 970.763,-235.11 970.763,-234.515C970.763,-233.92 969.978,-233.437 969.012,-233.437C968.046,-233.437 967.262,-233.92 967.262,-234.515C967.262,-235.11 968.046,-235.593 969.012,-235.593ZM970.333,-236.122C970.315,-237.353 970.829,-237.578 970.829,-237.578C971.248,-237.9 973.663,-238.901 973.817,-240.77C973.996,-242.928 972.177,-244.884 969.667,-244.884C966.27,-244.884 965,-243.635 965,-240.667L967.667,-240.667C967.667,-241.346 968.32,-242.056 969.626,-242.056C970.579,-242.056 970.908,-241.135 970.818,-240.667C970.668,-239.89 969.409,-239.51 969,-239.333C967.908,-238.978 967.684,-238.057 967.667,-237.472C967.661,-236.625 967.667,-236.122 967.667,-236.122L970.333,-236.122Z"/>
                    </g>
                </g>
            </g>
        </g>
    </g>
</svg>
