<?xml version="1.0" encoding="UTF-8" standalone="no"?>
<!DOCTYPE svg PUBLIC "-//W3C//DTD SVG 1.1//EN" "http://www.w3.org/Graphics/SVG/1.1/DTD/svg11.dtd">
<svg width="100%" height="100%" viewBox="0 0 20 20" version="1.1" xmlns="http://www.w3.org/2000/svg" xmlns:xlink="http://www.w3.org/1999/xlink" xml:space="preserve" xmlns:serif="http://www.serif.com/" style="fill-rule:evenodd;clip-rule:evenodd;stroke-linejoin:round;stroke-miterlimit:2;">
    <g transform="matrix(1,0,0,1,-236,-4)">
        <g transform="matrix(0.75,0,0,0.75,-596.75,192.5)">
            <g transform="matrix(1.45522,0,0,1.41006,-611.731,-86.0784)">
                <g id="Dialog_Maximize_Pressed">
                    <g id="Maximize">
                        <g id="Transparent-BG" serif:id="Transparent BG" transform="matrix(0.916242,0,0,0.945586,1183.37,-117.197)">
                            <rect x="0" y="0" width="20" height="20" style="fill:none;"/>
                        </g>
                        <g transform="matrix(0.916242,0,0,0.945586,1117.4,-120.979)">
                            <path d="M76,8L88,8L88,19L76,19L76,8ZM77,11L77,18L87,18L87,11L77,11Z" style="fill:rgb(120,120,120);"/>
                        </g>
                        <g transform="matrix(0.916242,0,0,0.945586,1117.4,-120.979)">
                            <path d="M76,8L88,8L88,19L76,19L76,8ZM77,11L77,18L87,18L87,11L77,11Z"/>
                        </g>
                    </g>
                </g>
            </g>
        </g>
    </g>
</svg>
