<?xml version="1.0" encoding="UTF-8" standalone="no"?>
<!DOCTYPE svg PUBLIC "-//W3C//DTD SVG 1.1//EN" "http://www.w3.org/Graphics/SVG/1.1/DTD/svg11.dtd">
<svg width="100%" height="100%" viewBox="0 0 20 20" version="1.1" xmlns="http://www.w3.org/2000/svg" xmlns:xlink="http://www.w3.org/1999/xlink" xml:space="preserve" xmlns:serif="http://www.serif.com/" style="fill-rule:evenodd;clip-rule:evenodd;stroke-linejoin:round;stroke-miterlimit:2;">
    <g transform="matrix(1,0,0,1,-82,-4)">
        <g transform="matrix(0.75,0,0,0.75,-596.75,192.5)">
            <g transform="matrix(1,0,0,1,-82.6667,0)">
                <g id="Dialog_Save_Pressed">
                    <g id="Save">
                        <g id="Transparent-BG" serif:id="Transparent BG" transform="matrix(1.33333,0,0,1.33333,987.667,-251.333)">
                            <rect x="0" y="0" width="20" height="20" style="fill:none;"/>
                        </g>
                        <g id="Save1" serif:id="Save" transform="matrix(0.888889,0,0,0.888889,990.333,-248.667)">
                            <path d="M16.5,3L5,3C3.89,3 3,3.9 3,5L3,19C3,20.1 3.89,21 5,21L19,21C20.1,21 21,20.1 21,19L21,7.5L16.5,3ZM12,19.5C10.34,19.5 9,18.16 9,16.5C9,14.84 10.34,13.5 12,13.5C13.66,13.5 15,14.84 15,16.5C15,18.16 13.66,19.5 12,19.5ZM16.5,10.5L6,10.5L6,6L16.5,6L16.5,10.5Z" style="fill:rgb(120,120,120);fill-rule:nonzero;"/>
                        </g>
                        <g id="Save2" serif:id="Save" transform="matrix(0.888889,0,0,0.888889,990.333,-248.667)">
                            <path d="M16.5,3L5,3C3.89,3 3,3.9 3,5L3,19C3,20.1 3.89,21 5,21L19,21C20.1,21 21,20.1 21,19L21,7.5L16.5,3ZM12,19.5C10.34,19.5 9,18.16 9,16.5C9,14.84 10.34,13.5 12,13.5C13.66,13.5 15,14.84 15,16.5C15,18.16 13.66,19.5 12,19.5ZM16.5,10.5L6,10.5L6,6L16.5,6L16.5,10.5Z" style="fill-rule:nonzero;"/>
                        </g>
                    </g>
                </g>
            </g>
        </g>
    </g>
</svg>
