<?xml version="1.0" encoding="UTF-8" standalone="no"?>
<!DOCTYPE svg PUBLIC "-//W3C//DTD SVG 1.1//EN" "http://www.w3.org/Graphics/SVG/1.1/DTD/svg11.dtd">
<svg width="100%" height="100%" viewBox="0 0 19 19" version="1.1" xmlns="http://www.w3.org/2000/svg" xmlns:xlink="http://www.w3.org/1999/xlink" xml:space="preserve" xmlns:serif="http://www.serif.com/" style="fill-rule:evenodd;clip-rule:evenodd;stroke-linejoin:round;stroke-miterlimit:2;">
    <g transform="matrix(1,0,0,1,-30,-4)">
        <g id="View3dToolbar_Follow_Disabled" transform="matrix(1,0,0,1,28,4)">
            <g opacity="0.45">
                <g id="Follow-Object" serif:id="Follow Object" transform="matrix(1,0,0,1,-1694,-134)">
                    <g id="Transparent-BG" serif:id="Transparent BG" transform="matrix(0.95,0,0,0.95,1696,134)">
                        <rect x="0" y="0" width="20" height="20" style="fill:white;fill-opacity:0;"/>
                    </g>
                    <g transform="matrix(6.31762e-17,-1.11111,0.892857,5.83165e-17,1608.54,1975.89)">
                        <path d="M1649.58,111.4L1651.38,111.4L1655,117L1646,117L1649.58,111.4Z"/>
                    </g>
                    <g transform="matrix(0.9,0,0,1,245.4,32)">
                        <path d="M1624,107.36C1624,106.609 1623.35,106 1622.54,106L1615.46,106C1614.65,106 1614,106.609 1614,107.36L1614,112.64C1614,113.391 1614.65,114 1615.46,114L1622.54,114C1623.35,114 1624,113.391 1624,112.64L1624,107.36Z"/>
                    </g>
                    <g transform="matrix(0.2,0,0,0.25,1375.2,122.5)">
                        <rect x="1614" y="106" width="10" height="8"/>
                    </g>
                    <g transform="matrix(0.2,0,0,0.25,1379.2,122.5)">
                        <rect x="1614" y="106" width="10" height="8"/>
                    </g>
                    <g transform="matrix(0.2,0,0,0.25,1383.2,122.5)">
                        <rect x="1614" y="106" width="10" height="8"/>
                    </g>
                </g>
            </g>
        </g>
    </g>
</svg>
