<?xml version="1.0" encoding="UTF-8" standalone="no"?><!DOCTYPE svg PUBLIC "-//W3C//DTD SVG 1.1//EN" "http://www.w3.org/Graphics/SVG/1.1/DTD/svg11.dtd"><svg width="100%" height="100%" viewBox="0 0 16 16" version="1.1" xmlns="http://www.w3.org/2000/svg" xmlns:xlink="http://www.w3.org/1999/xlink" xml:space="preserve" xmlns:serif="http://www.serif.com/" style="fill-rule:evenodd;clip-rule:evenodd;stroke-linejoin:round;stroke-miterlimit:2;"><g id="General_Grip_Normal" opacity="0.45"><rect id="Transparent-BG" serif:id="Transparent BG" x="0.364" y="0.63" width="15" height="15" style="fill:#fff;fill-opacity:0;"/><path d="M7.097,3.262l-0,2.241l-2.242,-0l0,-2.241l2.242,-0Zm3.765,-0l-0,2.241l-2.242,-0l0,-2.241l2.242,-0Zm-3.755,7.494l0,2.241l-2.241,0l0,-2.241l2.241,0Zm3.765,0l0,2.241l-2.241,0l0,-2.241l2.241,0Zm-3.765,-3.752l0,2.241l-2.241,0l0,-2.241l2.241,-0Zm3.765,-0l0,2.241l-2.241,0l0,-2.241l2.241,-0Z"/></g></svg>