<?xml version="1.0" encoding="UTF-8" standalone="no"?>
<!DOCTYPE svg PUBLIC "-//W3C//DTD SVG 1.1//EN" "http://www.w3.org/Graphics/SVG/1.1/DTD/svg11.dtd">
<svg width="100%" height="100%" viewBox="0 0 20 20" version="1.1" xmlns="http://www.w3.org/2000/svg" xmlns:xlink="http://www.w3.org/1999/xlink" xml:space="preserve" xmlns:serif="http://www.serif.com/" style="fill-rule:evenodd;clip-rule:evenodd;stroke-linejoin:round;stroke-miterlimit:2;">
    <g transform="matrix(1,0,0,1,-314,-70)">
        <g id="General_SmallAddWithTriangle_Normal" transform="matrix(3.58891,0,0,2.39241,-3038.99,-2452.46)">
            <g opacity="0.45">
                <g transform="matrix(0.278636,0,0,0.417989,920.887,1052.69)">
                    <g id="Plus">
                        <g id="General_AddWithTriangle_Normal">
                            <g id="Transparent-BG" serif:id="Transparent BG" transform="matrix(1,0,0,1,48,4)">
                                <rect x="0" y="0" width="20" height="20" style="fill:white;fill-opacity:0;"/>
                            </g>
                            <g transform="matrix(1,0,0,1,-71,-234)">
                                <path d="M123,247L128,247L128,242L130,242L130,247L135,247L135,249L130,249L130,254L128,254L128,249L123,249L123,247Z"/>
                            </g>
                            <g transform="matrix(1.73001,7.06216e-17,-7.06216e-17,-1.15334,-255.548,45.2201)">
                                <path d="M185,19L186,21L184,21L185,19Z"/>
                            </g>
                        </g>
                    </g>
                </g>
            </g>
        </g>
    </g>
</svg>
