<?xml version="1.0" encoding="UTF-8" standalone="no"?>
<!DOCTYPE svg PUBLIC "-//W3C//DTD SVG 1.1//EN" "http://www.w3.org/Graphics/SVG/1.1/DTD/svg11.dtd">
<svg width="100%" height="100%" viewBox="0 0 30 15" version="1.1" xmlns="http://www.w3.org/2000/svg" xmlns:xlink="http://www.w3.org/1999/xlink" xml:space="preserve" xmlns:serif="http://www.serif.com/" style="fill-rule:evenodd;clip-rule:evenodd;stroke-linejoin:round;stroke-miterlimit:2;">
    <g transform="matrix(1,0,0,1,-304,-161)">
        <g id="General_GetFromWwise_Normal" transform="matrix(1,0,0,1,-711,-207)">
            <g opacity="0.45">
                <g id="Icon-Base" serif:id="Icon Base" transform="matrix(2,0,0,1,935,343)">
                    <path d="M55,27.1C55,25.941 54.53,25 53.95,25L41.05,25C40.47,25 40,25.941 40,27.1L40,37.9C40,39.059 40.47,40 41.05,40L53.95,40C54.53,40 55,39.059 55,37.9L55,27.1Z" style="fill-opacity:0;"/>
                </g>
                <g transform="matrix(1.18455,0,0,1.19377,695.533,-140.739)">
                    <path d="M287.37,434.481C287.372,434.881 287.553,435.24 287.84,435.465C288.126,435.715 288.31,436.096 288.31,436.518C288.31,437.278 287.725,437.89 287.004,437.89L286.981,437.89C286.259,437.89 285.673,437.278 285.673,436.518C285.673,436.096 285.859,435.715 286.145,435.465C286.431,435.24 286.617,434.881 286.615,434.481L286.615,434.384C286.612,433.98 286.431,433.395 286.145,433.173C285.859,432.921 285.673,432.541 285.673,432.117C285.673,431.359 286.259,430.745 286.981,430.745L287.004,430.745C287.725,430.745 288.31,431.359 288.31,432.117C288.31,432.541 288.126,432.921 287.84,433.173C287.553,433.395 287.367,433.98 287.37,434.384L287.37,434.481ZM290.197,432.221C290.2,432.622 290.385,432.981 290.681,433.206C290.975,433.456 291.164,433.836 291.164,434.259C291.164,435.019 290.563,435.631 289.821,435.631L289.798,435.631C289.055,435.631 288.452,435.019 288.452,434.259C288.452,433.836 288.643,433.456 288.937,433.206C289.231,432.981 289.423,432.622 289.421,432.221L289.421,432.125C289.418,431.721 289.231,431.362 288.937,431.139C288.643,430.887 288.452,430.507 288.452,430.084C288.452,429.325 289.055,428.712 289.798,428.712L289.821,428.712C290.563,428.712 291.164,429.325 291.164,430.084C291.164,430.507 290.975,430.887 290.681,431.139C290.385,431.362 290.194,431.721 290.197,432.125L290.197,432.221ZM284.596,432.221C284.598,432.622 284.786,432.981 285.084,433.206C285.382,433.456 285.573,433.836 285.573,434.259C285.573,435.019 284.965,435.631 284.215,435.631L284.192,435.631C283.441,435.631 282.832,435.019 282.832,434.259C282.832,433.836 283.025,433.456 283.322,433.206C283.619,432.981 283.813,432.622 283.811,432.221L283.811,432.125C283.808,431.721 283.619,431.362 283.322,431.139C283.025,430.887 282.832,430.507 282.832,430.084C282.832,429.325 283.441,428.712 284.192,428.712L284.215,428.712C284.965,428.712 285.573,429.325 285.573,430.084C285.573,430.507 285.382,430.887 285.084,431.139C284.786,431.362 284.593,431.721 284.596,432.125L284.596,432.221ZM293.331,432.026C293.331,431.453 292.871,430.988 292.304,430.988C291.736,430.988 291.276,431.453 291.276,432.026C291.276,432.599 291.736,433.064 292.304,433.064C292.871,433.064 293.331,432.599 293.331,432.026ZM282.724,432.026C282.724,431.453 282.264,430.988 281.696,430.988C281.129,430.988 280.669,431.453 280.669,432.026C280.669,432.599 281.129,433.064 281.696,433.064C282.264,433.064 282.724,432.599 282.724,432.026ZM288.346,428.384C288.346,427.62 287.732,427 286.975,427C286.219,427 285.605,427.62 285.605,428.384C285.605,429.147 286.219,429.767 286.975,429.767C287.732,429.767 288.346,429.147 288.346,428.384Z" style="fill-rule:nonzero;"/>
                </g>
                <g id="Arrow" transform="matrix(1,0,0,1,3,-0.992581)">
                    <path d="M1018,375L1022,375L1022,377L1018,377L1018,380.993L1014,376L1018,370.993L1018,375Z"/>
                </g>
            </g>
        </g>
    </g>
</svg>
