<?xml version="1.0" encoding="UTF-8" standalone="no"?>
<!DOCTYPE svg PUBLIC "-//W3C//DTD SVG 1.1//EN" "http://www.w3.org/Graphics/SVG/1.1/DTD/svg11.dtd">
<svg width="100%" height="100%" viewBox="0 0 20 20" version="1.1" xmlns="http://www.w3.org/2000/svg" xmlns:xlink="http://www.w3.org/1999/xlink" xml:space="preserve" xmlns:serif="http://www.serif.com/" style="fill-rule:evenodd;clip-rule:evenodd;stroke-linejoin:round;stroke-miterlimit:2;">
    <g transform="matrix(1,0,0,1,-284,-26)">
        <g id="General_SettingsWithArrow_CheckedDisabled" transform="matrix(1,0,0,1,188,22)">
            <g opacity="0.3">
                <g id="Settings" transform="matrix(0.75,0,0,0.75,-500.75,192.5)">
                    <g id="Transparent-BG" serif:id="Transparent BG" transform="matrix(1.33333,0,0,1.33333,795.667,-251.333)">
                        <rect x="0" y="0" width="20" height="20" style="fill:none;"/>
                    </g>
                    <g transform="matrix(1.89807,0,0,1.84615,793.996,-251.333)">
                        <path d="M7.511,11.556L5.489,11.556C5.366,11.556 5.258,11.462 5.236,11.346L5.048,10.01C4.738,9.88 4.456,9.714 4.196,9.512L2.939,10.017C2.824,10.061 2.694,10.017 2.629,9.909L1.618,8.161C1.553,8.053 1.582,7.916 1.676,7.836L2.744,6.998C2.723,6.832 2.708,6.666 2.708,6.5C2.708,6.334 2.723,6.168 2.744,6.009L1.676,5.171C1.582,5.092 1.553,4.954 1.618,4.846L2.629,3.098C2.694,2.99 2.824,2.947 2.939,2.99L4.196,3.496C4.456,3.293 4.745,3.127 5.048,2.997L5.236,1.661C5.258,1.538 5.366,1.444 5.489,1.444L7.511,1.444C7.634,1.444 7.742,1.538 7.764,1.654L7.952,2.99C8.262,3.12 8.544,3.286 8.804,3.488L10.061,2.983C10.176,2.939 10.306,2.983 10.371,3.091L11.382,4.839C11.447,4.947 11.418,5.084 11.324,5.164L10.256,6.002C10.277,6.168 10.292,6.334 10.292,6.5C10.292,6.666 10.277,6.832 10.256,6.991L11.324,7.829C11.418,7.908 11.447,8.046 11.382,8.154L10.371,9.902C10.306,10.01 10.176,10.053 10.061,10.01L8.804,9.504C8.544,9.707 8.255,9.873 7.952,10.003L7.764,11.339C7.742,11.462 7.634,11.556 7.511,11.556ZM6.5,5.056C5.706,5.056 5.056,5.706 5.056,6.5C5.056,7.294 5.706,7.944 6.5,7.944C7.294,7.944 7.944,7.294 7.944,6.5C7.944,5.706 7.294,5.056 6.5,5.056Z"/>
                    </g>
                    <g transform="matrix(2.30668,9.47073e-17,-9.47073e-17,-1.53333,391.02,-196.467)">
                        <path d="M185,19L186,21L184,21L185,19Z"/>
                    </g>
                </g>
            </g>
        </g>
    </g>
</svg>
