<?xml version="1.0" encoding="UTF-8" standalone="no"?>
<!DOCTYPE svg PUBLIC "-//W3C//DTD SVG 1.1//EN" "http://www.w3.org/Graphics/SVG/1.1/DTD/svg11.dtd">
<svg width="100%" height="100%" viewBox="0 0 20 21" version="1.1" xmlns="http://www.w3.org/2000/svg" xmlns:xlink="http://www.w3.org/1999/xlink" xml:space="preserve" xmlns:serif="http://www.serif.com/" style="fill-rule:evenodd;clip-rule:evenodd;stroke-linejoin:round;stroke-miterlimit:2;">
    <g transform="matrix(1,0,0,1,-314,-70)">
        <g transform="matrix(1,0,0,1,266,66)">
            <g id="General_SmallAddWithTriangle_Pressed">
                <g id="Plus">
                    <g id="General_AddWithTriangle_Normal">
                        <g id="Transparent-BG" serif:id="Transparent BG" transform="matrix(1,0,0,1,48,4)">
                            <rect x="0" y="0" width="20" height="20" style="fill:white;fill-opacity:0;"/>
                        </g>
                        <g transform="matrix(1,0,0,1,-71,-234)">
                            <path d="M123,247L128,247L128,242L130,242L130,247L135,247L135,249L130,249L130,254L128,254L128,249L123,249L123,247Z"/>
                            <path d="M123,246C122.448,246 122,246.448 122,247L122,249C122,249.552 122.448,250 123,250L127,250C127,250 127,254 127,254C127,254.552 127.448,255 128,255L130,255C130.552,255 131,254.552 131,254L131,250C131,250 135,250 135,250C135.552,250 136,249.552 136,249L136,247C136,246.448 135.552,246 135,246L131,246C131,246 131,242 131,242C131,241.448 130.552,241 130,241L128,241C127.448,241 127,241.448 127,242L127,246C127,246 123,246 123,246ZM123,247L128,247L128,242L130,242L130,247L135,247L135,249L130,249L130,254L128,254L128,249L123,249L123,247Z" style="fill:rgb(34,34,34);"/>
                        </g>
                        <g transform="matrix(1.73001,7.06216e-17,-7.06216e-17,-1.15334,-255.548,45.2201)">
                            <path d="M184.538,18.48C184.647,18.261 184.818,18.133 185,18.133C185.182,18.133 185.353,18.261 185.462,18.48L186.462,20.48C186.594,20.743 186.615,21.094 186.517,21.388C186.419,21.681 186.219,21.867 186,21.867L184,21.867C183.781,21.867 183.581,21.681 183.483,21.388C183.385,21.094 183.406,20.743 183.538,20.48L184.538,18.48ZM185,19L186,21L184,21L185,19Z" style="fill:rgb(34,34,34);"/>
                            <path d="M185,19L186,21L184,21L185,19Z"/>
                        </g>
                    </g>
                </g>
            </g>
        </g>
    </g>
</svg>
