<?xml version="1.0" encoding="UTF-8" standalone="no"?>
<!DOCTYPE svg PUBLIC "-//W3C//DTD SVG 1.1//EN" "http://www.w3.org/Graphics/SVG/1.1/DTD/svg11.dtd">
<svg width="100%" height="100%" viewBox="0 0 20 20" version="1.1" xmlns="http://www.w3.org/2000/svg" xmlns:xlink="http://www.w3.org/1999/xlink" xml:space="preserve" xmlns:serif="http://www.serif.com/" style="fill-rule:evenodd;clip-rule:evenodd;stroke-linejoin:round;stroke-miterlimit:2;">
    <g transform="matrix(1,0,0,1,-178,-4)">
        <g transform="matrix(0.75,0,0,0.75,-596.75,192.5)">
            <g id="Bypass_Normal" transform="matrix(1.33333,0,0,1.33333,903.667,-254)">
                <g transform="matrix(1.33333,0,0,1.33333,43.6665,-31.3333)">
                    <g id="Object-Icon-Base" serif:id="Object Icon Base">
                        <rect x="40" y="25" width="15" height="15" style="fill:rgb(34,34,34);fill-opacity:0;"/>
                    </g>
                </g>
                <g transform="matrix(1,0,0,1,100,5)">
                    <g opacity="0.45">
                        <path d="M9,7.5C9,8.328 8.329,9 7.5,9C6.671,9 6,8.328 6,7.5C6,6.672 6.671,6 7.5,6C8.329,6 9,6.672 9,7.5Z" style="fill:rgb(58,58,58);"/>
                        <g transform="matrix(0.857143,0,0,0.857143,9,7.5)">
                            <path d="M0,0C0,0.966 -0.783,1.75 -1.75,1.75C-2.717,1.75 -3.5,0.966 -3.5,0C-3.5,-0.966 -2.717,-1.75 -1.75,-1.75C-0.783,-1.75 0,-0.966 0,0" style="fill-rule:nonzero;"/>
                        </g>
                        <g transform="matrix(1,0,0,1,-60,-5)">
                            <path d="M70,13C70.04,12.836 70.073,12.671 70.073,12.5C70.073,12.329 70.04,12.164 70,12C69.81,10.746 68.552,10 67.5,10C66.448,10 65.238,10.588 65,12L64.998,12.008C64.958,12.169 64.927,12.332 64.927,12.5C64.927,12.671 64.959,12.836 65,13L61,13L61,12L63.551,12C63.799,10.311 65.513,8.847 67.551,8.847C69.589,8.847 71.201,10.311 71.449,12L74,12L74,13L70,13Z" style="fill-rule:nonzero;"/>
                        </g>
                    </g>
                </g>
            </g>
        </g>
    </g>
</svg>
