<?xml version="1.0" encoding="UTF-8" standalone="no"?><!DOCTYPE svg PUBLIC "-//W3C//DTD SVG 1.1//EN" "http://www.w3.org/Graphics/SVG/1.1/DTD/svg11.dtd"><svg width="100%" height="100%" viewBox="0 0 63 63" version="1.1" xmlns="http://www.w3.org/2000/svg" xmlns:xlink="http://www.w3.org/1999/xlink" xml:space="preserve" xmlns:serif="http://www.serif.com/" style="fill-rule:evenodd;clip-rule:evenodd;stroke-linejoin:round;stroke-miterlimit:2;"><g id="SchematicView_OverrideBus_off" opacity="0.45"><g id="Base-Block" serif:id="Base Block"><path d="M62.5,8.75c-0,-4.829 -3.921,-8.75 -8.75,-8.75l-45,0c-4.829,0 -8.75,3.921 -8.75,8.75l-0,45c-0,4.829 3.921,8.75 8.75,8.75l45,0c4.829,0 8.75,-3.921 8.75,-8.75l-0,-45Z" style="fill-opacity:0;"/></g><g id="Bus"><path d="M62.5,12.5c-0,-2.3 -1.867,-4.167 -4.167,-4.167l-41.666,0c-2.3,0 -4.167,1.867 -4.167,4.167l-0,41.667c-0,2.299 1.867,4.166 4.167,4.166l41.666,0c2.3,0 4.167,-1.867 4.167,-4.166l-0,-41.667Zm-54.167,25l-8.333,-0l-0,4.167l8.333,-0l0,-4.167Zm0,-8.333l-8.333,-0l-0,4.166l8.333,0l0,-4.166Zm0,-8.334l-8.333,0l-0,4.167l8.333,-0l0,-4.167Z" style="fill:#989898;"/><path d="M12.5,41.667l-4.167,-0l0,-4.167l4.167,0l-0,4.167Zm-0,-8.334l-4.167,0l0,-4.166l4.167,-0l-0,4.166Zm-0,-8.333l-4.167,0l0,-4.167l4.167,0l-0,4.167Z" style="fill:#989898;fill-opacity:0.5;"/></g></g></svg>