<?xml version="1.0" encoding="UTF-8" standalone="no"?><!DOCTYPE svg PUBLIC "-//W3C//DTD SVG 1.1//EN" "http://www.w3.org/Graphics/SVG/1.1/DTD/svg11.dtd"><svg width="100%" height="100%" viewBox="0 0 19 19" version="1.1" xmlns="http://www.w3.org/2000/svg" xmlns:xlink="http://www.w3.org/1999/xlink" xml:space="preserve" xmlns:serif="http://www.serif.com/" style="fill-rule:evenodd;clip-rule:evenodd;stroke-linejoin:round;stroke-miterlimit:2;"><g id="Transport_Trigger_Normal" opacity="0.45"><g id="Icons"><g id="Base-Block" serif:id="Base Block"><path d="M19,2.66c-0,-1.468 -1.192,-2.66 -2.66,-2.66l-13.68,0c-1.468,0 -2.66,1.192 -2.66,2.66l-0,13.68c-0,1.468 1.192,2.66 2.66,2.66l13.68,-0c1.468,-0 2.66,-1.192 2.66,-2.66l-0,-13.68Z" style="fill-opacity:0;"/></g><rect x="4" y="3" width="1" height="4"/><rect x="14" y="3" width="1" height="4"/><rect x="5" y="4" width="9" height="1"/><rect x="9" y="6" width="1" height="7"/><rect x="3" y="14" width="13" height="2"/><rect x="9" y="5" width="1" height="1" style="fill-opacity:0.5;"/><rect x="5" y="5" width="4" height="1" style="fill-opacity:0.2;"/><rect x="10" y="5" width="4" height="1" style="fill-opacity:0.2;"/></g></g></svg>