<?xml version="1.0" encoding="UTF-8" standalone="no"?>
<!DOCTYPE svg PUBLIC "-//W3C//DTD SVG 1.1//EN" "http://www.w3.org/Graphics/SVG/1.1/DTD/svg11.dtd">
<svg width="100%" height="100%" viewBox="0 0 20 20" version="1.1" xmlns="http://www.w3.org/2000/svg" xmlns:xlink="http://www.w3.org/1999/xlink" xml:space="preserve" xmlns:serif="http://www.serif.com/" style="fill-rule:evenodd;clip-rule:evenodd;stroke-linejoin:round;stroke-miterlimit:2;">
    <g transform="matrix(1,0,0,1,-120,-4)">
        <g transform="matrix(0.75,0,0,0.75,-596.75,192.5)">
            <g id="Solo_Checked_Disabled" transform="matrix(1.33333,0,0,1.33333,795.667,-256.667)">
                <g opacity="0.5">
                    <g id="BG-Transparent" serif:id="BG Transparent" transform="matrix(1,0,0,1,120,4)">
                        <rect x="0" y="0" width="20" height="20" style="fill:none;"/>
                    </g>
                    <g id="Solo">
                        <g transform="matrix(1,0,0,1.07692,24,-1.61538)">
                            <rect x="100" y="8" width="13" height="13" style="fill:none;"/>
                        </g>
                        <g id="S" transform="matrix(0.876216,0,0,0.876216,14.8523,1.39717)">
                            <path d="M126.85,20.474L126.85,17.519C127.385,17.968 128.022,18.369 128.65,18.601C129.278,18.832 129.912,18.948 130.553,18.948C130.928,18.948 131.256,18.913 131.536,18.844C131.816,18.774 132.05,18.677 132.238,18.553C132.426,18.429 132.566,18.283 132.658,18.115C132.751,17.947 132.797,17.764 132.797,17.568C132.797,17.301 132.723,17.063 132.575,16.854C132.427,16.644 132.226,16.463 131.97,16.29C131.715,16.118 131.412,15.952 131.061,15.792C130.71,15.631 130.331,15.468 129.925,15.302C128.891,14.871 128.119,14.345 127.611,13.723C127.104,13.101 126.85,12.35 126.85,11.47C126.85,10.78 126.988,10.188 127.265,9.692C127.542,9.196 127.919,8.788 128.396,8.468C128.874,8.148 129.426,7.913 130.054,7.762C130.682,7.611 131.347,7.536 132.049,7.536C132.738,7.536 133.349,7.577 133.882,7.66C134.414,7.743 134.96,7.934 135.409,8.107L135.409,10.931C135.188,10.773 134.892,10.473 134.63,10.352C134.368,10.231 134.099,10.131 133.822,10.052C133.545,9.972 133.269,9.914 132.995,9.875C132.721,9.837 132.461,9.818 132.215,9.818C131.876,9.818 131.569,9.852 131.292,9.918C131.015,9.985 130.781,10.079 130.59,10.2C130.399,10.32 130.251,10.465 130.146,10.633C130.042,10.802 129.989,10.991 129.989,11.201C129.989,11.43 130.048,11.635 130.165,11.816C130.282,11.997 130.448,12.158 130.664,12.315C130.879,12.472 131.141,12.626 131.449,12.776C131.756,12.927 132.104,13.083 132.492,13.243C133.022,13.464 133.508,13.7 133.935,13.949C134.362,14.199 134.729,14.48 135.035,14.794C135.34,15.108 135.574,15.467 135.736,15.87C135.899,16.273 135.98,16.743 135.98,17.278C135.98,18.017 135.838,18.637 135.554,19.139C135.27,19.641 134.885,20.047 134.398,20.358C133.912,20.669 133.346,20.892 132.7,21.028C132.054,21.163 131.39,21.231 130.682,21.231C129.956,21.231 129.265,21.169 128.609,21.046C127.953,20.923 127.33,20.72 126.85,20.474Z" style="fill:white;fill-rule:nonzero;"/>
                        </g>
                    </g>
                </g>
            </g>
        </g>
    </g>
</svg>
