<?xml version="1.0" encoding="UTF-8" standalone="no"?>
<!DOCTYPE svg PUBLIC "-//W3C//DTD SVG 1.1//EN" "http://www.w3.org/Graphics/SVG/1.1/DTD/svg11.dtd">
<svg width="100%" height="100%" viewBox="0 0 20 20" version="1.1" xmlns="http://www.w3.org/2000/svg" xmlns:xlink="http://www.w3.org/1999/xlink" xml:space="preserve" xmlns:serif="http://www.serif.com/" style="fill-rule:evenodd;clip-rule:evenodd;stroke-linejoin:round;stroke-miterlimit:2;">
    <g transform="matrix(1,0,0,1,-120,-4)">
        <g transform="matrix(0.75,0,0,0.75,-596.75,192.5)">
            <g id="Solo_Checked_Implicit" transform="matrix(1.33333,0,0,1.33333,795.667,-256.667)">
                <g id="BG-Transparent" serif:id="BG Transparent" transform="matrix(1,0,0,1,120,4)">
                    <rect x="0" y="0" width="20" height="20" style="fill:none;"/>
                </g>
                <g id="Solo" opacity="0.3">
                    <g transform="matrix(1,0,0,1.07692,24,-1.61538)">
                        <rect x="100" y="8" width="13" height="13" style="fill:none;"/>
                    </g>
                    <g transform="matrix(0.944254,0,0,0.944254,-3.95554,0.920585)">
                        <path d="M138.038,19.503L138.038,17.805C138.232,17.976 138.465,18.131 138.736,18.268C139.008,18.405 139.294,18.521 139.594,18.615C139.894,18.709 140.196,18.782 140.499,18.834C140.802,18.885 141.082,18.911 141.339,18.911C142.225,18.911 142.887,18.747 143.324,18.418C143.762,18.089 143.98,17.616 143.98,16.999C143.98,16.667 143.907,16.378 143.762,16.133C143.616,15.887 143.414,15.662 143.157,15.459C142.9,15.256 142.595,15.062 142.244,14.876C141.892,14.691 141.513,14.495 141.108,14.289C140.679,14.072 140.279,13.852 139.907,13.629C139.535,13.406 139.212,13.16 138.938,12.891C138.664,12.622 138.448,12.318 138.291,11.978C138.133,11.638 138.055,11.239 138.055,10.782C138.055,10.221 138.178,9.734 138.423,9.32C138.669,8.905 138.992,8.564 139.392,8.295C139.793,8.026 140.249,7.826 140.76,7.695C141.272,7.563 141.794,7.497 142.325,7.497C143.537,7.497 144.42,7.643 144.975,7.935L144.975,9.555C144.249,9.052 143.317,8.801 142.179,8.801C141.865,8.801 141.551,8.834 141.236,8.899C140.922,8.965 140.642,9.072 140.396,9.221C140.15,9.37 139.95,9.561 139.796,9.796C139.641,10.03 139.564,10.316 139.564,10.653C139.564,10.967 139.623,11.239 139.74,11.468C139.857,11.696 140.03,11.905 140.259,12.094C140.487,12.282 140.766,12.465 141.095,12.642C141.423,12.82 141.802,13.014 142.231,13.226C142.671,13.443 143.088,13.672 143.483,13.912C143.877,14.152 144.223,14.418 144.52,14.709C144.818,15.001 145.054,15.324 145.228,15.678C145.402,16.033 145.489,16.438 145.489,16.896C145.489,17.502 145.371,18.015 145.134,18.435C144.896,18.855 144.576,19.197 144.173,19.46C143.77,19.723 143.306,19.913 142.78,20.03C142.254,20.147 141.699,20.206 141.116,20.206C140.922,20.206 140.682,20.19 140.396,20.159C140.11,20.127 139.818,20.081 139.521,20.021C139.224,19.961 138.942,19.887 138.676,19.798C138.411,19.71 138.198,19.611 138.038,19.503Z" style="fill:white;fill-rule:nonzero;"/>
                    </g>
                </g>
            </g>
        </g>
    </g>
</svg>
