<?xml version="1.0" encoding="UTF-8" standalone="no"?>
<!DOCTYPE svg PUBLIC "-//W3C//DTD SVG 1.1//EN" "http://www.w3.org/Graphics/SVG/1.1/DTD/svg11.dtd">
<svg width="100%" height="100%" viewBox="0 0 19 19" version="1.1" xmlns="http://www.w3.org/2000/svg" xmlns:xlink="http://www.w3.org/1999/xlink" xml:space="preserve" xmlns:serif="http://www.serif.com/" style="fill-rule:evenodd;clip-rule:evenodd;stroke-linejoin:round;stroke-miterlimit:2;">
    <g transform="matrix(1,0,0,1,-85,-13)">
        <g transform="matrix(1,0,0,1,12,13)">
            <g transform="matrix(7.00024,0,0,0.980034,-60.102,0.871939)">
                <g id="Checkbox_PinList_Checked">
                    <g id="Checkbox_PinList_Checked1" serif:id="Checkbox_PinList_Checked">
                        <g id="Base-Block" serif:id="Base Block" transform="matrix(0.142852,0,0,1.02037,14.2998,-12.1138)">
                            <rect x="33" y="11" width="19" height="19" style="fill-opacity:0;"/>
                        </g>
                        <g id="Transparent-BG" serif:id="Transparent BG" transform="matrix(0.121424,0,0,0.867317,19.1568,0.130669)">
                            <path d="M20,1.8C20,0.807 19.193,0 18.2,0L1.8,0C0.807,0 0,0.807 0,1.8L0,18.2C0,19.193 0.807,20 1.8,20L18.2,20C19.193,20 20,19.193 20,18.2L20,1.8Z" style="fill:rgb(128,198,255);"/>
                            <path d="M21.176,1.8C21.176,0.157 19.843,-1.176 18.2,-1.176L1.8,-1.176C0.157,-1.176 -1.176,0.157 -1.176,1.8L-1.176,18.2C-1.176,19.843 0.157,21.176 1.8,21.176L18.2,21.176C19.843,21.176 21.176,19.843 21.176,18.2L21.176,1.8ZM20,1.8C20,0.807 19.193,0 18.2,0L1.8,0C0.807,0 0,0.807 0,1.8L0,18.2C0,19.193 0.807,20 1.8,20L18.2,20C19.193,20 20,19.193 20,18.2L20,1.8Z" style="fill:rgb(2,142,255);"/>
                        </g>
                        <g transform="matrix(0.104432,0,0,0.746008,-0.650374,-1.99879)">
                            <path d="M197.454,15.811L195.873,14.207C195.341,13.524 195.336,12.804 195.752,12.053C196.643,11.104 198.071,10.248 199.727,10.864L201.834,9.147C201.436,7.954 201.853,6.65 202.702,5.968C203.26,5.483 204.022,5.492 204.516,5.915L209.931,11.381C210.274,11.972 210.338,12.563 209.902,13.155C209.295,13.766 208.144,14.373 206.747,14.136L205.018,16.446C205.56,18.061 204.734,19.201 203.761,20.168C203.096,20.635 202.425,20.604 201.749,20.16L200.165,18.553L197.197,21.355C196.512,21.811 195.824,21.983 195.137,22.003C194.277,22.056 193.752,21.687 193.769,20.636C193.812,19.847 194.016,19.149 194.479,18.599L197.454,15.811Z" style="fill:rgb(34,34,34);fill-opacity:0;"/>
                        </g>
                        <g transform="matrix(0.104432,0,0,0.746008,-0.650374,-1.99879)">
                            <path d="M199.005,15.645L200.117,16.757L196.266,20.636L195.14,20.636L195.14,19.535L195.137,19.532L199.005,15.645ZM203.274,9.802C203.092,8.863 202.817,7.732 203.655,7.148L208.855,12.348C208.357,13.035 207.201,12.738 206.066,12.615L203.524,15.884C204.011,17.659 203.951,18.356 202.765,19.405L196.601,13.241C197.413,12.09 197.957,11.703 199.965,12.34L203.274,9.802Z"/>
                        </g>
                    </g>
                </g>
            </g>
        </g>
    </g>
</svg>
