<?xml version="1.0" encoding="UTF-8" standalone="no"?>
<!DOCTYPE svg PUBLIC "-//W3C//DTD SVG 1.1//EN" "http://www.w3.org/Graphics/SVG/1.1/DTD/svg11.dtd">
<svg width="100%" height="100%" viewBox="0 0 19 19" version="1.1" xmlns="http://www.w3.org/2000/svg" xmlns:xlink="http://www.w3.org/1999/xlink" xml:space="preserve" xmlns:serif="http://www.serif.com/" style="fill-rule:evenodd;clip-rule:evenodd;stroke-linejoin:round;stroke-miterlimit:2;">
    <g transform="matrix(1,0,0,1,-62,-13)">
        <g transform="matrix(1,0,0,1,12,13)">
            <g id="Checkbox_PinList_Normal_Disabled" transform="matrix(1,0,0,1,5,0)">
                <g opacity="0.3">
                    <g id="Checkbox_PinList_Normal" transform="matrix(7.00024,0,0,0.980034,-88.102,0.871939)">
                        <g id="Base-Block" serif:id="Base Block" transform="matrix(0.142852,0,0,1.02037,14.2998,-12.1138)">
                            <rect x="33" y="11" width="19" height="19" style="fill-opacity:0;"/>
                        </g>
                        <g transform="matrix(0.104432,0,0,0.746008,-0.650374,-1.99879)">
                            <path d="M199.005,15.645L200.117,16.757L196.266,20.636L195.14,20.636L195.14,19.535L195.137,19.532L199.005,15.645ZM203.274,9.802C203.092,8.863 202.817,7.732 203.655,7.148L208.855,12.348C208.357,13.035 207.201,12.738 206.066,12.615L203.524,15.884C204.011,17.659 203.951,18.356 202.765,19.405L196.601,13.241C197.413,12.09 197.957,11.703 199.965,12.34L203.274,9.802Z" style="fill-opacity:0.45;"/>
                        </g>
                    </g>
                </g>
            </g>
        </g>
    </g>
</svg>
