<?xml version="1.0" encoding="UTF-8" standalone="no"?>
<!DOCTYPE svg PUBLIC "-//W3C//DTD SVG 1.1//EN" "http://www.w3.org/Graphics/SVG/1.1/DTD/svg11.dtd">
<svg width="100%" height="100%" viewBox="0 0 20 20" version="1.1" xmlns="http://www.w3.org/2000/svg" xmlns:xlink="http://www.w3.org/1999/xlink" xml:space="preserve" xmlns:serif="http://www.serif.com/" style="fill-rule:evenodd;clip-rule:evenodd;stroke-linejoin:round;stroke-miterlimit:2;">
    <g transform="matrix(1,0,0,1,-246,-28)">
        <g transform="matrix(0.75,0,0,0.75,-596.75,192.5)">
            <g transform="matrix(1,0,0,1,296,32)">
                <g id="Dialog_ToolbarClose_Hover">
                    <g id="Close-Icon" serif:id="Close Icon">
                        <g id="Transparent-BG" serif:id="Transparent BG" transform="matrix(1.33333,0,0,1.33333,827.667,-251.333)">
                            <rect x="0" y="0" width="20" height="20" style="fill:none;"/>
                        </g>
                        <g transform="matrix(1.33333,0,0,1.33333,827.667,-256.667)">
                            <path d="M6,8L4,8L4,10L14,20L16,20L16,18L6,8Z" style="fill:rgb(205,205,205);"/>
                        </g>
                        <g transform="matrix(-1.33333,0,0,1.33333,854.333,-256.667)">
                            <path d="M6,8L4,8L4,10L14,20L16,20L16,18L6,8Z" style="fill:rgb(205,205,205);"/>
                        </g>
                        <g transform="matrix(0.152451,-0.152136,13.4813,13.4534,-36044.3,-36789.7)">
                            <path d="M849.828,2726.02L845.561,2725.98L841.091,2726.03L841.089,2726.92L845.462,2726.97L849.832,2726.92L849.828,2726.02Z" style="fill:rgb(37,37,37);"/>
                        </g>
                        <g transform="matrix(-0.152451,-0.152136,-13.4813,13.4534,37726.3,-36789.7)">
                            <path d="M849.828,2726.02L845.561,2725.98L841.091,2726.03L841.089,2726.92L845.462,2726.97L849.832,2726.92L849.828,2726.02Z" style="fill:rgb(37,37,37);"/>
                        </g>
                    </g>
                </g>
            </g>
        </g>
    </g>
</svg>
