<?xml version="1.0" encoding="UTF-8" standalone="no"?>
<!DOCTYPE svg PUBLIC "-//W3C//DTD SVG 1.1//EN" "http://www.w3.org/Graphics/SVG/1.1/DTD/svg11.dtd">
<svg width="100%" height="100%" viewBox="0 0 20 20" version="1.1" xmlns="http://www.w3.org/2000/svg" xmlns:xlink="http://www.w3.org/1999/xlink" xml:space="preserve" xmlns:serif="http://www.serif.com/" style="fill-rule:evenodd;clip-rule:evenodd;stroke-linejoin:round;stroke-miterlimit:2;">
    <g transform="matrix(1,0,0,1,-244,-28)">
        <g transform="matrix(0.75,0,0,0.75,-596.75,192.5)">
            <g id="Dialog_OpenInNewWindow_Inactive" transform="matrix(11.6671,0,0,1.63339,897.497,-221.213)">
                <g opacity="0.8">
                    <g id="Transparent-BG" serif:id="Transparent BG" transform="matrix(0.114282,0,0,0.816298,19.1568,1.15104)">
                        <rect x="0" y="0" width="20" height="20" style="fill:none;"/>
                    </g>
                    <g id="General_OpenInNewWindow_Normal" transform="matrix(0.114282,0,0,0.816298,-1.52823,-64.1528)">
                        <g id="Transparent-BG1" serif:id="Transparent BG" transform="matrix(0.95,0,0,0.95,182,80)">
                            <rect x="0" y="0" width="20" height="20" style="fill:white;fill-opacity:0;"/>
                        </g>
                        <g transform="matrix(0.866667,0,0,0.866667,-65.6,32)">
                            <path d="M288,60L293.769,60L294.923,61.154L289.154,61.154L289.154,73.846L301.846,73.846L301.846,68.077L303,69.231L303,75L288,75L288,60Z" style="fill:rgb(37,37,37);"/>
                            <path d="M288,58.846C287.363,58.846 286.846,59.363 286.846,60L286.846,75C286.846,75.637 287.363,76.154 288,76.154L303,76.154C303.637,76.154 304.154,75.637 304.154,75L304.154,69.231C304.154,68.925 304.032,68.631 303.816,68.415L302.662,67.261C302.332,66.931 301.836,66.832 301.405,67.011C300.973,67.19 300.692,67.61 300.692,68.077L300.692,72.692C300.692,72.692 290.308,72.692 290.308,72.692C290.308,72.692 290.308,62.308 290.308,62.308C290.308,62.308 294.923,62.308 294.923,62.308C295.39,62.308 295.81,62.027 295.989,61.595C296.168,61.164 296.069,60.668 295.739,60.338L294.585,59.184C294.369,58.968 294.075,58.846 293.769,58.846L288,58.846ZM288,60L293.769,60L294.923,61.154L289.154,61.154L289.154,73.846L301.846,73.846L301.846,68.077L303,69.231L303,75L288,75L288,60Z" style="fill:rgb(205,205,205);"/>
                        </g>
                        <g id="Arrow-Front" serif:id="Arrow Front" transform="matrix(0.866667,-2.1365e-32,2.1365e-32,0.866667,-65.6203,32.0203)">
                            <path d="M296.1,58.823L304.177,58.823L304.177,66.9L301.164,63.953L295.372,69.746L293.263,67.637L299.067,61.842L299.058,61.842L296.1,58.823Z" style="fill:rgb(37,37,37);"/>
                            <path d="M297.439,61.837L292.447,66.821C292.231,67.037 292.109,67.331 292.109,67.637C292.109,67.943 292.23,68.237 292.447,68.453L294.556,70.562C295.006,71.013 295.737,71.013 296.187,70.562L301.174,65.576L303.371,67.725C303.703,68.049 304.197,68.143 304.625,67.963C305.053,67.783 305.331,67.364 305.331,66.9L305.331,58.823C305.331,58.517 305.21,58.223 304.993,58.007C304.777,57.79 304.483,57.669 304.177,57.669L296.1,57.669C295.636,57.669 295.217,57.947 295.037,58.376C294.857,58.804 294.951,59.298 295.276,59.63L297.439,61.837ZM301.501,64.282L301.164,65.107L300.827,64.291L295.372,69.746L293.263,67.637L299.067,61.842L299.058,61.842L296.1,58.823L304.177,58.823L304.177,66.9L301.501,64.282Z" style="fill:rgb(205,205,205);"/>
                        </g>
                    </g>
                </g>
            </g>
        </g>
    </g>
</svg>
