<?xml version="1.0" encoding="UTF-8" standalone="no"?>
<!DOCTYPE svg PUBLIC "-//W3C//DTD SVG 1.1//EN" "http://www.w3.org/Graphics/SVG/1.1/DTD/svg11.dtd">
<svg width="100%" height="100%" viewBox="0 0 9 9" version="1.1" xmlns="http://www.w3.org/2000/svg" xmlns:xlink="http://www.w3.org/1999/xlink" xml:space="preserve" xmlns:serif="http://www.serif.com/" style="fill-rule:evenodd;clip-rule:evenodd;stroke-linejoin:round;stroke-miterlimit:2;">
    <g transform="matrix(1,0,0,1,-12,-33)">
        <g transform="matrix(0.75,0,0,0.75,-596.75,192.5)">
            <g id="Dialog_TabClose_Disabled" transform="matrix(0.857143,0,0,0.857143,807.762,-213.905)">
                <g opacity="0.3">
                    <g id="Close-Icon" serif:id="Close Icon" transform="matrix(0.75,0,0,0.75,-619.194,186.944)">
                        <g id="Transparent-BG" serif:id="Transparent BG" transform="matrix(0.933333,0,0,0.933333,831.667,-247.333)">
                            <rect x="0" y="0" width="20" height="20" style="fill:none;"/>
                        </g>
                        <g transform="matrix(0.167917,-0.16757,13.4813,13.4534,-36057.4,-36776.6)">
                            <path d="M849.828,2725.99L845.812,2725.93L841.09,2725.99L841.086,2726.96L845.723,2727.01L849.829,2726.96L849.828,2725.99Z" style="fill:rgb(37,37,37);"/>
                        </g>
                        <g transform="matrix(-0.167917,-0.16757,-13.4813,13.4534,37739.4,-36776.6)">
                            <path d="M849.831,2725.99L845.859,2725.93L841.091,2725.99L841.086,2726.95L845.77,2727.01L849.832,2726.96L849.831,2725.99Z" style="fill:rgb(37,37,37);"/>
                        </g>
                        <g transform="matrix(0.167917,-0.16757,13.4813,13.4534,-36057.4,-36776.6)">
                            <path d="M849.828,2725.99L845.812,2725.93L841.09,2725.99L841.086,2726.96L845.723,2727.01L849.829,2726.96L849.828,2725.99Z" style="fill:rgb(37,37,37);"/>
                        </g>
                        <g transform="matrix(-0.167917,-0.16757,-13.4813,13.4534,37739.4,-36776.6)">
                            <path d="M849.831,2725.99L845.859,2725.93L841.091,2725.99L841.086,2726.95L845.77,2727.01L849.832,2726.96L849.831,2725.99Z" style="fill:rgb(37,37,37);"/>
                        </g>
                    </g>
                </g>
            </g>
        </g>
    </g>
</svg>
