<?xml version="1.0" encoding="UTF-8" standalone="no"?>
<!DOCTYPE svg PUBLIC "-//W3C//DTD SVG 1.1//EN" "http://www.w3.org/Graphics/SVG/1.1/DTD/svg11.dtd">
<svg width="100%" height="100%" viewBox="0 0 20 20" version="1.1" xmlns="http://www.w3.org/2000/svg" xmlns:xlink="http://www.w3.org/1999/xlink" xml:space="preserve" xmlns:serif="http://www.serif.com/" style="fill-rule:evenodd;clip-rule:evenodd;stroke-linejoin:round;stroke-miterlimit:2;">
    <g transform="matrix(1,0,0,1,-431,-28)">
        <g transform="matrix(0.75,0,0,0.75,-596.75,192.5)">
            <g id="Dialog_BottomTabExpand_Checked" transform="matrix(11.6671,0,0,1.63339,1146.83,-221.213)">
                <g id="Transparent-BG" serif:id="Transparent BG" transform="matrix(0.114282,0,0,0.816298,19.1568,1.15104)">
                    <rect x="0" y="0" width="20" height="20" style="fill:none;"/>
                </g>
                <g id="Expand_Bottom_Pane" transform="matrix(0.114282,0,0,1.09108,-71.1258,-1259.91)">
                    <g transform="matrix(1.05556,0,0,0.836173,-5704.83,-2712.44)">
                        <rect x="6153" y="4627" width="18" height="17" style="fill:rgb(249,255,255);fill-opacity:0;"/>
                    </g>
                    <g transform="matrix(-6.12323e-17,-0.748154,1,-4.58112e-17,-2132,1483.48)">
                        <g id="Previous-Region" serif:id="Previous Region">
                            <g id="Next-Region" serif:id="Next Region">
                                <g id="Base-Block" serif:id="Base Block" transform="matrix(1,0,0,1,380,2899)">
                                    <path d="M55,27.1C55,25.941 54.059,25 52.9,25L42.1,25C40.941,25 40,25.941 40,27.1L40,37.9C40,39.059 40.941,40 42.1,40L52.9,40C54.059,40 55,39.059 55,37.9L55,27.1Z" style="fill-opacity:0;"/>
                                </g>
                                <g transform="matrix(0.333333,0,0,4.33333,429.667,2881.67)">
                                    <rect x="10" y="10" width="3" height="3"/>
                                </g>
                                <g transform="matrix(1.83697e-16,3,-2,1.22465e-16,11400,-8506)">
                                    <rect x="3812" y="5486" width="1" height="4" style="fill:none;"/>
                                </g>
                                <g transform="matrix(1.10218e-16,1.8,-1.33333,8.16431e-17,7740.33,-3932.8)">
                                    <path d="M3813.5,5482L3816,5485L3811,5485L3813.5,5482Z"/>
                                </g>
                                <g transform="matrix(6.12323e-17,1,-1.5,9.18485e-17,8656,-881)">
                                    <rect x="3812" y="5486" width="1" height="4"/>
                                </g>
                            </g>
                        </g>
                    </g>
                </g>
            </g>
        </g>
    </g>
</svg>
