<?xml version="1.0" encoding="UTF-8" standalone="no"?>
<!DOCTYPE svg PUBLIC "-//W3C//DTD SVG 1.1//EN" "http://www.w3.org/Graphics/SVG/1.1/DTD/svg11.dtd">
<svg width="100%" height="100%" viewBox="0 0 15 15" version="1.1" xmlns="http://www.w3.org/2000/svg" xmlns:xlink="http://www.w3.org/1999/xlink" xml:space="preserve" xmlns:serif="http://www.serif.com/" style="fill-rule:evenodd;clip-rule:evenodd;stroke-linejoin:round;stroke-miterlimit:2;">
    <g transform="matrix(1,0,0,1,-10,-6)">
        <g transform="matrix(1,0,0,1,-654,-570)">
            <g id="UsedBy_One_Disabled" transform="matrix(1,0,0,-1,1072,2047)">
                <g opacity="0.3">
                    <g id="BG-Transparent" serif:id="BG Transparent" transform="matrix(1.5,0,0,1.66667,-1849.5,1401)">
                        <rect x="961" y="33" width="10" height="9" style="fill:none;"/>
                    </g>
                    <g transform="matrix(1.05614,0.597087,0.361139,-0.638792,-1746.98,1208.2)">
                        <rect x="1069" y="596" width="5" height="4" style="fill:rgb(205,205,205);"/>
                    </g>
                    <g transform="matrix(0.946556,-0.535133,0.371013,0.656257,-1635.72,1641.9)">
                        <rect x="1069" y="596" width="5" height="4" style="fill:rgb(205,205,205);"/>
                    </g>
                    <g transform="matrix(1,0,0,1.25,-1467,721)">
                        <path d="M1074,598C1074,596.896 1072.88,596 1071.5,596C1070.12,596 1069,596.896 1069,598C1069,599.104 1070.12,600 1071.5,600C1072.88,600 1074,599.104 1074,598Z" style="fill:rgb(205,205,205);"/>
                    </g>
                    <g transform="matrix(1.4,0,0,1.75,-1904.6,417)">
                        <path d="M1074,598C1074,596.896 1072.88,596 1071.5,596C1070.12,596 1069,596.896 1069,598C1069,599.104 1070.12,600 1071.5,600C1072.88,600 1074,599.104 1074,598Z" style="fill:rgb(205,205,205);"/>
                    </g>
                    <g transform="matrix(1,0,0,1.25,-1467,711)">
                        <path d="M1074,598C1074,596.896 1072.88,596 1071.5,596C1070.12,596 1069,596.896 1069,598C1069,599.104 1070.12,600 1071.5,600C1072.88,600 1074,599.104 1074,598Z" style="fill:rgb(205,205,205);"/>
                    </g>
                    <g transform="matrix(0.649214,0.367032,0.123036,-0.217629,-1168.59,1202.84)">
                        <rect x="1069" y="596" width="5" height="4" style="fill:rgb(37,37,37);"/>
                        <rect x="1069" y="596" width="5" height="4" style="fill:rgb(189,189,189);"/>
                    </g>
                    <g transform="matrix(0.676049,-0.382202,0.123036,0.217629,-1197.27,1740.14)">
                        <rect x="1069" y="596" width="5" height="4" style="fill:rgb(37,37,37);"/>
                        <rect x="1069" y="596" width="5" height="4" style="fill:rgb(37,37,37);"/>
                    </g>
                    <g transform="matrix(0.6,0,0,0.75,-1038.4,1020)">
                        <path d="M1074,598C1074,596.896 1072.88,596 1071.5,596C1070.12,596 1069,596.896 1069,598C1069,599.104 1070.12,600 1071.5,600C1072.88,600 1074,599.104 1074,598Z" style="fill:rgb(37,37,37);"/>
                        <path d="M1074,598C1074,596.896 1072.88,596 1071.5,596C1070.12,596 1069,596.896 1069,598C1069,599.104 1070.12,600 1071.5,600C1072.88,600 1074,599.104 1074,598ZM1072.33,598C1072.33,597.632 1071.96,597.333 1071.5,597.333C1071.04,597.333 1070.67,597.632 1070.67,598C1070.67,598.368 1071.04,598.667 1071.5,598.667C1071.96,598.667 1072.33,598.368 1072.33,598Z" style="fill:rgb(37,37,37);"/>
                    </g>
                    <g transform="matrix(1,0,0,1.25,-1476,716)">
                        <path d="M1074,598C1074,596.896 1072.88,596 1071.5,596C1070.12,596 1069,596.896 1069,598C1069,599.104 1070.12,600 1071.5,600C1072.88,600 1074,599.104 1074,598Z" style="fill:rgb(37,37,37);"/>
                        <path d="M1074,598C1074,596.896 1072.88,596 1071.5,596C1070.12,596 1069,596.896 1069,598C1069,599.104 1070.12,600 1071.5,600C1072.88,600 1074,599.104 1074,598ZM1073,598C1073,597.338 1072.33,596.8 1071.5,596.8C1070.67,596.8 1070,597.338 1070,598C1070,598.662 1070.67,599.2 1071.5,599.2C1072.33,599.2 1073,598.662 1073,598Z" style="fill:rgb(37,37,37);"/>
                    </g>
                    <g transform="matrix(0.6,0,0,0.75,-1038.4,1010)">
                        <path d="M1074,598C1074,596.896 1072.88,596 1071.5,596C1070.12,596 1069,596.896 1069,598C1069,599.104 1070.12,600 1071.5,600C1072.88,600 1074,599.104 1074,598Z" style="fill:rgb(37,37,37);"/>
                        <path d="M1074,598C1074,596.896 1072.88,596 1071.5,596C1070.12,596 1069,596.896 1069,598C1069,599.104 1070.12,600 1071.5,600C1072.88,600 1074,599.104 1074,598ZM1072.33,598C1072.33,597.632 1071.96,597.333 1071.5,597.333C1071.04,597.333 1070.67,597.632 1070.67,598C1070.67,598.368 1071.04,598.667 1071.5,598.667C1071.96,598.667 1072.33,598.368 1072.33,598Z" style="fill:rgb(37,37,37);"/>
                    </g>
                </g>
            </g>
        </g>
    </g>
</svg>
