<?xml version="1.0" encoding="UTF-8" standalone="no"?><!DOCTYPE svg PUBLIC "-//W3C//DTD SVG 1.1//EN" "http://www.w3.org/Graphics/SVG/1.1/DTD/svg11.dtd"><svg width="100%" height="100%" viewBox="0 0 134 100" version="1.1" xmlns="http://www.w3.org/2000/svg" xmlns:xlink="http://www.w3.org/1999/xlink" xml:space="preserve" xmlns:serif="http://www.serif.com/" style="fill-rule:evenodd;clip-rule:evenodd;stroke-linejoin:round;stroke-miterlimit:2;"><g id="Titlebar_WwiseAppIcon"><rect id="Transparent-BG" serif:id="Transparent BG" x="0" y="0" width="133.333" height="100" style="fill:none;"/><rect x="29.219" y="8.333" width="79.167" height="79.167" style="fill:#fff;fill-opacity:0;"/><path d="M70.94,59.575c0.014,2.209 1.054,4.184 2.719,5.424c1.655,1.378 2.714,3.472 2.714,5.805c-0,4.178 -3.382,7.555 -7.551,7.555l-0.129,0c-4.178,0 -7.565,-3.377 -7.565,-7.555c0,-2.333 1.074,-4.427 2.729,-5.805c1.65,-1.24 2.733,-3.215 2.714,-5.424l-0,-0.529c-0.015,-2.228 -1.064,-4.207 -2.714,-5.433c-1.655,-1.388 -2.729,-3.477 -2.729,-5.814c0,-4.179 3.387,-7.556 7.565,-7.556l0.129,0c4.169,0 7.551,3.377 7.551,7.556c-0,2.337 -1.059,4.426 -2.714,5.814c-1.665,1.226 -2.733,3.205 -2.719,5.433l-0,0.529Z" style="fill:#fff;fill-rule:nonzero;"/><path d="M76.374,24.996c-0,4.207 -3.411,7.623 -7.622,7.623c-4.203,-0 -7.623,-3.416 -7.623,-7.623c0,-4.207 3.42,-7.622 7.623,-7.622c4.211,0 7.622,3.415 7.622,7.622" style="fill:#fff;fill-rule:nonzero;"/><path d="M87.553,48.14c0.014,2.208 1.054,4.188 2.714,5.428c1.655,1.374 2.719,3.467 2.719,5.8c-0,4.183 -3.382,7.555 -7.551,7.555l-0.133,0c-4.174,0 -7.561,-3.372 -7.561,-7.555c0,-2.333 1.074,-4.426 2.729,-5.8c1.65,-1.24 2.728,-3.22 2.714,-5.428l-0,-0.53c-0.015,-2.227 -1.064,-4.207 -2.714,-5.433c-1.655,-1.388 -2.729,-3.477 -2.729,-5.809c0,-4.183 3.387,-7.561 7.561,-7.561l0.133,0c4.169,0 7.551,3.378 7.551,7.561c-0,2.332 -1.064,4.421 -2.719,5.809c-1.66,1.226 -2.733,3.206 -2.714,5.433l-0,0.53Z" style="fill:#fff;fill-rule:nonzero;"/><path d="M49.955,48.14c-0.014,2.208 -1.058,4.188 -2.718,5.428c-1.656,1.374 -2.719,3.467 -2.719,5.8c-0,4.183 3.382,7.555 7.555,7.555l0.129,0c4.178,0 7.565,-3.372 7.565,-7.555c0,-2.333 -1.073,-4.426 -2.728,-5.8c-1.651,-1.24 -2.733,-3.22 -2.714,-5.428l-0,-0.53c0.014,-2.227 1.063,-4.207 2.714,-5.433c1.655,-1.388 2.728,-3.477 2.728,-5.809c0,-4.183 -3.387,-7.561 -7.565,-7.561l-0.129,0c-4.173,0 -7.555,3.378 -7.555,7.561c-0,2.332 1.063,4.421 2.719,5.809c1.66,1.226 2.733,3.206 2.718,5.433l0,0.53Z" style="fill:#fff;fill-rule:nonzero;"/><path d="M104.527,47.865c-0,2.795 -2.266,5.066 -5.066,5.066c-2.79,-0 -5.061,-2.271 -5.061,-5.066c0,-2.795 2.271,-5.061 5.061,-5.061c2.8,0 5.066,2.266 5.066,5.061" style="fill:#fff;fill-rule:nonzero;"/><path d="M43.104,47.865c-0,2.795 -2.266,5.066 -5.061,5.066c-2.795,-0 -5.066,-2.271 -5.066,-5.066c0,-2.795 2.271,-5.061 5.066,-5.061c2.795,0 5.061,2.266 5.061,5.061" style="fill:#fff;fill-rule:nonzero;"/></g></svg>