<?xml version="1.0" encoding="UTF-8" standalone="no"?><!DOCTYPE svg PUBLIC "-//W3C//DTD SVG 1.1//EN" "http://www.w3.org/Graphics/SVG/1.1/DTD/svg11.dtd"><svg width="100%" height="100%" viewBox="0 0 19 19" version="1.1" xmlns="http://www.w3.org/2000/svg" xmlns:xlink="http://www.w3.org/1999/xlink" xml:space="preserve" xmlns:serif="http://www.serif.com/" style="fill-rule:evenodd;clip-rule:evenodd;stroke-linejoin:round;stroke-miterlimit:2;"><g id="Transport_StateGroup_Pressed"><g id="Icons"><g id="Base-Block" serif:id="Base Block"><path d="M19,2.66c-0,-1.468 -1.192,-2.66 -2.66,-2.66l-13.68,-0c-1.468,-0 -2.66,1.192 -2.66,2.66l-0,13.68c-0,1.468 1.192,2.66 2.66,2.66l13.68,-0c1.468,-0 2.66,-1.192 2.66,-2.66l-0,-13.68Z" style="fill-opacity:0;"/></g><path d="M9,8c2,-0.048 3,-0.965 3,-2.464c-0,-1.501 -1,-2.536 -3,-2.536l-0,5Zm4,-2.499c-0,1.933 -1.567,3.5 -3.5,3.5c-1.933,0 -3.5,-1.567 -3.5,-3.5c-0,-1.934 1.567,-3.501 3.5,-3.501c1.933,-0 3.5,1.567 3.5,3.501" style="fill:#fff;fill-rule:nonzero;"/><path d="M5,15.974c1.685,-0 3,-1.188 3,-2.585c-0,-1.399 -1.5,-2.389 -3,-2.389l-0,4.974Zm4,-2.473c-0,1.933 -1.567,3.499 -3.5,3.499c-1.933,-0 -3.5,-1.566 -3.5,-3.499c-0,-1.933 1.567,-3.5 3.5,-3.5c1.933,0 3.5,1.567 3.5,3.5" style="fill:#fff;fill-rule:nonzero;"/><path d="M13,16c1.5,-0 3,-0.771 3,-2.534c-0,-1.61 -1.5,-2.466 -3,-2.466l-0,5Zm4,-2.5c-0,1.933 -1.567,3.5 -3.5,3.5c-1.933,-0 -3.5,-1.567 -3.5,-3.5c-0,-1.933 1.567,-3.5 3.5,-3.5c1.933,-0 3.5,1.567 3.5,3.5" style="fill:#fff;fill-rule:nonzero;"/></g></g></svg>