<?xml version="1.0" encoding="UTF-8" standalone="no"?>
<!DOCTYPE svg PUBLIC "-//W3C//DTD SVG 1.1//EN" "http://www.w3.org/Graphics/SVG/1.1/DTD/svg11.dtd">
<svg width="100%" height="100%" viewBox="0 0 4 11" version="1.1" xmlns="http://www.w3.org/2000/svg" xmlns:xlink="http://www.w3.org/1999/xlink" xml:space="preserve" xmlns:serif="http://www.serif.com/" style="fill-rule:evenodd;clip-rule:evenodd;stroke-linejoin:round;stroke-miterlimit:2;">
    <g transform="matrix(1,0,0,1,-70,-6)">
        <g transform="matrix(1,0,0,1,19,18)">
            <g id="ProjectExplorer_Unlink_On_Normal" transform="matrix(0.8,0,0,0.846154,22.2,-16.2308)">
                <g transform="matrix(1,0,0,0.281385,24,10.684)">
                    <path d="M17,5L12,5L12,19.28C12,22.989 12.896,26 14,26L15,26C16.104,26 17,22.989 17,19.28L17,5Z" style="fill:rgb(253,169,96);"/>
                    <path d="M17,5L12,5L12,19.28C12,22.989 12.896,26 14,26L15,26C16.104,26 17,22.989 17,19.28L17,5ZM15.75,9.2L15.75,19.28C15.75,20.671 15.414,21.8 15,21.8L14,21.8C13.586,21.8 13.25,20.671 13.25,19.28L13.25,9.2L15.75,9.2Z" style="fill:rgb(57,57,57);"/>
                </g>
                <g transform="matrix(1,0,0,0.281385,24,3.59307)">
                    <path d="M17,11.72C17,8.011 16.104,5 15,5L14,5C12.896,5 12,8.011 12,11.72L12,26L17,26L17,11.72Z" style="fill:rgb(253,169,96);"/>
                    <path d="M17,11.72C17,8.011 16.104,5 15,5L14,5C12.896,5 12,8.011 12,11.72L12,26L17,26L17,11.72ZM15.75,11.72L15.75,21.8C15.75,21.8 13.25,21.8 13.25,21.8C13.25,21.8 13.25,11.72 13.25,11.72C13.25,10.329 13.586,9.2 14,9.2L15,9.2C15.414,9.2 15.75,10.329 15.75,11.72Z" style="fill:rgb(57,57,57);"/>
                </g>
            </g>
        </g>
    </g>
</svg>
