<?xml version="1.0" encoding="UTF-8" standalone="no"?>
<!DOCTYPE svg PUBLIC "-//W3C//DTD SVG 1.1//EN" "http://www.w3.org/Graphics/SVG/1.1/DTD/svg11.dtd">
<svg width="100%" height="100%" viewBox="0 0 12 12" version="1.1" xmlns="http://www.w3.org/2000/svg" xmlns:xlink="http://www.w3.org/1999/xlink" xml:space="preserve" xmlns:serif="http://www.serif.com/" style="fill-rule:evenodd;clip-rule:evenodd;stroke-linejoin:round;stroke-miterlimit:2;">
    <g transform="matrix(1,0,0,1,-26,-6)">
        <g transform="matrix(1,0,0,1,19,18)">
            <g id="ProjectExplorer_Checkbox_Mixed_Pressed" transform="matrix(1.23077,0,0,1.23077,-574.692,366.308)">
                <g id="Checkbox" transform="matrix(0.121875,0,0,0.573529,414.856,-453.625)">
                    <path d="M554,256.7C554,255.762 550.415,255 546,255L482,255C477.585,255 474,255.762 474,256.7L474,270.3C474,271.238 477.585,272 482,272L546,272C550.415,272 554,271.238 554,270.3L554,256.7Z" style="fill:rgb(90,90,90);"/>
                </g>
                <g id="Checkbox1" serif:id="Checkbox" transform="matrix(0.101562,0,0,0.477941,425.297,-428.438)">
                    <path d="M554,256.7C554,255.762 550.415,255 546,255L482,255C477.585,255 474,255.762 474,256.7L474,270.3C474,271.238 477.585,272 482,272L546,272C550.415,272 554,271.238 554,270.3L554,256.7Z" style="fill:white;"/>
                </g>
                <g transform="matrix(0.8125,0,0,0.8125,453.125,-331.75)">
                    <rect x="27" y="35" width="6" height="2"/>
                </g>
            </g>
        </g>
    </g>
</svg>
