<?xml version="1.0" encoding="UTF-8" standalone="no"?>
<!DOCTYPE svg PUBLIC "-//W3C//DTD SVG 1.1//EN" "http://www.w3.org/Graphics/SVG/1.1/DTD/svg11.dtd">
<svg width="100%" height="100%" viewBox="0 0 4 11" version="1.1" xmlns="http://www.w3.org/2000/svg" xmlns:xlink="http://www.w3.org/1999/xlink" xml:space="preserve" xmlns:serif="http://www.serif.com/" style="fill-rule:evenodd;clip-rule:evenodd;stroke-linejoin:round;stroke-miterlimit:2;">
    <g transform="matrix(1,0,0,1,-52,-21)">
        <g transform="matrix(1,0,0,1,19,18)">
            <g id="ProjectExplorer_Unlink_Off_Disabled" transform="matrix(0.8,0,0,0.846154,4.2,-1.23077)">
                <g transform="matrix(1,0,0,0.619048,24,1.90476)">
                    <path d="M17,7.749C17,6.232 16.193,5 15.2,5L13.8,5C12.807,5 12,6.232 12,7.749L12,23.251C12,24.768 12.807,26 13.8,26L15.2,26C16.193,26 17,24.768 17,23.251L17,7.749Z" style="fill:rgb(54,54,54);"/>
                </g>
                <g transform="matrix(0.5,0,0,0.225108,31.25,10.9654)">
                    <path d="M17,5L12,5L12,21.8C12,24.118 12.896,26 14,26L15,26C16.104,26 17,24.118 17,21.8L17,5Z" style="fill:rgb(39,39,39);"/>
                </g>
                <g transform="matrix(0.5,0,0,0.225108,31.25,5.05628)">
                    <path d="M17,9.2C17,6.882 16.104,5 15,5L14,5C12.896,5 12,6.882 12,9.2L12,26L17,26L17,9.2Z" style="fill:rgb(39,39,39);"/>
                </g>
            </g>
        </g>
    </g>
</svg>
