<?xml version="1.0" encoding="UTF-8" standalone="no"?><!DOCTYPE svg PUBLIC "-//W3C//DTD SVG 1.1//EN" "http://www.w3.org/Graphics/SVG/1.1/DTD/svg11.dtd"><svg width="100%" height="100%" viewBox="0 0 84 84" version="1.1" xmlns="http://www.w3.org/2000/svg" xmlns:xlink="http://www.w3.org/1999/xlink" xml:space="preserve" xmlns:serif="http://www.serif.com/" style="fill-rule:evenodd;clip-rule:evenodd;stroke-linejoin:round;stroke-miterlimit:2;"><g id="ControlSurface_Activate_Pressed"><rect id="Transparent-BG" serif:id="Transparent BG" x="0" y="0" width="83.333" height="83.333" style="fill:none;"/><path d="M75,33.333l-62.5,0l0,37.5l62.5,0l0,-37.5Zm-45.833,20.834l-8.334,-0l0,8.333l8.334,-0l-0,-8.333Zm12.5,-0l-8.334,-0l0,8.333l8.334,-0l-0,-8.333Zm12.5,-0l-8.334,-0l0,8.333l8.334,-0l-0,-8.333Zm12.5,-0l-8.334,-0l0,8.333l8.334,-0l-0,-8.333Zm-37.5,-12.5l-8.334,-0l0,8.333l8.334,-0l-0,-8.333Zm12.5,-0l-8.334,-0l0,8.333l8.334,-0l-0,-8.333Zm12.5,-0l-8.334,-0l0,8.333l8.334,-0l-0,-8.333Zm12.5,-0l-8.334,-0l0,8.333l8.334,-0l-0,-8.333Z" style="fill:#fff;"/><path d="M79.167,33.333c-0,-2.301 -1.866,-4.166 -4.167,-4.166l-62.5,-0c-2.301,-0 -4.167,1.865 -4.167,4.166l0,37.5c0,2.302 1.866,4.167 4.167,4.167l62.5,-0c2.301,-0 4.167,-1.865 4.167,-4.167l-0,-37.5Zm-4.167,0l-62.5,0l0,37.5l62.5,0l0,-37.5Zm-45.833,20.834l-8.334,-0l0,8.333l8.334,-0l-0,-8.333Zm12.5,-0l-8.334,-0l0,8.333l8.334,-0l-0,-8.333Zm12.5,-0l-8.334,-0l0,8.333l8.334,-0l-0,-8.333Zm12.5,-0l-8.334,-0l0,8.333l8.334,-0l-0,-8.333Zm-37.5,-12.5l-8.334,-0l0,8.333l8.334,-0l-0,-8.333Zm12.5,-0l-8.334,-0l0,8.333l8.334,-0l-0,-8.333Zm12.5,-0l-8.334,-0l0,8.333l8.334,-0l-0,-8.333Zm12.5,-0l-8.334,-0l0,8.333l8.334,-0l-0,-8.333Z" style="fill:#222;"/><path d="M62.5,25l-37.5,-0l18.543,-16.667l18.957,16.667Z" style="fill:#fff;"/><path d="M62.5,29.167c1.734,-0 3.287,-1.074 3.899,-2.697c0.612,-1.622 0.154,-3.454 -1.148,-4.599l-18.957,-16.667c-1.586,-1.395 -3.965,-1.382 -5.536,0.03l-18.543,16.667c-1.284,1.154 -1.723,2.979 -1.106,4.59c0.618,1.612 2.165,2.676 3.891,2.676l37.5,-0Zm-0,-4.167l-37.5,-0l18.543,-16.667l18.957,16.667Z" style="fill:#222;"/></g></svg>