<?xml version="1.0" encoding="UTF-8" standalone="no"?>
<!DOCTYPE svg PUBLIC "-//W3C//DTD SVG 1.1//EN" "http://www.w3.org/Graphics/SVG/1.1/DTD/svg11.dtd">
<svg width="100%" height="100%" viewBox="0 0 19 19" version="1.1" xmlns="http://www.w3.org/2000/svg" xmlns:xlink="http://www.w3.org/1999/xlink" xml:space="preserve" xmlns:serif="http://www.serif.com/" style="fill-rule:evenodd;clip-rule:evenodd;stroke-linejoin:round;stroke-miterlimit:2;">
    <g transform="matrix(1,0,0,1,-53,-4)">
        <g id="Filter_MuteSolo_Checked" transform="matrix(1,0,0,1,28,-1)">
            <g id="Base-Icon" serif:id="Base Icon">
                <g id="Transparent-BG" serif:id="Transparent BG" transform="matrix(0.95,0,0,0.95,25,5)">
                    <rect x="0" y="0" width="20" height="20" style="fill:white;fill-opacity:0;"/>
                </g>
                <g transform="matrix(0.272546,0,0,0.275407,-148.077,-49.822)">
                    <path d="M673.015,253.523L680.291,253.523C680.331,256.873 685.613,258.265 687.982,258.43C691.912,258.478 694.134,256.612 694.325,254.182C694.325,253.286 694.166,252.217 693.559,251.734C691.222,249.876 688.074,249.496 685.141,248.747C681.368,247.787 678.125,246.722 676.712,245.322C674.726,243.353 673.771,240.828 673.733,238.176C673.65,232.544 680.266,228.249 686.711,228.117C690.772,228.117 695.38,229.039 697.591,230.883C699.803,232.728 700.965,235.92 701.076,238.999L694.036,238.999C693.643,235.544 691.162,234.493 686.64,234.668C684.594,234.668 681.321,236.556 681.321,238.855C681.321,241.553 684.808,241.816 688.233,242.609C691.658,243.403 694.008,243.77 695.692,244.618C697.415,245.43 698.834,246.795 699.733,248.315C700.685,249.785 701.076,251.194 701.076,253.356C701.076,255.316 700.589,258.191 699.45,259.981C698.311,261.771 696.616,262.713 694.533,263.584C692.449,264.454 689.853,264.416 686.744,264.416C682.22,264.416 678.745,263.37 676.32,261.279C673.576,259.148 673.015,255.606 673.015,253.523Z" style="fill:white;fill-rule:nonzero;"/>
                </g>
                <g transform="matrix(1.07692,0,0,1.15385,-7.38462,-2.07692)">
                    <path d="M34.972,18.258L31,18.267L31,7L43.071,7L43.071,11.333C41.957,11.329 40.826,11.335 40.286,11.658L40.286,8.733L38.102,8.733L36.554,11.133L35.218,8.733L32.857,8.733L32.857,15.667L34.714,15.667L34.714,12L36.571,13.933L38.459,12.035L38.449,12.529C38.449,12.529 38.406,15.496 38.429,15.667L34.972,18.258Z" style="fill:white;"/>
                </g>
            </g>
        </g>
    </g>
</svg>
