<?xml version="1.0" encoding="UTF-8" standalone="no"?>
<!DOCTYPE svg PUBLIC "-//W3C//DTD SVG 1.1//EN" "http://www.w3.org/Graphics/SVG/1.1/DTD/svg11.dtd">
<svg width="100%" height="100%" viewBox="0 0 19 19" version="1.1" xmlns="http://www.w3.org/2000/svg" xmlns:xlink="http://www.w3.org/1999/xlink" xml:space="preserve" xmlns:serif="http://www.serif.com/" style="fill-rule:evenodd;clip-rule:evenodd;stroke-linejoin:round;stroke-miterlimit:2;">
    <g transform="matrix(1,0,0,1,-5,-4)">
        <g id="Filter_Toggle_Disabled" transform="matrix(1,0,0,1,5,4)">
            <g opacity="0.3">
                <g id="Close-Icon" serif:id="Close Icon" transform="matrix(0.75,0,0,0.75,-620.75,188.5)">
                    <g id="Transparent-BG" serif:id="Transparent BG" transform="matrix(1.26667,0,0,1.26667,827.667,-251.333)">
                        <rect x="0" y="0" width="20" height="20" style="fill:white;fill-opacity:0;"/>
                    </g>
                    <g id="filter" transform="matrix(2.19074,0,0,1.98095,820.52,-253.086)">
                        <path d="M4.479,2.231L4.479,3.566L8.131,7.615L8.131,11.654L9.348,13L9.348,7.615L13,3.577L13,2.231L4.479,2.231Z" style="fill:white;fill-opacity:0.45;"/>
                        <path d="M4.479,1.558C4.143,1.558 3.871,1.859 3.871,2.231L3.871,3.566C3.871,3.744 3.935,3.915 4.048,4.041L7.522,7.894C7.522,7.894 7.522,11.654 7.522,11.654C7.522,11.832 7.587,12.004 7.701,12.13L8.918,13.476C9.092,13.668 9.354,13.726 9.581,13.622C9.809,13.518 9.957,13.272 9.957,13L9.957,7.894C9.957,7.894 13.43,4.053 13.43,4.053C13.544,3.927 13.609,3.755 13.609,3.577L13.609,2.231C13.609,1.859 13.336,1.558 13,1.558L4.479,1.558ZM4.479,2.231L4.479,3.566L8.131,7.615L8.131,11.654L9.348,13L9.348,7.615L13,3.577L13,2.231L4.479,2.231Z" style="fill:rgb(58,58,58);fill-opacity:0.45;"/>
                    </g>
                </g>
                <g id="Star-Small" serif:id="Star Small" transform="matrix(0.628572,0,0,0.628572,-227.045,-29.82)">
                    <g opacity="0">
                        <g transform="matrix(1.02941,0,0,1.02941,-19.3005,-13.2943)">
                            <rect x="382" y="59" width="17" height="17" style="fill:white;fill-opacity:0;"/>
                        </g>
                        <g transform="matrix(1.59091,0,0,1.59091,-3294.7,-324.832)">
                            <path d="M2315,243L2312.96,239.535L2316,238.132L2316,238L2312.46,237.977L2311.59,235L2311.39,235L2310.6,238.003L2306.69,238.003L2309.41,239.535L2307.7,243.303L2311.49,241.132L2315,243Z" style="fill:rgb(58,58,58);"/>
                            <path d="M2311.79,235.694L2312.46,237.977L2316,238L2316,238.132L2312.96,239.535L2315,243L2311.49,241.132L2307.7,243.303L2309.41,239.535L2306.69,238.003L2310.6,238.003L2311.2,235.713L2310.63,235.282L2310.78,235.786C2310.71,235.735 2310.65,235.676 2310.6,235.61C2310.41,235.364 2310.35,235.044 2310.43,234.744L2309.83,237.003C2309.83,237.003 2306.69,237.003 2306.69,237.003C2306.24,237.003 2305.84,237.31 2305.73,237.75C2305.61,238.189 2305.81,238.651 2306.2,238.874L2308.12,239.956C2308.12,239.956 2306.78,242.888 2306.78,242.888C2306.61,243.283 2306.7,243.749 2307.02,244.042C2307.34,244.334 2307.81,244.386 2308.19,244.171L2311.51,242.274C2311.51,242.274 2314.53,243.883 2314.53,243.883C2314.93,244.093 2315.41,244.015 2315.72,243.692C2316.03,243.369 2316.09,242.879 2315.86,242.493L2314.39,239.98C2314.39,239.98 2316.42,239.04 2316.42,239.04L2316.26,239.076C2316.55,238.983 2317,238.741 2317,238.129L2317,237.924C2316.96,237.41 2316.53,237.003 2316.01,237L2313.21,236.982C2313.21,236.982 2312.55,234.718 2312.55,234.718L2311.85,235.649L2311.79,235.694ZM2311.21,235.687L2311.39,235L2311.59,235L2311.77,235.628C2312.03,235.049 2312.39,234 2311.55,234L2311.4,234C2310.42,234 2310.91,235.124 2311.21,235.687Z" style="fill:rgb(58,58,58);"/>
                        </g>
                        <g transform="matrix(1.07692,0,0,1.07692,-41.0964,-15.0269)">
                            <path d="M393.5,58.97L394.943,63.92L400.57,63.92L395.674,66.182L398.681,71.301L393.5,68.352L388.34,71.301L391.326,66.182L386.409,63.92L392.176,63.92L393.5,58.97Z" style="fill:rgb(255,159,57);"/>
                        </g>
                    </g>
                </g>
            </g>
        </g>
    </g>
</svg>
