<?xml version="1.0" encoding="UTF-8" standalone="no"?>
<!DOCTYPE svg PUBLIC "-//W3C//DTD SVG 1.1//EN" "http://www.w3.org/Graphics/SVG/1.1/DTD/svg11.dtd">
<svg width="100%" height="100%" viewBox="0 0 20 20" version="1.1" xmlns="http://www.w3.org/2000/svg" xmlns:xlink="http://www.w3.org/1999/xlink" xml:space="preserve" xmlns:serif="http://www.serif.com/" style="fill-rule:evenodd;clip-rule:evenodd;stroke-linejoin:round;stroke-miterlimit:2;">
    <g transform="matrix(1,0,0,1,-30,-4)">
        <g id="General_Edit_Disabled" transform="matrix(1,0,0,1,6,2.70894e-13)">
            <g id="Transparent-BG" serif:id="Transparent BG" transform="matrix(1,0,0,1,24,4)">
                <rect x="0" y="0" width="20" height="20" style="fill:white;fill-opacity:0;"/>
            </g>
            <g transform="matrix(0.722122,0,0,0.722122,25.8336,4.83544)">
                <path d="M1.616,18.484L1.615,22.385L5.465,22.384L16.425,11.425L12.6,7.5L1.616,18.484ZM20.774,7.104C21.164,6.714 21.164,6.084 20.774,5.694L18.298,3.218C17.908,2.828 17.278,2.828 16.888,3.218L14.622,5.485L18.507,9.37L20.774,7.104Z" style="fill:white;fill-rule:nonzero;"/>
            </g>
        </g>
    </g>
</svg>
