<?xml version="1.0" encoding="UTF-8" standalone="no"?>
<!DOCTYPE svg PUBLIC "-//W3C//DTD SVG 1.1//EN" "http://www.w3.org/Graphics/SVG/1.1/DTD/svg11.dtd">
<svg width="100%" height="100%" viewBox="0 0 20 20" version="1.1" xmlns="http://www.w3.org/2000/svg" xmlns:xlink="http://www.w3.org/1999/xlink" xml:space="preserve" xmlns:serif="http://www.serif.com/" style="fill-rule:evenodd;clip-rule:evenodd;stroke-linejoin:round;stroke-miterlimit:2;">
    <g transform="matrix(1,0,0,1,-156,-26)">
        <g id="General_FolderWithTriangle_Normal" transform="matrix(1,0,0,1,108,23)">
            <g id="Transparent-BG" serif:id="Transparent BG" transform="matrix(1,0,0,1,48,3)">
                <rect x="0" y="0" width="20" height="20" style="fill:white;fill-opacity:0;"/>
            </g>
            <g transform="matrix(1.18182,0,0,1.22222,-478.455,-162.889)">
                <path d="M453.077,139.818L459,139.818L459,148L448,148L448,142.273L451.713,142.273L453.077,140.818L453.077,139.818ZM452.231,140.636L451.385,141.455L448,141.455L448,139L452.231,139L452.231,140.636Z" style="fill:white;"/>
            </g>
            <g transform="matrix(1.73001,7.10305e-17,-7.10305e-17,-1.15,-254.548,44.15)">
                <path d="M185,19L186,21L184,21L185,19Z" style="fill:white;"/>
            </g>
        </g>
    </g>
</svg>
