<?xml version="1.0" encoding="UTF-8" standalone="no"?>
<!DOCTYPE svg PUBLIC "-//W3C//DTD SVG 1.1//EN" "http://www.w3.org/Graphics/SVG/1.1/DTD/svg11.dtd">
<svg width="100%" height="100%" viewBox="0 0 20 20" version="1.1" xmlns="http://www.w3.org/2000/svg" xmlns:xlink="http://www.w3.org/1999/xlink" xml:space="preserve" xmlns:serif="http://www.serif.com/" style="fill-rule:evenodd;clip-rule:evenodd;stroke-linejoin:round;stroke-miterlimit:2;">
    <g transform="matrix(1,0,0,1,-256,-26)">
        <g id="General_EyeWithTriangle_Pressed" transform="matrix(1,0,0,1,208,22)">
            <g id="Transparent-BG" serif:id="Transparent BG" transform="matrix(1,0,0,1,48,4)">
                <rect x="0" y="0" width="20" height="20" style="fill:white;fill-opacity:0;"/>
            </g>
            <g id="Eye" transform="matrix(0.625,0,0,0.625,50,8)">
                <g transform="matrix(1.6,0,0,1.6,-412.8,-48)">
                    <path d="M265,30C261.364,30 258.258,32.281 257,35.5C258.258,38.719 261.364,41 265,41C268.636,41 271.742,38.719 273,35.5C271.742,32.281 268.636,30 265,30ZM264.986,31.47C267.218,31.47 269.03,33.276 269.03,35.5C269.03,37.724 267.218,39.53 264.986,39.53C262.754,39.53 260.942,37.724 260.942,35.5C260.942,33.276 262.754,31.47 264.986,31.47ZM263.762,33C264.449,33 265.007,33.558 265.007,34.245C265.007,34.933 264.449,35.491 263.762,35.491C263.075,35.491 262.517,34.933 262.517,34.245C262.517,33.558 263.075,33 263.762,33Z" style="fill:white;fill-rule:nonzero;"/>
                </g>
                <g transform="matrix(2.76801,1.12995e-16,-1.12995e-16,-1.84534,-488.882,59.5522)">
                    <path d="M185,19L186,21L184,21L185,19Z" style="fill:white;"/>
                </g>
            </g>
        </g>
    </g>
</svg>
