<?xml version="1.0" encoding="UTF-8" standalone="no"?>
<!DOCTYPE svg PUBLIC "-//W3C//DTD SVG 1.1//EN" "http://www.w3.org/Graphics/SVG/1.1/DTD/svg11.dtd">
<svg width="100%" height="100%" viewBox="0 0 20 20" version="1.1" xmlns="http://www.w3.org/2000/svg" xmlns:xlink="http://www.w3.org/1999/xlink" xml:space="preserve" xmlns:serif="http://www.serif.com/" style="fill-rule:evenodd;clip-rule:evenodd;stroke-linejoin:round;stroke-miterlimit:2;">
    <g transform="matrix(1,0,0,1,-314,-26)">
        <g id="General_AddWithTriangle_Pressed" transform="matrix(1,0,0,1,266,22)">
            <g id="Transparent-BG" serif:id="Transparent BG" transform="matrix(1,0,0,1,48,4)">
                <rect x="0" y="0" width="20" height="20" style="fill:white;fill-opacity:0;"/>
            </g>
            <g transform="matrix(1,0,0,1,-266,-25)">
                <path d="M325,35L325,29L322,29L322,35L316,35L316,38L322,38L322,44L325,44L325,38L331,38L331,35L325,35Z" style="fill:white;"/>
            </g>
            <g transform="matrix(1.73001,7.06216e-17,-7.06216e-17,-1.15334,-255.548,43.2201)">
                <path d="M185,19L186,21L184,21L185,19Z" style="fill:white;"/>
            </g>
        </g>
    </g>
</svg>
