<?xml version="1.0" encoding="UTF-8" standalone="no"?>
<!DOCTYPE svg PUBLIC "-//W3C//DTD SVG 1.1//EN" "http://www.w3.org/Graphics/SVG/1.1/DTD/svg11.dtd">
<svg width="100%" height="100%" viewBox="0 0 19 19" version="1.1" xmlns="http://www.w3.org/2000/svg" xmlns:xlink="http://www.w3.org/1999/xlink" xml:space="preserve" xmlns:serif="http://www.serif.com/" style="fill-rule:evenodd;clip-rule:evenodd;stroke-linejoin:round;stroke-miterlimit:2;">
    <g transform="matrix(1,0,0,1,-29,-4)">
        <g id="Filter_Unlink_Checked" transform="matrix(2.28048,0,0,3.27478,-298.674,-964.872)">
            <g transform="matrix(0.490092,0,0,0.341289,-26.8659,-49.1847)">
                <rect x="348" y="1011" width="17" height="17" style="fill-opacity:0;"/>
            </g>
            <g transform="matrix(1,0,0,1,-14.4706,-35.7275)">
                <g id="Group">
                    <g id="Unlink-Checked" serif:id="Unlink Checked">
                        <path d="M160.891,333.112L160.24,333.112C159.332,333.112 158.595,333.81 158.595,334.652C158.595,335.494 159.332,336.166 160.24,336.166L161.665,336.166L161.665,335.555L160.24,335.555C159.677,335.555 159.418,335.074 159.418,334.652C159.418,334.23 159.677,333.723 160.24,333.723L161.665,333.723L161.665,333.652L160.891,333.112ZM164.399,335.555L162.98,335.555L162.98,336.166L164.406,336.166C164.647,336.166 164.877,336.119 165.083,336.032L164.399,335.555ZM162.98,333.627L163.118,333.723L164.406,333.723C164.968,333.723 165.228,334.23 165.228,334.652C165.228,334.808 165.192,334.972 165.119,335.116L165.735,335.545C165.933,335.297 166.05,334.989 166.05,334.652C166.05,333.804 165.437,333.112 164.406,333.112L162.98,333.112L162.98,333.627ZM162.645,334.334L160.788,334.334L160.788,334.945L163.522,334.945L162.645,334.334Z"/>
                        <g transform="matrix(0.45185,0.314658,-0.309639,0.215626,267.735,36.6338)">
                            <rect x="350" y="860" width="14" height="1.77"/>
                        </g>
                    </g>
                </g>
            </g>
        </g>
    </g>
</svg>
