<?xml version="1.0" encoding="UTF-8" standalone="no"?>
<!DOCTYPE svg PUBLIC "-//W3C//DTD SVG 1.1//EN" "http://www.w3.org/Graphics/SVG/1.1/DTD/svg11.dtd">
<svg width="100%" height="100%" viewBox="0 0 19 19" version="1.1" xmlns="http://www.w3.org/2000/svg" xmlns:xlink="http://www.w3.org/1999/xlink" xml:space="preserve" xmlns:serif="http://www.serif.com/" style="fill-rule:evenodd;clip-rule:evenodd;stroke-linejoin:round;stroke-miterlimit:2;">
    <g transform="matrix(1,0,0,1,-80,-4)">
        <g id="Filter_GameObjects_Disabled" transform="matrix(1,0,0,1,82,4)">
            <g opacity="0.3">
                <g>
                    <g id="Transparent-BG" serif:id="Transparent BG" transform="matrix(0.95,0,0,0.95,-2,-1.13687e-13)">
                        <rect x="0" y="0" width="20" height="20" style="fill:white;fill-opacity:0;"/>
                    </g>
                    <g transform="matrix(0.692308,0,0,0.692308,-568.923,180.077)">
                        <clipPath id="_clip1">
                            <path d="M846.333,-232.667L846.333,-254.333C846.333,-254.333 838.851,-253.501 838.795,-253.431L833.333,-246.604L833.333,-237C833.333,-236.431 832.999,-235.914 832.479,-235.682C831.959,-235.449 831.535,-235.48 831.031,-235.862C830.483,-236.239 829.612,-237.715 829.021,-238.498L827.556,-232.667C827.249,-232.941 846.333,-232.667 846.333,-232.667Z"/>
                        </clipPath>
                        <g clip-path="url(#_clip1)">
                            <g transform="matrix(1.00729,0,0,0.977643,830.616,-248.776)">
                                <path d="M7.033,15L14.17,11.542L14.169,2.436L6.929,0.112L-0.17,2.436L-0.17,11.542L7.033,15ZM7,7.006L1.263,4.085L1.264,10.087L6.985,12.997L7,7.006ZM11.917,3.446L6.941,1.74L3.108,3.107L7.341,5.131L11.917,3.446Z" style="fill-opacity:0.45;"/>
                            </g>
                        </g>
                    </g>
                    <g transform="matrix(2.4,0,0,1.71429,-1967.8,-282.571)">
                        <path d="M821.583,169.609L821.583,173L822.417,174.75L822.417,169.609L824.5,166.692L824.5,166L819.5,166L819.5,166.692L821.583,169.609Z" style="fill-opacity:0.45;"/>
                    </g>
                </g>
            </g>
        </g>
    </g>
</svg>
