<?xml version="1.0" encoding="UTF-8" standalone="no"?><!DOCTYPE svg PUBLIC "-//W3C//DTD SVG 1.1//EN" "http://www.w3.org/Graphics/SVG/1.1/DTD/svg11.dtd"><svg width="100%" height="100%" viewBox="0 0 63 63" version="1.1" xmlns="http://www.w3.org/2000/svg" xmlns:xlink="http://www.w3.org/1999/xlink" xml:space="preserve" xmlns:serif="http://www.serif.com/" style="fill-rule:evenodd;clip-rule:evenodd;stroke-linejoin:round;stroke-miterlimit:2;"><g id="SchematicView_OverrideAdvancedSettings_off" opacity="0.45"><g id="Icons"><g id="Base-Block" serif:id="Base Block"><path d="M62.5,8.75c-0,-4.829 -3.921,-8.75 -8.75,-8.75l-45,0c-4.829,0 -8.75,3.921 -8.75,8.75l-0,45c-0,4.829 3.921,8.75 8.75,8.75l45,0c4.829,0 8.75,-3.921 8.75,-8.75l-0,-45Z" style="fill-opacity:0;"/></g><g id="Object-Icon-Base" serif:id="Object Icon Base"><path d="M62.5,9.375c-0,-5.174 -4.201,-9.375 -9.375,-9.375l-43.75,0c-5.174,0 -9.375,4.201 -9.375,9.375l0,43.75c0,5.174 4.201,9.375 9.375,9.375l43.75,0c5.174,0 9.375,-4.201 9.375,-9.375l-0,-43.75Z" style="fill-opacity:0;"/></g><path d="M37.5,33.333l25,0l0,25l-25,0l0,-25Zm-8.333,0l-0,25l-25,0l-0,-25l25,0Zm-4.167,20.834l0,-16.667l-16.667,0l0,16.667l16.667,-0Zm-20.833,-54.167l25,0l-0,25l-25,0l-0,-25Zm58.333,0l0,25l-25,0l0,-25l25,0Zm-37.5,4.167l-16.667,-0l0,16.666l16.667,0l0,-16.666Zm33.333,16.666l0,-16.666l-16.666,-0l-0,16.666l16.666,0Z" style="fill:#989898;"/></g></g></svg>