<?xml version="1.0" encoding="UTF-8" standalone="no"?><!DOCTYPE svg PUBLIC "-//W3C//DTD SVG 1.1//EN" "http://www.w3.org/Graphics/SVG/1.1/DTD/svg11.dtd"><svg width="100%" height="100%" viewBox="0 0 63 63" version="1.1" xmlns="http://www.w3.org/2000/svg" xmlns:xlink="http://www.w3.org/1999/xlink" xml:space="preserve" xmlns:serif="http://www.serif.com/" style="fill-rule:evenodd;clip-rule:evenodd;stroke-linejoin:round;stroke-miterlimit:2;"><g id="SchematicView_OverrideAuxbus_on"><path id="AuxBus" d="M62.5,8.75c-0,-4.829 -3.921,-8.75 -8.75,-8.75l-45,-0c-4.829,-0 -8.75,3.921 -8.75,8.75l-0,45c-0,4.829 3.921,8.75 8.75,8.75l45,-0c4.829,-0 8.75,-3.921 8.75,-8.75l-0,-45Z" style="fill-opacity:0;"/><g id="AuxBus1" serif:id="AuxBus"><path d="M50,14.583c0,-1.149 -0.934,-2.083 -2.083,-2.083l-45.834,0c-1.149,0 -2.083,0.934 -2.083,2.083l0,35.42l12.446,12.497l35.471,-0c1.149,-0 2.083,-0.934 2.083,-2.083l0,-45.834Zm4.167,39.584l8.333,-0l-0,-4.167l-8.333,0l-0,4.167Zm-0,-8.334l8.333,0l-0,-4.166l-8.333,-0l-0,4.166Zm-0,-8.333l8.333,0l-0,-4.167l-8.333,0l-0,4.167Zm-33.334,-29.167l0,-8.333l-4.166,0l-0,8.333l4.166,0Zm-8.333,0l0,-8.333l-4.167,0l0,8.333l4.167,0Zm16.667,0l-0,-8.333l-4.167,0l-0,8.333l4.167,0Z" style="fill:#ee8b2f;"/><path d="M54.167,50l-4.167,-0l-0,4.167l4.167,-0l-0,-4.167Zm-0,-8.333l-4.167,-0l-0,4.166l4.167,0l-0,-4.166Zm-0,-8.334l-4.167,0l-0,4.167l4.167,-0l-0,-4.167Zm-25,-25l-4.167,0l-0,4.167l4.167,-0l-0,-4.167Zm-8.334,0l-4.166,0l-0,4.167l4.166,-0l0,-4.167Zm-8.333,0l-4.167,0l0,4.167l4.167,-0l-0,-4.167Z" style="fill:#ee8b2f;fill-opacity:0.5;"/></g></g></svg>