<?xml version="1.0" encoding="UTF-8" standalone="no"?><!DOCTYPE svg PUBLIC "-//W3C//DTD SVG 1.1//EN" "http://www.w3.org/Graphics/SVG/1.1/DTD/svg11.dtd"><svg width="100%" height="100%" viewBox="0 0 63 63" version="1.1" xmlns="http://www.w3.org/2000/svg" xmlns:xlink="http://www.w3.org/1999/xlink" xml:space="preserve" xmlns:serif="http://www.serif.com/" style="fill-rule:evenodd;clip-rule:evenodd;stroke-linejoin:round;stroke-miterlimit:2;"><g id="SchematicView_OverridePositioning_on"><g id="Icons"><g id="Base-Block" serif:id="Base Block"><path d="M62.5,8.75c-0,-4.829 -3.921,-8.75 -8.75,-8.75l-45,0c-4.829,0 -8.75,3.921 -8.75,8.75l-0,45c-0,4.829 3.921,8.75 8.75,8.75l45,0c4.829,0 8.75,-3.921 8.75,-8.75l-0,-45Z" style="fill-opacity:0;"/></g><g id="Object-Icon-Base" serif:id="Object Icon Base"><path d="M62.5,9.375c0,-5.174 -4.201,-9.375 -9.375,-9.375l-43.75,0c-5.174,0 -9.375,4.201 -9.375,9.375l0,43.75c0,5.174 4.201,9.375 9.375,9.375l43.75,0c5.174,0 9.375,-4.201 9.375,-9.375l0,-43.75Z" style="fill-opacity:0;"/></g><path d="M37.5,25l-12.5,0l-0,12.5l12.5,0l-0,-12.5Zm4.167,16.667l-8.334,-0l0,20.833l-4.166,0l-0,-20.833l-8.334,-0l0,-8.334l-20.833,0l0,-4.166l20.833,-0l0,-8.334l8.334,0l-0,-20.833l4.166,0l0,20.833l8.334,0l-0,8.334l20.833,-0l-0,4.166l-20.833,0l-0,8.334Z" style="fill:#ee8b2f;"/></g></g></svg>