<?xml version="1.0" encoding="UTF-8" standalone="no"?><!DOCTYPE svg PUBLIC "-//W3C//DTD SVG 1.1//EN" "http://www.w3.org/Graphics/SVG/1.1/DTD/svg11.dtd"><svg width="100%" height="100%" viewBox="0 0 63 63" version="1.1" xmlns="http://www.w3.org/2000/svg" xmlns:xlink="http://www.w3.org/1999/xlink" xml:space="preserve" xmlns:serif="http://www.serif.com/" style="fill-rule:evenodd;clip-rule:evenodd;stroke-linejoin:round;stroke-miterlimit:2;"><g id="SchematicView_StateGroup_on"><g id="Icons"><g id="Base-Block" serif:id="Base Block"><path d="M62.5,8.75c-0,-4.829 -3.921,-8.75 -8.75,-8.75l-45,0c-4.829,0 -8.75,3.921 -8.75,8.75l-0,45c-0,4.829 3.921,8.75 8.75,8.75l45,0c4.829,0 8.75,-3.921 8.75,-8.75l-0,-45Z" style="fill-opacity:0;"/></g><path d="M29.167,50c13.516,0 20.833,-6.916 20.833,-18.75c-0,-11.834 -7.317,-18.75 -20.833,-18.75l-0,37.5Zm29.166,-18.75c0,14.96 -12.128,27.083 -27.083,27.083c-14.955,0 -27.083,-12.123 -27.083,-27.083c-0,-14.96 12.128,-27.083 27.083,-27.083c14.955,-0 27.083,12.123 27.083,27.083" style="fill:#ee8b2f;fill-rule:nonzero;"/></g></g></svg>