<?xml version="1.0" encoding="UTF-8" standalone="no"?><!DOCTYPE svg PUBLIC "-//W3C//DTD SVG 1.1//EN" "http://www.w3.org/Graphics/SVG/1.1/DTD/svg11.dtd"><svg width="100%" height="100%" viewBox="0 0 63 63" version="1.1" xmlns="http://www.w3.org/2000/svg" xmlns:xlink="http://www.w3.org/1999/xlink" xml:space="preserve" xmlns:serif="http://www.serif.com/" style="fill-rule:evenodd;clip-rule:evenodd;stroke-linejoin:round;stroke-miterlimit:2;"><g id="SchematicView_Metadata_off" opacity="0.45"><g id="Icons"><g id="Base-Block" serif:id="Base Block"><path d="M62.5,8.75c-0,-4.829 -3.921,-8.75 -8.75,-8.75l-45,0c-4.829,0 -8.75,3.921 -8.75,8.75l-0,45c-0,4.829 3.921,8.75 8.75,8.75l45,0c4.829,0 8.75,-3.921 8.75,-8.75l-0,-45Z" style="fill-opacity:0;"/></g><path d="M62.5,23.611l-14.423,-15.278l-48.077,0l-0,45.834l48.077,-0l14.423,-15.278l-0,-15.278Zm-28.946,-0.435l8.648,7.986c-0,0 -8.661,8.173 -8.661,8.173c-0.627,0.592 -0.656,1.582 -0.064,2.209c0.592,0.627 1.582,0.656 2.209,0.064l9.878,-9.322l-0.012,-2.284l-9.878,-9.121c-0.634,-0.586 -1.623,-0.546 -2.208,0.087c-0.585,0.634 -0.546,1.623 0.088,2.208Zm-10.896,-2.219l-9.244,9.079l-0.012,2.217l9.244,9.278c0.608,0.611 1.598,0.613 2.209,0.004c0.611,-0.609 0.613,-1.599 0.004,-2.21l-8.133,-8.163c0,0.001 8.121,-7.975 8.121,-7.975c0.616,-0.605 0.625,-1.595 0.02,-2.21c-0.604,-0.615 -1.594,-0.624 -2.209,-0.02Z" style="fill:#989898;"/></g></g></svg>