<?xml version="1.0" encoding="UTF-8" standalone="no"?><!DOCTYPE svg PUBLIC "-//W3C//DTD SVG 1.1//EN" "http://www.w3.org/Graphics/SVG/1.1/DTD/svg11.dtd"><svg width="100%" height="100%" viewBox="0 0 63 63" version="1.1" xmlns="http://www.w3.org/2000/svg" xmlns:xlink="http://www.w3.org/1999/xlink" xml:space="preserve" xmlns:serif="http://www.serif.com/" style="fill-rule:evenodd;clip-rule:evenodd;stroke-linejoin:round;stroke-miterlimit:2;"><g id="SchematicView_OverrideEffect_off" opacity="0.45"><g id="Icons"><g id="Base-Block" serif:id="Base Block"><path d="M62.5,8.75c-0,-4.829 -3.921,-8.75 -8.75,-8.75l-45,0c-4.829,0 -8.75,3.921 -8.75,8.75l-0,45c-0,4.829 3.921,8.75 8.75,8.75l45,0c4.829,0 8.75,-3.921 8.75,-8.75l-0,-45Z" style="fill-opacity:0;"/></g><path d="M41.327,37.242l8.599,-10.874l7.263,7.21l-10.796,8.538l10.527,8.27l-6.778,6.729l-8.33,-10.763l-8.545,10.977l-7.263,-7.21l11.213,-8.484l-10.997,-8.27l6.777,-6.729l8.33,10.606Zm-37.16,-28.909l33.333,0l-0,8.334l-25,-0l-0,8.333l8.333,0l0,8.333l-8.333,0l-0,20.834l-8.333,-0l-0,-45.834Z" style="fill:#989898;fill-rule:nonzero;"/></g></g></svg>