<?xml version="1.0" encoding="UTF-8" standalone="no"?><!DOCTYPE svg PUBLIC "-//W3C//DTD SVG 1.1//EN" "http://www.w3.org/Graphics/SVG/1.1/DTD/svg11.dtd"><svg width="100%" height="100%" viewBox="0 0 63 63" version="1.1" xmlns="http://www.w3.org/2000/svg" xmlns:xlink="http://www.w3.org/1999/xlink" xml:space="preserve" xmlns:serif="http://www.serif.com/" style="fill-rule:evenodd;clip-rule:evenodd;stroke-linejoin:round;stroke-miterlimit:2;"><g id="SchematicView_OverrideConversion_off" opacity="0.45"><g id="Icons"><g id="Base-Block" serif:id="Base Block"><path d="M62.5,8.75c0,-4.829 -3.921,-8.75 -8.75,-8.75l-45,0c-4.829,0 -8.75,3.921 -8.75,8.75l0,45c0,4.829 3.921,8.75 8.75,8.75l45,0c4.829,0 8.75,-3.921 8.75,-8.75l0,-45Z" style="fill-opacity:0;"/></g><g><path d="M58.333,54.171l-18.752,0l-8.331,8.333l-8.331,-8.333l-18.752,0l-0,-4.167l54.166,0l0,4.167Zm-18.75,-45.833l18.75,-0l0,4.166l-54.166,0l-0,-4.166l18.75,-0l8.333,-8.334l8.333,8.334Z" style="fill:#989898;fill-opacity:0.5;"/><path d="M58.333,28.458c-0.271,0.246 -0.536,0.475 -0.807,0.725c-3.708,3.442 -7.209,6.692 -11.503,6.692c-4.447,0 -8.101,-2.951 -10.514,-5.297c-0.63,-0.604 -1.181,-1.137 -1.649,-1.533c-0.369,-0.317 -0.803,-0.742 -1.305,-1.225c-2.891,-2.804 -8.278,-7.146 -16.078,-7.146c-4.993,0 -8.962,2.134 -12.31,4.705l-0,8.966c0.241,-0.225 0.482,-0.425 0.724,-0.654c3.579,-3.329 7.278,-6.767 11.586,-6.767c4.447,0 8.101,2.663 10.514,5.004c0.63,0.609 1.181,1.142 1.649,1.538c0.369,0.316 0.803,0.737 1.305,1.221c2.891,2.804 8.278,7.438 16.078,7.438c5.057,0 8.952,-2.087 12.31,-4.692l0,-8.975Z" style="fill:#989898;fill-rule:nonzero;"/></g></g></g></svg>