<?xml version="1.0" encoding="UTF-8" standalone="no"?>
<!DOCTYPE svg PUBLIC "-//W3C//DTD SVG 1.1//EN" "http://www.w3.org/Graphics/SVG/1.1/DTD/svg11.dtd">
<svg width="100%" height="100%" viewBox="0 0 19 19" version="1.1" xmlns="http://www.w3.org/2000/svg" xmlns:xlink="http://www.w3.org/1999/xlink" xml:space="preserve" xmlns:serif="http://www.serif.com/" style="fill-rule:evenodd;clip-rule:evenodd;stroke-linejoin:round;stroke-miterlimit:2;">
    <g transform="matrix(1,0,0,1,-6,-29)">
        <g transform="matrix(1,0,0,1,1,25)">
            <g id="Visibility_ShowGameObjects_Disabled" transform="matrix(1,0,0,1,5,4)">
                <g id="Close-Icon" serif:id="Close Icon" transform="matrix(0.75,0,0,0.75,-620.75,188.5)">
                    <g id="Transparent-BG" serif:id="Transparent BG" transform="matrix(1.26667,0,0,1.26667,827.667,-251.333)">
                        <rect x="0" y="0" width="20" height="20" style="fill:white;fill-opacity:0;"/>
                    </g>
                    <g id="Hide-Pins" serif:id="Hide Pins" transform="matrix(9.33366,0,0,1.30671,648.864,-251.504)">
                        <g id="Transparent-BG1" serif:id="Transparent BG" transform="matrix(0.13571,0,0,0.969354,19.1568,0.130669)">
                            <path d="M20,1.8C20,0.807 19.193,0 18.2,0L1.8,0C0.807,0 0,0.807 0,1.8L0,18.2C0,19.193 0.807,20 1.8,20L18.2,20C19.193,20 20,19.193 20,18.2L20,1.8Z" style="fill:rgb(216,140,59);fill-opacity:0;"/>
                        </g>
                        <g transform="matrix(0.177,0,0,1.88246,-365.833,-142.122)">
                            <g id="Transparent-BG2" serif:id="Transparent BG" transform="matrix(0.766721,0,0,0.514939,2175.08,75.5674)">
                                <path d="M20,1.8C20,0.807 19.193,0 18.2,0L1.8,0C0.807,0 0,0.807 0,1.8L0,18.2C0,19.193 0.807,20 1.8,20L18.2,20C19.193,20 20,19.193 20,18.2L20,1.8Z" style="fill:rgb(216,140,59);fill-opacity:0;"/>
                            </g>
                            <g transform="matrix(0.590013,0,0,0.396293,2061.56,73.89)">
                                <path d="M197.454,15.811L195.873,14.207C195.341,13.524 195.336,12.804 195.752,12.053C196.643,11.104 198.071,10.248 199.727,10.864L201.834,9.147C201.436,7.954 201.853,6.65 202.702,5.968C203.26,5.483 204.022,5.492 204.516,5.915L209.931,11.381C210.274,11.972 210.338,12.563 209.902,13.155C209.295,13.766 208.144,14.373 206.747,14.136L205.018,16.446C205.56,18.061 204.734,19.201 203.761,20.168C203.096,20.635 202.425,20.604 201.749,20.16L200.165,18.553L197.197,21.355C196.512,21.811 195.824,21.983 195.137,22.003C194.277,22.056 193.752,21.687 193.769,20.636C193.812,19.847 194.016,19.149 194.479,18.599L197.454,15.811Z" style="fill:none;"/>
                            </g>
                        </g>
                    </g>
                    <path d="M832.695,-234.632L833.121,-235.1L834.169,-236.169L829.001,-238.736L829,-245.44L835.683,-242.573L835.672,-237.569C838.004,-239.562 840.372,-240.698 843.666,-240.845L843.666,-247.222L835.588,-249.819L827.667,-247.222L827.667,-237.049L832.695,-234.632ZM841.153,-246.093L835.601,-248L831.325,-246.473L836.048,-244.667L841.153,-246.093Z" style="fill:white;"/>
                    <g id="Eye" transform="matrix(1.33333,0,0,1.33333,986.333,-452.667)">
                        <g transform="matrix(1,0,0,1.1,-125,119.4)">
                            <rect x="11" y="36" width="14" height="10" style="fill:none;"/>
                        </g>
                        <g transform="matrix(1.11765,0,0,1.12375,-3154.48,-58.0031)">
                            <path d="M2726.96,193.833C2723.96,193.833 2720.96,197.991 2720.96,197.991C2720.96,197.991 2723.96,202.149 2726.96,202.149C2729.96,202.149 2732.96,197.991 2732.96,197.991C2732.96,197.991 2729.96,193.833 2726.96,193.833ZM2726.96,194.988C2728.62,194.988 2729.96,196.335 2729.96,197.994C2729.96,199.654 2728.62,201.001 2726.96,201.001C2725.31,201.001 2723.97,199.654 2723.97,197.994C2723.97,196.335 2725.31,194.988 2726.96,194.988Z" style="fill:white;fill-rule:nonzero;"/>
                        </g>
                        <g transform="matrix(0.833192,1.61605e-18,1.55937e-18,0.840017,-253.917,152.157)">
                            <circle cx="175.5" cy="13.5" r="1.5" style="fill:white;"/>
                        </g>
                    </g>
                </g>
                <g id="Star-Small" serif:id="Star Small" transform="matrix(0.628572,0,0,0.628572,-227.045,-29.82)">
                    <g opacity="0">
                        <g transform="matrix(1.02941,0,0,1.02941,-19.3005,-13.2943)">
                            <rect x="382" y="59" width="17" height="17" style="fill:white;fill-opacity:0;"/>
                        </g>
                        <g transform="matrix(1.59091,0,0,1.59091,-3294.7,-324.832)">
                            <path d="M2315,243L2312.96,239.535L2316,238.132L2316,238L2312.46,237.977L2311.59,235L2311.39,235L2310.6,238.003L2306.69,238.003L2309.41,239.535L2307.7,243.303L2311.49,241.132L2315,243Z" style="fill:rgb(58,58,58);"/>
                            <path d="M2311.79,235.694L2312.46,237.977L2316,238L2316,238.132L2312.96,239.535L2315,243L2311.49,241.132L2307.7,243.303L2309.41,239.535L2306.69,238.003L2310.6,238.003L2311.2,235.713L2310.63,235.282L2310.78,235.786C2310.71,235.735 2310.65,235.676 2310.6,235.61C2310.41,235.364 2310.35,235.044 2310.43,234.744L2309.83,237.003C2309.83,237.003 2306.69,237.003 2306.69,237.003C2306.24,237.003 2305.84,237.31 2305.73,237.75C2305.61,238.189 2305.81,238.651 2306.2,238.874L2308.12,239.956C2308.12,239.956 2306.78,242.888 2306.78,242.888C2306.61,243.283 2306.7,243.749 2307.02,244.042C2307.34,244.334 2307.81,244.386 2308.19,244.171L2311.51,242.274C2311.51,242.274 2314.53,243.883 2314.53,243.883C2314.93,244.093 2315.41,244.015 2315.72,243.692C2316.03,243.369 2316.09,242.879 2315.86,242.493L2314.39,239.98C2314.39,239.98 2316.42,239.04 2316.42,239.04L2316.26,239.076C2316.55,238.983 2317,238.741 2317,238.129L2317,237.924C2316.96,237.41 2316.53,237.003 2316.01,237L2313.21,236.982C2313.21,236.982 2312.55,234.718 2312.55,234.718L2311.85,235.649L2311.79,235.694ZM2311.21,235.684L2311.39,235L2311.59,235L2311.78,235.66C2312.08,235.089 2312.53,234 2311.58,234L2311.4,234C2310.43,234 2310.91,235.121 2311.21,235.684Z" style="fill:rgb(58,58,58);"/>
                        </g>
                        <g transform="matrix(1.07692,0,0,1.07692,-41.0964,-15.0269)">
                            <path d="M393.5,58.97L394.943,63.92L400.57,63.92L395.674,66.182L398.681,71.301L393.5,68.352L388.34,71.301L391.326,66.182L386.409,63.92L392.176,63.92L393.5,58.97Z" style="fill:rgb(255,159,57);"/>
                        </g>
                    </g>
                </g>
            </g>
        </g>
    </g>
</svg>
