<?xml version="1.0" encoding="UTF-8" standalone="no"?>
<!DOCTYPE svg PUBLIC "-//W3C//DTD SVG 1.1//EN" "http://www.w3.org/Graphics/SVG/1.1/DTD/svg11.dtd">
<svg width="100%" height="100%" viewBox="0 0 20 20" version="1.1" xmlns="http://www.w3.org/2000/svg" xmlns:xlink="http://www.w3.org/1999/xlink" xml:space="preserve" xmlns:serif="http://www.serif.com/" style="fill-rule:evenodd;clip-rule:evenodd;stroke-linejoin:round;stroke-miterlimit:2;">
    <g transform="matrix(1,0,0,1,-130,-48)">
        <g transform="matrix(1,0,0,1,81,43)">
            <g id="General_SmallDeleteAll_Disabled" opacity="0.3">
                <g id="Transparent-BG" serif:id="Transparent BG" transform="matrix(1,0,0,1,49,5)">
                    <rect x="0" y="0" width="20" height="20" style="fill:white;fill-opacity:0;"/>
                </g>
                <g opacity="0.45">
                    <g transform="matrix(0.673016,0,0,0.722222,48.6349,6.83333)">
                        <path d="M6.486,19C6.486,20.1 7.405,21 8.528,21L14.845,21C15.968,21 16.887,20.1 16.887,19L16.887,8.538L6.486,8.538L6.486,19ZM18.373,4.385L14.915,4.385L13.915,3L9.458,3L8.458,4.385L5,4.385L5,7.154L18.373,7.154L18.373,4.385Z" style="fill:white;fill-rule:nonzero;"/>
                    </g>
                    <g transform="matrix(2,0,0,1,-558,-22)">
                        <rect x="310" y="35" width="3" height="1" style="fill:white;"/>
                    </g>
                    <g transform="matrix(1.33333,0,0,1,-351.333,-19)">
                        <rect x="310" y="35" width="3" height="1" style="fill:white;"/>
                    </g>
                    <g transform="matrix(0.666667,0,0,1,-144.667,-16)">
                        <rect x="310" y="35" width="3" height="1" style="fill:white;"/>
                    </g>
                </g>
            </g>
        </g>
    </g>
</svg>
