<?xml version="1.0" encoding="UTF-8" standalone="no"?>
<!DOCTYPE svg PUBLIC "-//W3C//DTD SVG 1.1//EN" "http://www.w3.org/Graphics/SVG/1.1/DTD/svg11.dtd">
<svg width="100%" height="100%" viewBox="0 0 20 20" version="1.1" xmlns="http://www.w3.org/2000/svg" xmlns:xlink="http://www.w3.org/1999/xlink" xml:space="preserve" xmlns:serif="http://www.serif.com/" style="fill-rule:evenodd;clip-rule:evenodd;stroke-linejoin:round;stroke-miterlimit:2;">
    <g transform="matrix(1,0,0,1,-314,-136)">
        <g transform="matrix(2.16176,0,0,3.19375,35.3235,43.3875)">
            <g id="General_ListMoveDown_Disabled" opacity="0.3">
                <g id="ListMove" transform="matrix(0.517215,0,0,-0.511775,-907.308,613.335)">
                    <g opacity="0.45">
                        <g transform="matrix(1.1925,0,0,0.87402,908.743,583.286)">
                            <rect x="918" y="625" width="15" height="14" style="fill:none;"/>
                        </g>
                        <g transform="matrix(0.894377,0,0,0.655515,1185.11,721.075)">
                            <rect x="918" y="625" width="15" height="14" style="fill:rgb(189,189,189);fill-opacity:0;"/>
                        </g>
                        <g transform="matrix(3.57751,2.99703e-16,2.19059e-17,0.244726,-1283.37,977.941)">
                            <rect x="922" y="632" width="1" height="5" style="fill:white;fill-opacity:0.5;"/>
                        </g>
                        <g transform="matrix(3.57751,2.99703e-16,2.19059e-17,0.244726,-1283.37,980.388)">
                            <rect x="922" y="632" width="1" height="5" style="fill:white;"/>
                        </g>
                        <g transform="matrix(3.57751,2.99703e-16,2.19059e-17,0.244726,-1283.37,982.835)">
                            <rect x="922" y="632" width="1" height="5" style="fill:white;fill-opacity:0.5;"/>
                        </g>
                        <g transform="matrix(0.894377,0,0,0.611814,1185.11,749)">
                            <rect x="922" y="632" width="1" height="5" style="fill:white;"/>
                        </g>
                        <g transform="matrix(0.894377,0,0,0.611814,1185.11,749)">
                            <path d="M922.5,627L926,632L919,632L922.5,627Z" style="fill:white;"/>
                        </g>
                    </g>
                </g>
            </g>
        </g>
    </g>
</svg>
