<?xml version="1.0" encoding="UTF-8" standalone="no"?>
<!DOCTYPE svg PUBLIC "-//W3C//DTD SVG 1.1//EN" "http://www.w3.org/Graphics/SVG/1.1/DTD/svg11.dtd">
<svg width="100%" height="100%" viewBox="0 0 20 20" version="1.1" xmlns="http://www.w3.org/2000/svg" xmlns:xlink="http://www.w3.org/1999/xlink" xml:space="preserve" xmlns:serif="http://www.serif.com/" style="fill-rule:evenodd;clip-rule:evenodd;stroke-linejoin:round;stroke-miterlimit:2;">
    <g transform="matrix(1,0,0,1,-6,-28)">
        <g id="General_ActionsWithTriangle_Normal" transform="matrix(1,0,0,1,-42,24)">
            <g opacity="0.45">
                <g id="Transparent-BG" serif:id="Transparent BG" transform="matrix(1,0,0,1,48,4)">
                    <rect x="0" y="0" width="20" height="20" style="fill:white;fill-opacity:0;"/>
                </g>
                <g transform="matrix(1.73001,7.06216e-17,-7.06216e-17,-1.15334,-255.548,45.2201)">
                    <path d="M185,19L186,21L184,21L185,19Z" style="fill:white;"/>
                </g>
                <g transform="matrix(0.333333,0,0,1,-447.667,-919)">
                    <path d="M1520,937.5C1520,936.672 1517.98,936 1515.5,936C1513.02,936 1511,936.672 1511,937.5C1511,938.328 1513.02,939 1515.5,939C1517.98,939 1520,938.328 1520,937.5Z" style="fill:white;"/>
                </g>
                <g transform="matrix(0.333333,0,0,1,-447.667,-924)">
                    <path d="M1520,937.5C1520,936.672 1517.98,936 1515.5,936C1513.02,936 1511,936.672 1511,937.5C1511,938.328 1513.02,939 1515.5,939C1517.98,939 1520,938.328 1520,937.5Z" style="fill:white;"/>
                </g>
                <g transform="matrix(0.333333,0,0,1,-447.667,-929)">
                    <path d="M1520,937.5C1520,936.672 1517.98,936 1515.5,936C1513.02,936 1511,936.672 1511,937.5C1511,938.328 1513.02,939 1515.5,939C1517.98,939 1520,938.328 1520,937.5Z" style="fill:white;"/>
                </g>
                <g id="Actions">
                </g>
            </g>
        </g>
    </g>
</svg>
