<?xml version="1.0" encoding="UTF-8" standalone="no"?>
<!DOCTYPE svg PUBLIC "-//W3C//DTD SVG 1.1//EN" "http://www.w3.org/Graphics/SVG/1.1/DTD/svg11.dtd">
<svg width="100%" height="100%" viewBox="0 0 20 20" version="1.1" xmlns="http://www.w3.org/2000/svg" xmlns:xlink="http://www.w3.org/1999/xlink" xml:space="preserve" xmlns:serif="http://www.serif.com/" style="fill-rule:evenodd;clip-rule:evenodd;stroke-linejoin:round;stroke-miterlimit:2;">
    <g transform="matrix(1,0,0,1,-246,-26)">
        <g transform="matrix(0.75,0,0,0.75,-350.75,214.5)">
            <g id="General_SettingsWithArrow_Normal">
                <g id="Settings">
                    <g id="Transparent-BG" serif:id="Transparent BG" transform="matrix(1.33333,0,0,1.33333,795.667,-251.333)">
                        <rect x="0" y="0" width="20" height="20" style="fill:none;"/>
                    </g>
                    <g transform="matrix(1.89807,0,0,1.84615,795.329,-250)">
                        <path d="M7.922,11.556L5.122,11.556C4.999,11.556 4.891,11.462 4.869,11.346L4.682,10.01C4.643,9.932 4.567,9.906 4.446,9.943L3.189,10.449C3.073,10.492 2.943,10.449 2.878,10.34L1.401,7.786C1.336,7.678 1.365,7.541 1.459,7.461L2.528,6.624C2.61,6.541 2.609,6.458 2.533,6.374L1.464,5.537C1.37,5.457 1.341,5.32 1.406,5.212L2.831,2.749C2.896,2.641 3.026,2.597 3.142,2.641L4.398,3.146C4.497,3.165 4.575,3.133 4.612,2.997L4.799,1.661C4.821,1.538 4.929,1.444 5.052,1.444L7.956,1.444C8.079,1.444 8.188,1.538 8.209,1.654L8.397,2.99C8.427,3.076 8.483,3.111 8.57,3.085L9.827,2.579C9.943,2.536 10.073,2.579 10.138,2.688L11.62,5.251C11.685,5.359 11.657,5.496 11.563,5.576L10.494,6.413C10.444,6.445 10.433,6.512 10.468,6.623L11.537,7.461C11.631,7.54 11.66,7.678 11.595,7.786L10.13,10.319C10.065,10.427 9.935,10.47 9.819,10.427L8.563,9.922C8.478,9.885 8.413,9.919 8.362,10.003L8.174,11.339C8.153,11.462 8.044,11.556 7.922,11.556Z" style="fill:rgb(58,58,58);"/>
                    </g>
                    <g transform="matrix(1.62692,0,0,1.58242,797.092,-248.286)">
                        <path d="M7.511,11.556L5.489,11.556C5.366,11.556 5.258,11.462 5.236,11.346L5.048,10.01C4.738,9.88 4.456,9.714 4.196,9.512L2.939,10.017C2.824,10.061 2.694,10.017 2.629,9.909L1.618,8.161C1.553,8.053 1.582,7.916 1.676,7.836L2.744,6.998C2.723,6.832 2.708,6.666 2.708,6.5C2.708,6.334 2.723,6.168 2.744,6.009L1.676,5.171C1.582,5.092 1.553,4.954 1.618,4.846L2.629,3.098C2.694,2.99 2.824,2.947 2.939,2.99L4.196,3.496C4.456,3.293 4.745,3.127 5.048,2.997L5.236,1.661C5.258,1.538 5.366,1.444 5.489,1.444L7.511,1.444C7.634,1.444 7.742,1.538 7.764,1.654L7.952,2.99C8.262,3.12 8.544,3.286 8.804,3.488L10.061,2.983C10.176,2.939 10.306,2.983 10.371,3.091L11.382,4.839C11.447,4.947 11.418,5.084 11.324,5.164L10.256,6.002C10.277,6.168 10.292,6.334 10.292,6.5C10.292,6.666 10.277,6.832 10.256,6.991L11.324,7.829C11.418,7.908 11.447,8.046 11.382,8.154L10.371,9.902C10.306,10.01 10.176,10.053 10.061,10.01L8.804,9.504C8.544,9.707 8.255,9.873 7.952,10.003L7.764,11.339C7.742,11.462 7.634,11.556 7.511,11.556ZM6.5,5.056C5.706,5.056 5.056,5.706 5.056,6.5C5.056,7.294 5.706,7.944 6.5,7.944C7.294,7.944 7.944,7.294 7.944,6.5C7.944,5.706 7.294,5.056 6.5,5.056Z" style="fill:rgb(189,189,189);"/>
                    </g>
                    <g transform="matrix(2.30668,9.47073e-17,-9.47073e-17,-1.53333,391.02,-199.133)">
                        <path d="M184.538,18.477C184.647,18.259 184.818,18.13 185,18.13C185.182,18.13 185.353,18.259 185.462,18.477L186.462,20.477C186.594,20.741 186.615,21.093 186.517,21.388C186.419,21.683 186.219,21.87 186,21.87L184,21.87C183.781,21.87 183.581,21.683 183.483,21.388C183.385,21.093 183.406,20.741 183.538,20.477L184.538,18.477ZM185,19L186,21L184,21L185,19Z" style="fill:rgb(58,58,58);"/>
                        <path d="M185,19L186,21L184,21L185,19Z" style="fill:rgb(189,189,189);"/>
                    </g>
                </g>
            </g>
        </g>
    </g>
</svg>
